<?xml version="1.0" encoding="UTF-8" standalone="no"?>
<!DOCTYPE svg PUBLIC "-//W3C//DTD SVG 1.1//EN"
 "http://www.w3.org/Graphics/SVG/1.1/DTD/svg11.dtd">
<!-- Generated by graphviz version 2.43.0 (0)
 -->
<!-- Title: src/libs/vlayout/vlayoutpiece.h Pages: 1 -->
<svg width="1312pt" height="140pt"
 viewBox="0.00 0.00 1311.50 140.00" xmlns="http://www.w3.org/2000/svg" xmlns:xlink="http://www.w3.org/1999/xlink">
<g id="graph0" class="graph" transform="scale(1 1) rotate(0) translate(4 136)">
<title>src/libs/vlayout/vlayoutpiece.h</title>
<polygon fill="white" stroke="transparent" points="-4,4 -4,-136 1307.5,-136 1307.5,4 -4,4"/>
<!-- Node1 -->
<g id="node1" class="node">
<title>Node1</title>
<g id="a_node1"><a xlink:title=" ">
<polygon fill="#bfbfbf" stroke="black" points="522,-112.5 522,-131.5 688,-131.5 688,-112.5 522,-112.5"/>
<text text-anchor="middle" x="605" y="-119.5" font-family="Helvetica,sans-Serif" font-size="10.00">src/libs/vlayout/vlayoutpiece.h</text>
</a>
</g>
</g>
<!-- Node2 -->
<g id="node2" class="node">
<title>Node2</title>
<g id="a_node2"><a xlink:href="../../dd/d66/vdxfengine_8cpp.html" target="_top" xlink:title=" ">
<polygon fill="white" stroke="black" points="0,-56.5 0,-75.5 154,-75.5 154,-56.5 0,-56.5"/>
<text text-anchor="middle" x="77" y="-63.5" font-family="Helvetica,sans-Serif" font-size="10.00">src/libs/vdxf/vdxfengine.cpp</text>
</a>
</g>
</g>
<!-- Node1&#45;&gt;Node2 -->
<g id="edge1" class="edge">
<title>Node1&#45;&gt;Node2</title>
<path fill="none" stroke="midnightblue" d="M511.78,-111.59C422.32,-102.53 283.42,-88.43 163,-76 160.16,-75.71 157.27,-75.41 154.35,-75.11"/>
<polygon fill="midnightblue" stroke="midnightblue" points="511.6,-115.09 521.9,-112.61 512.3,-108.12 511.6,-115.09"/>
</g>
<!-- Node3 -->
<g id="node3" class="node">
<title>Node3</title>
<g id="a_node3"><a xlink:href="../../de/da8/vbank_8cpp.html" target="_top" xlink:title=" ">
<polygon fill="white" stroke="black" points="172,-56.5 172,-75.5 316,-75.5 316,-56.5 172,-56.5"/>
<text text-anchor="middle" x="244" y="-63.5" font-family="Helvetica,sans-Serif" font-size="10.00">src/libs/vlayout/vbank.cpp</text>
</a>
</g>
</g>
<!-- Node1&#45;&gt;Node3 -->
<g id="edge2" class="edge">
<title>Node1&#45;&gt;Node3</title>
<path fill="none" stroke="midnightblue" d="M537.59,-110.92C469.39,-100.71 365.12,-85.12 300.93,-75.52"/>
<polygon fill="midnightblue" stroke="midnightblue" points="537.39,-114.43 547.8,-112.44 538.43,-107.5 537.39,-114.43"/>
</g>
<!-- Node4 -->
<g id="node4" class="node">
<title>Node4</title>
<g id="a_node4"><a xlink:href="../../d2/d2d/vlayoutpaper__p_8h.html" target="_top" xlink:title=" ">
<polygon fill="white" stroke="black" points="334.5,-56.5 334.5,-75.5 513.5,-75.5 513.5,-56.5 334.5,-56.5"/>
<text text-anchor="middle" x="424" y="-63.5" font-family="Helvetica,sans-Serif" font-size="10.00">src/libs/vlayout/vlayoutpaper_p.h</text>
</a>
</g>
</g>
<!-- Node1&#45;&gt;Node4 -->
<g id="edge3" class="edge">
<title>Node1&#45;&gt;Node4</title>
<path fill="none" stroke="midnightblue" d="M566.68,-109.57C532.54,-99.38 483.34,-84.7 452.55,-75.52"/>
<polygon fill="midnightblue" stroke="midnightblue" points="565.74,-112.94 576.32,-112.44 567.74,-106.23 565.74,-112.94"/>
</g>
<!-- Node5 -->
<g id="node5" class="node">
<title>Node5</title>
<g id="a_node5"><a xlink:href="../../d1/dd1/vlayoutpaper_8cpp.html" target="_top" xlink:title=" ">
<polygon fill="white" stroke="black" points="453,-0.5 453,-19.5 631,-19.5 631,-0.5 453,-0.5"/>
<text text-anchor="middle" x="542" y="-7.5" font-family="Helvetica,sans-Serif" font-size="10.00">src/libs/vlayout/vlayoutpaper.cpp</text>
</a>
</g>
</g>
<!-- Node1&#45;&gt;Node5 -->
<g id="edge6" class="edge">
<title>Node1&#45;&gt;Node5</title>
<path fill="none" stroke="midnightblue" d="M586.08,-105.55C577.35,-97.54 567.5,-87.12 561,-76 550.2,-57.53 545.15,-32.47 543.14,-19.52"/>
<polygon fill="midnightblue" stroke="midnightblue" points="583.83,-108.23 593.66,-112.18 588.43,-102.96 583.83,-108.23"/>
</g>
<!-- Node6 -->
<g id="node6" class="node">
<title>Node6</title>
<g id="a_node6"><a xlink:href="../../d3/d39/vlayoutgenerator_8cpp.html" target="_top" xlink:title=" ">
<polygon fill="white" stroke="black" points="570.5,-56.5 570.5,-75.5 767.5,-75.5 767.5,-56.5 570.5,-56.5"/>
<text text-anchor="middle" x="669" y="-63.5" font-family="Helvetica,sans-Serif" font-size="10.00">src/libs/vlayout/vlayoutgenerator.cpp</text>
</a>
</g>
</g>
<!-- Node1&#45;&gt;Node6 -->
<g id="edge5" class="edge">
<title>Node1&#45;&gt;Node6</title>
<path fill="none" stroke="midnightblue" d="M622.99,-105.82C634.46,-96.15 648.91,-83.95 658.53,-75.83"/>
<polygon fill="midnightblue" stroke="midnightblue" points="620.67,-103.2 615.28,-112.32 625.18,-108.55 620.67,-103.2"/>
</g>
<!-- Node7 -->
<g id="node7" class="node">
<title>Node7</title>
<g id="a_node7"><a xlink:href="../../df/d5d/vcontour_8cpp.html" target="_top" xlink:title=" ">
<polygon fill="white" stroke="black" points="786,-56.5 786,-75.5 942,-75.5 942,-56.5 786,-56.5"/>
<text text-anchor="middle" x="864" y="-63.5" font-family="Helvetica,sans-Serif" font-size="10.00">src/libs/vlayout/vcontour.cpp</text>
</a>
</g>
</g>
<!-- Node1&#45;&gt;Node7 -->
<g id="edge7" class="edge">
<title>Node1&#45;&gt;Node7</title>
<path fill="none" stroke="midnightblue" d="M656.1,-110.35C705.05,-100.14 777.95,-84.94 823.15,-75.52"/>
<polygon fill="midnightblue" stroke="midnightblue" points="655.11,-106.98 646.04,-112.44 656.54,-113.83 655.11,-106.98"/>
</g>
<!-- Node8 -->
<g id="node8" class="node">
<title>Node8</title>
<g id="a_node8"><a xlink:href="../../db/d5c/vposition_8h.html" target="_top" xlink:title=" ">
<polygon fill="white" stroke="black" points="960,-56.5 960,-75.5 1108,-75.5 1108,-56.5 960,-56.5"/>
<text text-anchor="middle" x="1034" y="-63.5" font-family="Helvetica,sans-Serif" font-size="10.00">src/libs/vlayout/vposition.h</text>
</a>
</g>
</g>
<!-- Node1&#45;&gt;Node8 -->
<g id="edge8" class="edge">
<title>Node1&#45;&gt;Node8</title>
<path fill="none" stroke="midnightblue" d="M683.12,-111.17C764.11,-100.97 889.44,-85.2 966.34,-75.52"/>
<polygon fill="midnightblue" stroke="midnightblue" points="682.46,-107.72 672.98,-112.44 683.34,-114.67 682.46,-107.72"/>
</g>
<!-- Node10 -->
<g id="node10" class="node">
<title>Node10</title>
<g id="a_node10"><a xlink:href="../../dd/d70/vlayoutpiece_8cpp.html" target="_top" xlink:title=" ">
<polygon fill="white" stroke="black" points="1126.5,-56.5 1126.5,-75.5 1303.5,-75.5 1303.5,-56.5 1126.5,-56.5"/>
<text text-anchor="middle" x="1215" y="-63.5" font-family="Helvetica,sans-Serif" font-size="10.00">src/libs/vlayout/vlayoutpiece.cpp</text>
</a>
</g>
</g>
<!-- Node1&#45;&gt;Node10 -->
<g id="edge11" class="edge">
<title>Node1&#45;&gt;Node10</title>
<path fill="none" stroke="midnightblue" d="M698.4,-112.9C801.04,-103.98 970.78,-89.14 1117,-76 1120.06,-75.72 1123.18,-75.44 1126.33,-75.16"/>
<polygon fill="midnightblue" stroke="midnightblue" points="698.03,-109.42 688.37,-113.77 698.64,-116.39 698.03,-109.42"/>
</g>
<!-- Node4&#45;&gt;Node5 -->
<g id="edge4" class="edge">
<title>Node4&#45;&gt;Node5</title>
<path fill="none" stroke="midnightblue" d="M451.9,-52.23C473.97,-42.13 504.18,-28.31 523.39,-19.52"/>
<polygon fill="midnightblue" stroke="midnightblue" points="450.33,-49.1 442.7,-56.44 453.25,-55.46 450.33,-49.1"/>
</g>
<!-- Node8&#45;&gt;Node5 -->
<g id="edge9" class="edge">
<title>Node8&#45;&gt;Node5</title>
<path fill="none" stroke="midnightblue" d="M949.63,-55.74C857,-45.57 709.51,-29.39 619.64,-19.52"/>
<polygon fill="midnightblue" stroke="midnightblue" points="949.49,-59.25 959.81,-56.86 950.25,-52.29 949.49,-59.25"/>
</g>
<!-- Node9 -->
<g id="node9" class="node">
<title>Node9</title>
<g id="a_node9"><a xlink:href="../../df/d76/vposition_8cpp.html" target="_top" xlink:title=" ">
<polygon fill="white" stroke="black" points="954.5,-0.5 954.5,-19.5 1113.5,-19.5 1113.5,-0.5 954.5,-0.5"/>
<text text-anchor="middle" x="1034" y="-7.5" font-family="Helvetica,sans-Serif" font-size="10.00">src/libs/vlayout/vposition.cpp</text>
</a>
</g>
</g>
<!-- Node8&#45;&gt;Node9 -->
<g id="edge10" class="edge">
<title>Node8&#45;&gt;Node9</title>
<path fill="none" stroke="midnightblue" d="M1034,-45.8C1034,-36.91 1034,-26.78 1034,-19.75"/>
<polygon fill="midnightblue" stroke="midnightblue" points="1030.5,-46.08 1034,-56.08 1037.5,-46.08 1030.5,-46.08"/>
</g>
</g>
</svg>
