<?xml version="1.0" encoding="UTF-8" standalone="no"?>
<!DOCTYPE svg PUBLIC "-//W3C//DTD SVG 1.1//EN"
 "http://www.w3.org/Graphics/SVG/1.1/DTD/svg11.dtd">
<!-- Generated by graphviz version 2.43.0 (0)
 -->
<!-- Title: src/app/seamly2d/dialogs/layoutsettings_dialog.h Pages: 1 -->
<!--zoomable 240 -->
<svg id="main" version="1.1" xmlns="http://www.w3.org/2000/svg" xmlns:xlink="http://www.w3.org/1999/xlink" xml:space="preserve" onload="init(evt)">
<style type="text/css"><![CDATA[
.edge:hover path { stroke: red; }
.edge:hover polygon { stroke: red; fill: red; }
]]></style>
<script type="text/javascript"><![CDATA[
var edges = document.getElementsByTagName('g');
if (edges && edges.length) {
  for (var i=0;i<edges.length;i++) {
    if (edges[i].id.substr(0,4)=='edge') {
      edges[i].setAttribute('class','edge');
    }
  }
}
]]></script>
        <defs>
                <circle id="rim" cx="0" cy="0" r="7"/>
                <circle id="rim2" cx="0" cy="0" r="3.5"/>
                <g id="zoomPlus">
                        <use xlink:href="#rim" fill="#404040">
                                <set attributeName="fill" to="#808080" begin="zoomplus.mouseover" end="zoomplus.mouseout"/>
                        </use>
                        <path d="M-4,0h8M0,-4v8" fill="none" stroke="white" stroke-width="1.5" pointer-events="none"/>
                </g>
                <g id="zoomMin">
                        <use xlink:href="#rim" fill="#404040">
                                <set attributeName="fill" to="#808080" begin="zoomminus.mouseover" end="zoomminus.mouseout"/>
                        </use>
                        <path d="M-4,0h8" fill="none" stroke="white" stroke-width="1.5" pointer-events="none"/>
                </g>
                <g id="dirArrow">
                        <path fill="none" stroke="white" stroke-width="1.5" d="M0,-3.0v7 M-2.5,-0.5L0,-3.0L2.5,-0.5"/>
                </g>
               <g id="resetDef">
                       <use xlink:href="#rim2" fill="#404040">
                               <set attributeName="fill" to="#808080" begin="reset.mouseover" end="reset.mouseout"/>
                       </use>
               </g>
        </defs>

<script type="text/javascript">
var viewWidth = 4472;
var viewHeight = 240;
var sectionId = 'dynsection-1';
</script>
<script xlink:href="../../svgpan.js"/>
<svg id="graph" class="graph">
<g id="viewport">
<title>src/app/seamly2d/dialogs/layoutsettings_dialog.h</title>
<polygon fill="white" stroke="transparent" points="-4,4 -4,-236 4467.5,-236 4467.5,4 -4,4"/>
<!-- Node1 -->
<g id="node1" class="node">
<title>Node1</title>
<g id="a_node1"><a xlink:title=" ">
<polygon fill="#bfbfbf" stroke="black" points="2779.5,-201.5 2779.5,-231.5 2920.5,-231.5 2920.5,-201.5 2779.5,-201.5"/>
<text text-anchor="start" x="2787.5" y="-219.5" font-family="Helvetica,sans-Serif" font-size="10.00">src/app/seamly2d/dialogs</text>
<text text-anchor="middle" x="2850" y="-208.5" font-family="Helvetica,sans-Serif" font-size="10.00">/layoutsettings_dialog.h</text>
</a>
</g>
</g>
<!-- Node2 -->
<g id="node2" class="node">
<title>Node2</title>
<g id="a_node2"><a xlink:href="../../dd/d57/vcmdexport_8h.html" target="_top" xlink:title=" ">
<polygon fill="white" stroke="black" points="2622.5,-134.5 2622.5,-164.5 2749.5,-164.5 2749.5,-134.5 2622.5,-134.5"/>
<text text-anchor="start" x="2630.5" y="-152.5" font-family="Helvetica,sans-Serif" font-size="10.00">src/app/seamly2d/core</text>
<text text-anchor="middle" x="2686" y="-141.5" font-family="Helvetica,sans-Serif" font-size="10.00">/vcmdexport.h</text>
</a>
</g>
</g>
<!-- Node1&#45;&gt;Node2 -->
<g id="edge1" class="edge">
<title>Node1&#45;&gt;Node2</title>
<path fill="none" stroke="midnightblue" d="M2805.04,-197.68C2778.74,-187.26 2746,-174.28 2721.52,-164.58"/>
<polygon fill="midnightblue" stroke="midnightblue" points="2803.83,-200.97 2814.41,-201.4 2806.41,-194.46 2803.83,-200.97"/>
</g>
<!-- Node20 -->
<g id="node20" class="node">
<title>Node20</title>
<g id="a_node20"><a xlink:href="../../d0/dfa/layoutsettings__dialog_8cpp.html" target="_top" xlink:title=" ">
<polygon fill="white" stroke="black" points="4079.5,-0.5 4079.5,-30.5 4224.5,-30.5 4224.5,-0.5 4079.5,-0.5"/>
<text text-anchor="start" x="4087.5" y="-18.5" font-family="Helvetica,sans-Serif" font-size="10.00">src/app/seamly2d/dialogs</text>
<text text-anchor="middle" x="4152" y="-7.5" font-family="Helvetica,sans-Serif" font-size="10.00">/layoutsettings_dialog.cpp</text>
</a>
</g>
</g>
<!-- Node1&#45;&gt;Node20 -->
<g id="edge34" class="edge">
<title>Node1&#45;&gt;Node20</title>
<path fill="none" stroke="midnightblue" d="M2930.56,-204.1C3126.21,-176.24 3641.93,-101.81 4071,-31 4073.68,-30.56 4076.4,-30.1 4079.16,-29.64"/>
<polygon fill="midnightblue" stroke="midnightblue" points="2930.05,-200.64 2920.65,-205.51 2931.04,-207.57 2930.05,-200.64"/>
</g>
<!-- Node25 -->
<g id="node25" class="node">
<title>Node25</title>
<g id="a_node25"><a xlink:href="../../d8/de8/mainwindowsnogui_8cpp.html" target="_top" xlink:title=" ">
<polygon fill="white" stroke="black" points="4242.5,-6 4242.5,-25 4463.5,-25 4463.5,-6 4242.5,-6"/>
<text text-anchor="middle" x="4353" y="-13" font-family="Helvetica,sans-Serif" font-size="10.00">src/app/seamly2d/mainwindowsnogui.cpp</text>
</a>
</g>
</g>
<!-- Node1&#45;&gt;Node25 -->
<g id="edge35" class="edge">
<title>Node1&#45;&gt;Node25</title>
<path fill="none" stroke="midnightblue" d="M2930.75,-207.87C3025.53,-198.71 3187.37,-182.37 3326,-165 3699.15,-118.24 4146.62,-49 4299.09,-25.03"/>
<polygon fill="midnightblue" stroke="midnightblue" points="2930.28,-204.4 2920.66,-208.85 2930.95,-211.37 2930.28,-204.4"/>
</g>
<!-- Node29 -->
<g id="node29" class="node">
<title>Node29</title>
<g id="a_node29"><a xlink:href="../../df/d9b/vcmdexport_8cpp.html" target="_top" xlink:title=" ">
<polygon fill="white" stroke="black" points="2681.5,-67.5 2681.5,-97.5 2808.5,-97.5 2808.5,-67.5 2681.5,-67.5"/>
<text text-anchor="start" x="2689.5" y="-85.5" font-family="Helvetica,sans-Serif" font-size="10.00">src/app/seamly2d/core</text>
<text text-anchor="middle" x="2745" y="-74.5" font-family="Helvetica,sans-Serif" font-size="10.00">/vcmdexport.cpp</text>
</a>
</g>
</g>
<!-- Node1&#45;&gt;Node29 -->
<g id="edge33" class="edge">
<title>Node1&#45;&gt;Node29</title>
<path fill="none" stroke="midnightblue" d="M2832.53,-193.54C2810.83,-166.25 2774.42,-120.48 2756.16,-97.52"/>
<polygon fill="midnightblue" stroke="midnightblue" points="2829.8,-195.73 2838.76,-201.37 2835.28,-191.37 2829.8,-195.73"/>
</g>
<!-- Node3 -->
<g id="node3" class="node">
<title>Node3</title>
<g id="a_node3"><a xlink:href="../../d7/d61/application__2d_8h.html" target="_top" xlink:title=" ">
<polygon fill="white" stroke="black" points="2013.5,-67.5 2013.5,-97.5 2140.5,-97.5 2140.5,-67.5 2013.5,-67.5"/>
<text text-anchor="start" x="2021.5" y="-85.5" font-family="Helvetica,sans-Serif" font-size="10.00">src/app/seamly2d/core</text>
<text text-anchor="middle" x="2077" y="-74.5" font-family="Helvetica,sans-Serif" font-size="10.00">/application_2d.h</text>
</a>
</g>
</g>
<!-- Node2&#45;&gt;Node3 -->
<g id="edge2" class="edge">
<title>Node2&#45;&gt;Node3</title>
<path fill="none" stroke="midnightblue" d="M2612.02,-140.6C2491.37,-127.73 2254.32,-102.43 2140.69,-90.3"/>
<polygon fill="midnightblue" stroke="midnightblue" points="2611.95,-144.12 2622.26,-141.7 2612.69,-137.16 2611.95,-144.12"/>
</g>
<!-- Node2&#45;&gt;Node29 -->
<g id="edge28" class="edge">
<title>Node2&#45;&gt;Node29</title>
<path fill="none" stroke="midnightblue" d="M2705.75,-126.74C2714.48,-117.12 2724.5,-106.09 2732.22,-97.58"/>
<polygon fill="midnightblue" stroke="midnightblue" points="2702.93,-124.64 2698.8,-134.4 2708.11,-129.34 2702.93,-124.64"/>
</g>
<!-- Node30 -->
<g id="node30" class="node">
<title>Node30</title>
<g id="a_node30"><a xlink:href="../../d9/d53/mainwindow_8h.html" target="_top" xlink:title=" ">
<polygon fill="white" stroke="black" points="261,-73 261,-92 437,-92 437,-73 261,-73"/>
<text text-anchor="middle" x="349" y="-80" font-family="Helvetica,sans-Serif" font-size="10.00">src/app/seamly2d/mainwindow.h</text>
</a>
</g>
</g>
<!-- Node2&#45;&gt;Node30 -->
<g id="edge29" class="edge">
<title>Node2&#45;&gt;Node30</title>
<path fill="none" stroke="midnightblue" d="M2612.14,-146.45C2266.75,-136.84 811.89,-96.37 437.27,-85.96"/>
<polygon fill="midnightblue" stroke="midnightblue" points="2612.19,-149.95 2622.28,-146.73 2612.38,-142.95 2612.19,-149.95"/>
</g>
<!-- Node4 -->
<g id="node4" class="node">
<title>Node4</title>
<g id="a_node4"><a xlink:href="../../df/d3e/application__2d_8cpp.html" target="_top" xlink:title=" ">
<polygon fill="white" stroke="black" points="206.5,-0.5 206.5,-30.5 333.5,-30.5 333.5,-0.5 206.5,-0.5"/>
<text text-anchor="start" x="214.5" y="-18.5" font-family="Helvetica,sans-Serif" font-size="10.00">src/app/seamly2d/core</text>
<text text-anchor="middle" x="270" y="-7.5" font-family="Helvetica,sans-Serif" font-size="10.00">/application_2d.cpp</text>
</a>
</g>
</g>
<!-- Node3&#45;&gt;Node4 -->
<g id="edge3" class="edge">
<title>Node3&#45;&gt;Node4</title>
<path fill="none" stroke="midnightblue" d="M2002.89,-81.02C1715.09,-78.88 671.19,-68.66 342,-31 339.21,-30.68 336.37,-30.31 333.51,-29.9"/>
<polygon fill="midnightblue" stroke="midnightblue" points="2003.19,-84.52 2013.21,-81.09 2003.24,-77.52 2003.19,-84.52"/>
</g>
<!-- Node5 -->
<g id="node5" class="node">
<title>Node5</title>
<g id="a_node5"><a xlink:href="../../d9/d7f/about2d__dialog_8cpp.html" target="_top" xlink:title=" ">
<polygon fill="white" stroke="black" points="1754.5,-0.5 1754.5,-30.5 1895.5,-30.5 1895.5,-0.5 1754.5,-0.5"/>
<text text-anchor="start" x="1762.5" y="-18.5" font-family="Helvetica,sans-Serif" font-size="10.00">src/app/seamly2d/dialogs</text>
<text text-anchor="middle" x="1825" y="-7.5" font-family="Helvetica,sans-Serif" font-size="10.00">/about2d_dialog.cpp</text>
</a>
</g>
</g>
<!-- Node3&#45;&gt;Node5 -->
<g id="edge4" class="edge">
<title>Node3&#45;&gt;Node5</title>
<path fill="none" stroke="midnightblue" d="M2012.71,-64.92C1971.59,-54.31 1918.82,-40.7 1879.71,-30.61"/>
<polygon fill="midnightblue" stroke="midnightblue" points="2012.07,-68.37 2022.63,-67.48 2013.82,-61.59 2012.07,-68.37"/>
</g>
<!-- Node6 -->
<g id="node6" class="node">
<title>Node6</title>
<g id="a_node6"><a xlink:href="../../dd/db4/abstractlayout__dialog_8cpp.html" target="_top" xlink:title=" ">
<polygon fill="white" stroke="black" points="1914,-0.5 1914,-30.5 2060,-30.5 2060,-0.5 1914,-0.5"/>
<text text-anchor="start" x="1922" y="-18.5" font-family="Helvetica,sans-Serif" font-size="10.00">src/app/seamly2d/dialogs</text>
<text text-anchor="middle" x="1987" y="-7.5" font-family="Helvetica,sans-Serif" font-size="10.00">/abstractlayout_dialog.cpp</text>
</a>
</g>
</g>
<!-- Node3&#45;&gt;Node6 -->
<g id="edge5" class="edge">
<title>Node3&#45;&gt;Node6</title>
<path fill="none" stroke="midnightblue" d="M2049.24,-61.45C2035.39,-51.45 2018.98,-39.6 2006.49,-30.58"/>
<polygon fill="midnightblue" stroke="midnightblue" points="2047.32,-64.38 2057.47,-67.4 2051.41,-58.7 2047.32,-64.38"/>
</g>
<!-- Node7 -->
<g id="node7" class="node">
<title>Node7</title>
<g id="a_node7"><a xlink:href="../../d2/d00/vtooloptionspropertybrowser_8cpp.html" target="_top" xlink:title=" ">
<polygon fill="white" stroke="black" points="2078,-0.5 2078,-30.5 2258,-30.5 2258,-0.5 2078,-0.5"/>
<text text-anchor="start" x="2086" y="-18.5" font-family="Helvetica,sans-Serif" font-size="10.00">src/app/seamly2d/core</text>
<text text-anchor="middle" x="2168" y="-7.5" font-family="Helvetica,sans-Serif" font-size="10.00">/vtooloptionspropertybrowser.cpp</text>
</a>
</g>
</g>
<!-- Node3&#45;&gt;Node7 -->
<g id="edge6" class="edge">
<title>Node3&#45;&gt;Node7</title>
<path fill="none" stroke="midnightblue" d="M2105.07,-61.45C2119.07,-51.45 2135.66,-39.6 2148.29,-30.58"/>
<polygon fill="midnightblue" stroke="midnightblue" points="2102.85,-58.74 2096.75,-67.4 2106.92,-64.43 2102.85,-58.74"/>
</g>
<!-- Node8 -->
<g id="node8" class="node">
<title>Node8</title>
<g id="a_node8"><a xlink:href="../../d2/d2d/preferencesconfigurationpage_8cpp.html" target="_top" xlink:title=" ">
<polygon fill="white" stroke="black" points="2276.5,-0.5 2276.5,-30.5 2523.5,-30.5 2523.5,-0.5 2276.5,-0.5"/>
<text text-anchor="start" x="2284.5" y="-18.5" font-family="Helvetica,sans-Serif" font-size="10.00">src/app/seamly2d/dialogs</text>
<text text-anchor="middle" x="2400" y="-7.5" font-family="Helvetica,sans-Serif" font-size="10.00">/configpages/preferencesconfigurationpage.cpp</text>
</a>
</g>
</g>
<!-- Node3&#45;&gt;Node8 -->
<g id="edge7" class="edge">
<title>Node3&#45;&gt;Node8</title>
<path fill="none" stroke="midnightblue" d="M2150.65,-66.68C2204.54,-55.83 2277.18,-41.22 2330.16,-30.55"/>
<polygon fill="midnightblue" stroke="midnightblue" points="2149.93,-63.25 2140.81,-68.66 2151.31,-70.12 2149.93,-63.25"/>
</g>
<!-- Node9 -->
<g id="node9" class="node">
<title>Node9</title>
<g id="a_node9"><a xlink:href="../../d7/dfa/calculator__dialog_8cpp.html" target="_top" xlink:title=" ">
<polygon fill="white" stroke="black" points="2541.5,-0.5 2541.5,-30.5 2682.5,-30.5 2682.5,-0.5 2541.5,-0.5"/>
<text text-anchor="start" x="2549.5" y="-18.5" font-family="Helvetica,sans-Serif" font-size="10.00">src/app/seamly2d/dialogs</text>
<text text-anchor="middle" x="2612" y="-7.5" font-family="Helvetica,sans-Serif" font-size="10.00">/calculator_dialog.cpp</text>
</a>
</g>
</g>
<!-- Node3&#45;&gt;Node9 -->
<g id="edge8" class="edge">
<title>Node3&#45;&gt;Node9</title>
<path fill="none" stroke="midnightblue" d="M2150.98,-74.87C2241.18,-66.41 2398.15,-50.53 2532,-31 2535.07,-30.55 2538.21,-30.07 2541.37,-29.57"/>
<polygon fill="midnightblue" stroke="midnightblue" points="2150.48,-71.4 2140.85,-75.81 2151.13,-78.37 2150.48,-71.4"/>
</g>
<!-- Node10 -->
<g id="node10" class="node">
<title>Node10</title>
<g id="a_node10"><a xlink:href="../../d9/d70/preferencesgraphicsviewpage_8cpp.html" target="_top" xlink:title=" ">
<polygon fill="white" stroke="black" points="2701,-0.5 2701,-30.5 2949,-30.5 2949,-0.5 2701,-0.5"/>
<text text-anchor="start" x="2709" y="-18.5" font-family="Helvetica,sans-Serif" font-size="10.00">src/app/seamly2d/dialogs</text>
<text text-anchor="middle" x="2825" y="-7.5" font-family="Helvetica,sans-Serif" font-size="10.00">/configpages/preferencesgraphicsviewpage.cpp</text>
</a>
</g>
</g>
<!-- Node3&#45;&gt;Node10 -->
<g id="edge9" class="edge">
<title>Node3&#45;&gt;Node10</title>
<path fill="none" stroke="midnightblue" d="M2150.82,-76.05C2266.18,-67.38 2496.17,-49.55 2691,-31 2694.26,-30.69 2697.57,-30.37 2700.9,-30.04"/>
<polygon fill="midnightblue" stroke="midnightblue" points="2150.4,-72.57 2140.69,-76.8 2150.92,-79.55 2150.4,-72.57"/>
</g>
<!-- Node11 -->
<g id="node11" class="node">
<title>Node11</title>
<g id="a_node11"><a xlink:href="../../dc/d20/preferencespathpage_8cpp.html" target="_top" xlink:title=" ">
<polygon fill="white" stroke="black" points="2967.5,-0.5 2967.5,-30.5 3172.5,-30.5 3172.5,-0.5 2967.5,-0.5"/>
<text text-anchor="start" x="2975.5" y="-18.5" font-family="Helvetica,sans-Serif" font-size="10.00">src/app/seamly2d/dialogs</text>
<text text-anchor="middle" x="3070" y="-7.5" font-family="Helvetica,sans-Serif" font-size="10.00">/configpages/preferencespathpage.cpp</text>
</a>
</g>
</g>
<!-- Node3&#45;&gt;Node11 -->
<g id="edge10" class="edge">
<title>Node3&#45;&gt;Node11</title>
<path fill="none" stroke="midnightblue" d="M2150.8,-79.05C2302.33,-73.64 2659.4,-58.85 2958,-31 2961.12,-30.71 2964.29,-30.4 2967.49,-30.07"/>
<polygon fill="midnightblue" stroke="midnightblue" points="2150.56,-75.56 2140.69,-79.41 2150.8,-82.56 2150.56,-75.56"/>
</g>
<!-- Node12 -->
<g id="node12" class="node">
<title>Node12</title>
<g id="a_node12"><a xlink:href="../../dd/dc2/decimalchart__dialog_8cpp.html" target="_top" xlink:title=" ">
<polygon fill="white" stroke="black" points="3190.5,-0.5 3190.5,-30.5 3331.5,-30.5 3331.5,-0.5 3190.5,-0.5"/>
<text text-anchor="start" x="3198.5" y="-18.5" font-family="Helvetica,sans-Serif" font-size="10.00">src/app/seamly2d/dialogs</text>
<text text-anchor="middle" x="3261" y="-7.5" font-family="Helvetica,sans-Serif" font-size="10.00">/decimalchart_dialog.cpp</text>
</a>
</g>
</g>
<!-- Node3&#45;&gt;Node12 -->
<g id="edge11" class="edge">
<title>Node3&#45;&gt;Node12</title>
<path fill="none" stroke="midnightblue" d="M2150.87,-79.44C2364.64,-73.25 2981.37,-53.89 3182,-31 3184.77,-30.68 3187.59,-30.33 3190.44,-29.94"/>
<polygon fill="midnightblue" stroke="midnightblue" points="2150.59,-75.94 2140.7,-79.73 2150.79,-82.94 2150.59,-75.94"/>
</g>
<!-- Node13 -->
<g id="node13" class="node">
<title>Node13</title>
<g id="a_node13"><a xlink:href="../../dc/d63/preferencespatternpage_8cpp.html" target="_top" xlink:title=" ">
<polygon fill="white" stroke="black" points="3350,-0.5 3350,-30.5 3568,-30.5 3568,-0.5 3350,-0.5"/>
<text text-anchor="start" x="3358" y="-18.5" font-family="Helvetica,sans-Serif" font-size="10.00">src/app/seamly2d/dialogs</text>
<text text-anchor="middle" x="3459" y="-7.5" font-family="Helvetica,sans-Serif" font-size="10.00">/configpages/preferencespatternpage.cpp</text>
</a>
</g>
</g>
<!-- Node3&#45;&gt;Node13 -->
<g id="edge12" class="edge">
<title>Node3&#45;&gt;Node13</title>
<path fill="none" stroke="midnightblue" d="M2150.78,-79.35C2384.59,-72.42 3107.38,-49.99 3341,-31 3343.88,-30.77 3346.8,-30.51 3349.74,-30.25"/>
<polygon fill="midnightblue" stroke="midnightblue" points="2150.57,-75.86 2140.68,-79.65 2150.78,-82.85 2150.57,-75.86"/>
</g>
<!-- Node14 -->
<g id="node14" class="node">
<title>Node14</title>
<g id="a_node14"><a xlink:href="../../d6/d89/dialoglayoutprogress_8cpp.html" target="_top" xlink:title=" ">
<polygon fill="white" stroke="black" points="3586.5,-0.5 3586.5,-30.5 3729.5,-30.5 3729.5,-0.5 3586.5,-0.5"/>
<text text-anchor="start" x="3594.5" y="-18.5" font-family="Helvetica,sans-Serif" font-size="10.00">src/app/seamly2d/dialogs</text>
<text text-anchor="middle" x="3658" y="-7.5" font-family="Helvetica,sans-Serif" font-size="10.00">/dialoglayoutprogress.cpp</text>
</a>
</g>
</g>
<!-- Node3&#45;&gt;Node14 -->
<g id="edge13" class="edge">
<title>Node3&#45;&gt;Node14</title>
<path fill="none" stroke="midnightblue" d="M2150.97,-79.63C2433.36,-72.42 3434.78,-46.04 3577,-31 3579.98,-30.68 3583.02,-30.32 3586.09,-29.93"/>
<polygon fill="midnightblue" stroke="midnightblue" points="2150.74,-76.14 2140.83,-79.89 2150.92,-83.14 2150.74,-76.14"/>
</g>
<!-- Node15 -->
<g id="node15" class="node">
<title>Node15</title>
<g id="a_node15"><a xlink:href="../../d5/d18/dialogpatternproperties_8cpp.html" target="_top" xlink:title=" ">
<polygon fill="white" stroke="black" points="3747.5,-0.5 3747.5,-30.5 3902.5,-30.5 3902.5,-0.5 3747.5,-0.5"/>
<text text-anchor="start" x="3755.5" y="-18.5" font-family="Helvetica,sans-Serif" font-size="10.00">src/app/seamly2d/dialogs</text>
<text text-anchor="middle" x="3825" y="-7.5" font-family="Helvetica,sans-Serif" font-size="10.00">/dialogpatternproperties.cpp</text>
</a>
</g>
</g>
<!-- Node3&#45;&gt;Node15 -->
<g id="edge14" class="edge">
<title>Node3&#45;&gt;Node15</title>
<path fill="none" stroke="midnightblue" d="M2150.94,-79.54C2462.89,-71.21 3659.11,-38.91 3739,-31 3741.71,-30.73 3744.47,-30.43 3747.25,-30.1"/>
<polygon fill="midnightblue" stroke="midnightblue" points="2150.56,-76.04 2140.66,-79.81 2150.75,-83.04 2150.56,-76.04"/>
</g>
<!-- Node16 -->
<g id="node16" class="node">
<title>Node16</title>
<g id="a_node16"><a xlink:href="../../d5/dc5/dialogpreferences_8cpp.html" target="_top" xlink:title=" ">
<polygon fill="white" stroke="black" points="3920.5,-0.5 3920.5,-30.5 4061.5,-30.5 4061.5,-0.5 3920.5,-0.5"/>
<text text-anchor="start" x="3928.5" y="-18.5" font-family="Helvetica,sans-Serif" font-size="10.00">src/app/seamly2d/dialogs</text>
<text text-anchor="middle" x="3991" y="-7.5" font-family="Helvetica,sans-Serif" font-size="10.00">/dialogpreferences.cpp</text>
</a>
</g>
</g>
<!-- Node3&#45;&gt;Node16 -->
<g id="edge15" class="edge">
<title>Node3&#45;&gt;Node16</title>
<path fill="none" stroke="midnightblue" d="M2150.71,-79.63C2487.74,-71.04 3867.49,-35.67 3912,-31 3914.77,-30.71 3917.6,-30.38 3920.44,-30.01"/>
<polygon fill="midnightblue" stroke="midnightblue" points="2150.49,-76.13 2140.58,-79.88 2150.66,-83.13 2150.49,-76.13"/>
</g>
<!-- Node17 -->
<g id="node17" class="node">
<title>Node17</title>
<g id="a_node17"><a xlink:href="../../de/d87/dialognewpattern_8cpp.html" target="_top" xlink:title=" ">
<polygon fill="white" stroke="black" points="520.5,-0.5 520.5,-30.5 661.5,-30.5 661.5,-0.5 520.5,-0.5"/>
<text text-anchor="start" x="528.5" y="-18.5" font-family="Helvetica,sans-Serif" font-size="10.00">src/app/seamly2d/dialogs</text>
<text text-anchor="middle" x="591" y="-7.5" font-family="Helvetica,sans-Serif" font-size="10.00">/dialognewpattern.cpp</text>
</a>
</g>
</g>
<!-- Node3&#45;&gt;Node17 -->
<g id="edge16" class="edge">
<title>Node3&#45;&gt;Node17</title>
<path fill="none" stroke="midnightblue" d="M2003.06,-80.27C1751.84,-75.86 932.13,-59.61 670,-31 667.23,-30.7 664.41,-30.35 661.56,-29.98"/>
<polygon fill="midnightblue" stroke="midnightblue" points="2003.12,-83.77 2013.18,-80.45 2003.24,-76.77 2003.12,-83.77"/>
</g>
<!-- Node18 -->
<g id="node18" class="node">
<title>Node18</title>
<g id="a_node18"><a xlink:href="../../dd/d54/export__layout__dialog_8cpp.html" target="_top" xlink:title=" ">
<polygon fill="white" stroke="black" points="679.5,-0.5 679.5,-30.5 822.5,-30.5 822.5,-0.5 679.5,-0.5"/>
<text text-anchor="start" x="687.5" y="-18.5" font-family="Helvetica,sans-Serif" font-size="10.00">src/app/seamly2d/dialogs</text>
<text text-anchor="middle" x="751" y="-7.5" font-family="Helvetica,sans-Serif" font-size="10.00">/export_layout_dialog.cpp</text>
</a>
</g>
</g>
<!-- Node3&#45;&gt;Node18 -->
<g id="edge17" class="edge">
<title>Node3&#45;&gt;Node18</title>
<path fill="none" stroke="midnightblue" d="M2003.19,-82.07C1810.02,-82.8 1273.9,-79.87 831,-31 828.33,-30.71 825.62,-30.38 822.89,-30.02"/>
<polygon fill="midnightblue" stroke="midnightblue" points="2003.24,-85.57 2013.23,-82.03 2003.21,-78.57 2003.24,-85.57"/>
</g>
<!-- Node19 -->
<g id="node19" class="node">
<title>Node19</title>
<g id="a_node19"><a xlink:href="../../db/d5c/groups__widget_8cpp.html" target="_top" xlink:title=" ">
<polygon fill="white" stroke="black" points="840.5,-0.5 840.5,-30.5 981.5,-30.5 981.5,-0.5 840.5,-0.5"/>
<text text-anchor="start" x="848.5" y="-18.5" font-family="Helvetica,sans-Serif" font-size="10.00">src/app/seamly2d/dialogs</text>
<text text-anchor="middle" x="911" y="-7.5" font-family="Helvetica,sans-Serif" font-size="10.00">/groups_widget.cpp</text>
</a>
</g>
</g>
<!-- Node3&#45;&gt;Node19 -->
<g id="edge18" class="edge">
<title>Node3&#45;&gt;Node19</title>
<path fill="none" stroke="midnightblue" d="M2003.18,-81.5C1827.19,-80.76 1369.33,-74.42 990,-31 987.23,-30.68 984.41,-30.33 981.56,-29.94"/>
<polygon fill="midnightblue" stroke="midnightblue" points="2003.34,-85 2013.35,-81.54 2003.37,-78 2003.34,-85"/>
</g>
<!-- Node3&#45;&gt;Node20 -->
<g id="edge19" class="edge">
<title>Node3&#45;&gt;Node20</title>
<path fill="none" stroke="midnightblue" d="M2150.75,-79.71C2508.45,-71.01 4046.65,-33.47 4071,-31 4073.7,-30.73 4076.45,-30.41 4079.22,-30.07"/>
<polygon fill="midnightblue" stroke="midnightblue" points="2150.42,-76.21 2140.51,-79.96 2150.59,-83.21 2150.42,-76.21"/>
</g>
<!-- Node21 -->
<g id="node21" class="node">
<title>Node21</title>
<g id="a_node21"><a xlink:href="../../d2/df4/show__info__dialog_8cpp.html" target="_top" xlink:title=" ">
<polygon fill="white" stroke="black" points="999.5,-0.5 999.5,-30.5 1140.5,-30.5 1140.5,-0.5 999.5,-0.5"/>
<text text-anchor="start" x="1007.5" y="-18.5" font-family="Helvetica,sans-Serif" font-size="10.00">src/app/seamly2d/dialogs</text>
<text text-anchor="middle" x="1070" y="-7.5" font-family="Helvetica,sans-Serif" font-size="10.00">/show_info_dialog.cpp</text>
</a>
</g>
</g>
<!-- Node3&#45;&gt;Node21 -->
<g id="edge20" class="edge">
<title>Node3&#45;&gt;Node21</title>
<path fill="none" stroke="midnightblue" d="M2003.43,-80.67C1846.11,-78.2 1465.51,-68.5 1149,-31 1146.23,-30.67 1143.41,-30.31 1140.57,-29.91"/>
<polygon fill="midnightblue" stroke="midnightblue" points="2003.42,-84.17 2013.47,-80.82 2003.53,-77.17 2003.42,-84.17"/>
</g>
<!-- Node22 -->
<g id="node22" class="node">
<title>Node22</title>
<g id="a_node22"><a xlink:href="../../df/d69/welcome__dialog_8cpp.html" target="_top" xlink:title=" ">
<polygon fill="white" stroke="black" points="1158.5,-0.5 1158.5,-30.5 1299.5,-30.5 1299.5,-0.5 1158.5,-0.5"/>
<text text-anchor="start" x="1166.5" y="-18.5" font-family="Helvetica,sans-Serif" font-size="10.00">src/app/seamly2d/dialogs</text>
<text text-anchor="middle" x="1229" y="-7.5" font-family="Helvetica,sans-Serif" font-size="10.00">/welcome_dialog.cpp</text>
</a>
</g>
</g>
<!-- Node3&#45;&gt;Node22 -->
<g id="edge21" class="edge">
<title>Node3&#45;&gt;Node22</title>
<path fill="none" stroke="midnightblue" d="M2003.07,-79.5C1865.7,-75.14 1561.95,-62.54 1308,-31 1305.23,-30.66 1302.42,-30.28 1299.57,-29.87"/>
<polygon fill="midnightblue" stroke="midnightblue" points="2003.36,-83.01 2013.46,-79.82 2003.58,-76.01 2003.36,-83.01"/>
</g>
<!-- Node23 -->
<g id="node23" class="node">
<title>Node23</title>
<g id="a_node23"><a xlink:href="../../dd/d84/shortcuts__dialog_8cpp.html" target="_top" xlink:title=" ">
<polygon fill="white" stroke="black" points="1317.5,-0.5 1317.5,-30.5 1458.5,-30.5 1458.5,-0.5 1317.5,-0.5"/>
<text text-anchor="start" x="1325.5" y="-18.5" font-family="Helvetica,sans-Serif" font-size="10.00">src/app/seamly2d/dialogs</text>
<text text-anchor="middle" x="1388" y="-7.5" font-family="Helvetica,sans-Serif" font-size="10.00">/shortcuts_dialog.cpp</text>
</a>
</g>
</g>
<!-- Node3&#45;&gt;Node23 -->
<g id="edge22" class="edge">
<title>Node3&#45;&gt;Node23</title>
<path fill="none" stroke="midnightblue" d="M2003.01,-77.74C1887.99,-71.37 1659.49,-56.57 1467,-31 1464.24,-30.63 1461.42,-30.23 1458.58,-29.81"/>
<polygon fill="midnightblue" stroke="midnightblue" points="2002.93,-81.24 2013.11,-78.3 2003.32,-74.25 2002.93,-81.24"/>
</g>
<!-- Node24 -->
<g id="node24" class="node">
<title>Node24</title>
<g id="a_node24"><a xlink:href="../../dc/d14/app_2seamly2d_2main_8cpp.html" target="_top" xlink:title=" ">
<polygon fill="white" stroke="black" points="351.5,-6 351.5,-25 502.5,-25 502.5,-6 351.5,-6"/>
<text text-anchor="middle" x="427" y="-13" font-family="Helvetica,sans-Serif" font-size="10.00">src/app/seamly2d/main.cpp</text>
</a>
</g>
</g>
<!-- Node3&#45;&gt;Node24 -->
<g id="edge23" class="edge">
<title>Node3&#45;&gt;Node24</title>
<path fill="none" stroke="midnightblue" d="M2003.03,-80.48C1733.72,-76.54 805.9,-61.06 511,-31 497.46,-29.62 482.8,-27.36 469.58,-25.03"/>
<polygon fill="midnightblue" stroke="midnightblue" points="2003.04,-83.98 2013.09,-80.62 2003.14,-76.98 2003.04,-83.98"/>
</g>
<!-- Node3&#45;&gt;Node25 -->
<g id="edge24" class="edge">
<title>Node3&#45;&gt;Node25</title>
<path fill="none" stroke="midnightblue" d="M2151.06,-79.66C2263.6,-76.88 2484.43,-71.45 2672,-67 3366.21,-50.54 3541.4,-81.06 4234,-31 4253.1,-29.62 4273.84,-27.36 4292.57,-25.03"/>
<polygon fill="midnightblue" stroke="midnightblue" points="2150.75,-76.17 2140.84,-79.92 2150.92,-83.17 2150.75,-76.17"/>
</g>
<!-- Node26 -->
<g id="node26" class="node">
<title>Node26</title>
<g id="a_node26"><a xlink:href="../../d3/d49/vpattern_8cpp.html" target="_top" xlink:title=" ">
<polygon fill="white" stroke="black" points="1476.5,-0.5 1476.5,-30.5 1601.5,-30.5 1601.5,-0.5 1476.5,-0.5"/>
<text text-anchor="start" x="1484.5" y="-18.5" font-family="Helvetica,sans-Serif" font-size="10.00">src/app/seamly2d/xml</text>
<text text-anchor="middle" x="1539" y="-7.5" font-family="Helvetica,sans-Serif" font-size="10.00">/vpattern.cpp</text>
</a>
</g>
</g>
<!-- Node3&#45;&gt;Node26 -->
<g id="edge25" class="edge">
<title>Node3&#45;&gt;Node26</title>
<path fill="none" stroke="midnightblue" d="M2003.23,-75.67C1910.94,-67.89 1748.24,-52.54 1610,-31 1607.27,-30.57 1604.48,-30.11 1601.66,-29.63"/>
<polygon fill="midnightblue" stroke="midnightblue" points="2003.05,-79.17 2013.3,-76.52 2003.63,-72.2 2003.05,-79.17"/>
</g>
<!-- Node27 -->
<g id="node27" class="node">
<title>Node27</title>
<g id="a_node27"><a xlink:href="../../d8/dd9/mainwindow_8cpp.html" target="_top" xlink:title=" ">
<polygon fill="white" stroke="black" points="0,-6 0,-25 188,-25 188,-6 0,-6"/>
<text text-anchor="middle" x="94" y="-13" font-family="Helvetica,sans-Serif" font-size="10.00">src/app/seamly2d/mainwindow.cpp</text>
</a>
</g>
</g>
<!-- Node3&#45;&gt;Node27 -->
<g id="edge26" class="edge">
<title>Node3&#45;&gt;Node27</title>
<path fill="none" stroke="midnightblue" d="M2002.89,-80.63C1700.26,-76.9 557.15,-61.09 197,-31 180.44,-29.62 162.49,-27.36 146.27,-25.02"/>
<polygon fill="midnightblue" stroke="midnightblue" points="2003.26,-84.13 2013.3,-80.76 2003.34,-77.13 2003.26,-84.13"/>
</g>
<!-- Node28 -->
<g id="node28" class="node">
<title>Node28</title>
<g id="a_node28"><a xlink:href="../../d9/da3/image__tool_8cpp.html" target="_top" xlink:title=" ">
<polygon fill="white" stroke="black" points="1619.5,-0.5 1619.5,-30.5 1736.5,-30.5 1736.5,-0.5 1619.5,-0.5"/>
<text text-anchor="start" x="1627.5" y="-18.5" font-family="Helvetica,sans-Serif" font-size="10.00">src/libs/tools/images</text>
<text text-anchor="middle" x="1678" y="-7.5" font-family="Helvetica,sans-Serif" font-size="10.00">/image_tool.cpp</text>
</a>
</g>
</g>
<!-- Node3&#45;&gt;Node28 -->
<g id="edge27" class="edge">
<title>Node3&#45;&gt;Node28</title>
<path fill="none" stroke="midnightblue" d="M2003.37,-71.64C1935.94,-62.29 1833.49,-47.29 1745,-31 1742.31,-30.5 1739.56,-29.98 1736.78,-29.44"/>
<polygon fill="midnightblue" stroke="midnightblue" points="2003.08,-75.13 2013.47,-73.03 2004.04,-68.2 2003.08,-75.13"/>
</g>
<!-- Node30&#45;&gt;Node4 -->
<g id="edge30" class="edge">
<title>Node30&#45;&gt;Node4</title>
<path fill="none" stroke="midnightblue" d="M330.45,-66.24C317.34,-55.45 299.9,-41.1 287.12,-30.59"/>
<polygon fill="midnightblue" stroke="midnightblue" points="328.4,-69.08 338.35,-72.73 332.85,-63.68 328.4,-69.08"/>
</g>
<!-- Node30&#45;&gt;Node24 -->
<g id="edge31" class="edge">
<title>Node30&#45;&gt;Node24</title>
<path fill="none" stroke="midnightblue" d="M367.34,-66.21C382.71,-53.41 404.09,-35.59 416.65,-25.13"/>
<polygon fill="midnightblue" stroke="midnightblue" points="364.96,-63.64 359.52,-72.73 369.44,-69.02 364.96,-63.64"/>
</g>
<!-- Node30&#45;&gt;Node27 -->
<g id="edge32" class="edge">
<title>Node30&#45;&gt;Node27</title>
<path fill="none" stroke="midnightblue" d="M305.47,-70.4C255.14,-57.58 173.39,-36.74 127.67,-25.08"/>
<polygon fill="midnightblue" stroke="midnightblue" points="304.85,-73.86 315.4,-72.94 306.58,-67.07 304.85,-73.86"/>
</g>
</g>
</svg>
        <g id="navigator" transform="translate(0 0)" fill="#404254">
                <rect fill="#f2f5e9" fill-opacity="0.5" stroke="#606060" stroke-width=".5" x="0" y="0" width="60" height="60"/>
                <use id="zoomplus" xlink:href="#zoomPlus" x="17" y="9" onmousedown="handleZoom(evt,'in')"/>
                <use id="zoomminus" xlink:href="#zoomMin" x="42" y="9" onmousedown="handleZoom(evt,'out')"/>
                <use id="reset" xlink:href="#resetDef" x="30" y="36" onmousedown="handleReset()"/>
                <g id="arrowUp" xlink:href="#dirArrow" transform="translate(30 24)" onmousedown="handlePan(0,-1)">
                  <use xlink:href="#rim" fill="#404040">
                        <set attributeName="fill" to="#808080" begin="arrowUp.mouseover" end="arrowUp.mouseout"/>
                  </use>
                  <path fill="none" stroke="white" stroke-width="1.5" d="M0,-3.0v7 M-2.5,-0.5L0,-3.0L2.5,-0.5"/>
                </g>
                <g id="arrowRight" xlink:href="#dirArrow" transform="rotate(90) translate(36 -43)" onmousedown="handlePan(1,0)">
                  <use xlink:href="#rim" fill="#404040">
                        <set attributeName="fill" to="#808080" begin="arrowRight.mouseover" end="arrowRight.mouseout"/>
                  </use>
                  <path fill="none" stroke="white" stroke-width="1.5" d="M0,-3.0v7 M-2.5,-0.5L0,-3.0L2.5,-0.5"/>
                </g>
                <g id="arrowDown" xlink:href="#dirArrow" transform="rotate(180) translate(-30 -48)" onmousedown="handlePan(0,1)">
                  <use xlink:href="#rim" fill="#404040">
                        <set attributeName="fill" to="#808080" begin="arrowDown.mouseover" end="arrowDown.mouseout"/>
                  </use>
                  <path fill="none" stroke="white" stroke-width="1.5" d="M0,-3.0v7 M-2.5,-0.5L0,-3.0L2.5,-0.5"/>
                </g>
                <g id="arrowLeft" xlink:href="#dirArrow" transform="rotate(270) translate(-36 17)" onmousedown="handlePan(-1,0)">
                  <use xlink:href="#rim" fill="#404040">
                        <set attributeName="fill" to="#808080" begin="arrowLeft.mouseover" end="arrowLeft.mouseout"/>
                  </use>
                  <path fill="none" stroke="white" stroke-width="1.5" d="M0,-3.0v7 M-2.5,-0.5L0,-3.0L2.5,-0.5"/>
                </g>
        </g>
        <svg viewBox="0 0 15 15" width="100%" height="30px" preserveAspectRatio="xMaxYMin meet">
         <g id="arrow_out" transform="scale(0.3 0.3)">
          <a xlink:href="layoutsettings__dialog_8h__dep__incl_org.svg" target="_base">
           <rect id="button" ry="5" rx="5" y="6" x="6" height="38" width="38"
                fill="#f2f5e9" fill-opacity="0.5" stroke="#606060" stroke-width="1.0"/>
           <path id="arrow"
             d="M 11.500037,31.436501 C 11.940474,20.09759 22.043105,11.32322 32.158766,21.979434 L 37.068811,17.246167 C 37.068811,17.246167 37.088388,32 37.088388,32 L 22.160133,31.978069 C 22.160133,31.978069 26.997745,27.140456 26.997745,27.140456 C 18.528582,18.264221 13.291696,25.230495 11.500037,31.436501 z"
             style="fill:#404040;"/>
          </a>
         </g>
        </svg>
</svg>
