<?xml version="1.0" encoding="UTF-8" standalone="no"?>
<!DOCTYPE svg PUBLIC "-//W3C//DTD SVG 1.1//EN"
 "http://www.w3.org/Graphics/SVG/1.1/DTD/svg11.dtd">
<!-- Generated by graphviz version 2.43.0 (0)
 -->
<!-- Title: src/libs/ifc/exception/vexceptionbadid.h Pages: 1 -->
<svg width="6437pt" height="318pt"
 viewBox="0.00 0.00 6437.00 318.00" xmlns="http://www.w3.org/2000/svg" xmlns:xlink="http://www.w3.org/1999/xlink">
<g id="graph0" class="graph" transform="scale(1 1) rotate(0) translate(4 314)">
<title>src/libs/ifc/exception/vexceptionbadid.h</title>
<polygon fill="white" stroke="transparent" points="-4,4 -4,-314 6433,-314 6433,4 -4,4"/>
<!-- Node1 -->
<g id="node1" class="node">
<title>Node1</title>
<g id="a_node1"><a xlink:title=" ">
<polygon fill="#bfbfbf" stroke="black" points="5239.5,-279.5 5239.5,-309.5 5356.5,-309.5 5356.5,-279.5 5239.5,-279.5"/>
<text text-anchor="start" x="5247.5" y="-297.5" font-family="Helvetica,sans-Serif" font-size="10.00">src/libs/ifc/exception</text>
<text text-anchor="middle" x="5298" y="-286.5" font-family="Helvetica,sans-Serif" font-size="10.00">/vexceptionbadid.h</text>
</a>
</g>
</g>
<!-- Node2 -->
<g id="node2" class="node">
<title>Node2</title>
<g id="a_node2"><a xlink:href="../../d5/d85/vexceptionbadid_8cpp.html" target="_top" xlink:title=" ">
<polygon fill="white" stroke="black" points="5064.5,-212.5 5064.5,-242.5 5185.5,-242.5 5185.5,-212.5 5064.5,-212.5"/>
<text text-anchor="start" x="5072.5" y="-230.5" font-family="Helvetica,sans-Serif" font-size="10.00">src/libs/ifc/exception</text>
<text text-anchor="middle" x="5125" y="-219.5" font-family="Helvetica,sans-Serif" font-size="10.00">/vexceptionbadid.cpp</text>
</a>
</g>
</g>
<!-- Node1&#45;&gt;Node2 -->
<g id="edge1" class="edge">
<title>Node1&#45;&gt;Node2</title>
<path fill="none" stroke="midnightblue" d="M5250.94,-275.82C5223.13,-265.37 5188.41,-252.32 5162.47,-242.58"/>
<polygon fill="midnightblue" stroke="midnightblue" points="5249.87,-279.16 5260.46,-279.4 5252.33,-272.6 5249.87,-279.16"/>
</g>
<!-- Node3 -->
<g id="node3" class="node">
<title>Node3</title>
<g id="a_node3"><a xlink:href="../../d7/d49/vdomdocument_8cpp.html" target="_top" xlink:title=" ">
<polygon fill="white" stroke="black" points="5204,-218 5204,-237 5392,-237 5392,-218 5204,-218"/>
<text text-anchor="middle" x="5298" y="-225" font-family="Helvetica,sans-Serif" font-size="10.00">src/libs/ifc/xml/vdomdocument.cpp</text>
</a>
</g>
</g>
<!-- Node1&#45;&gt;Node3 -->
<g id="edge2" class="edge">
<title>Node1&#45;&gt;Node3</title>
<path fill="none" stroke="midnightblue" d="M5298,-269.25C5298,-258.02 5298,-245.38 5298,-237.19"/>
<polygon fill="midnightblue" stroke="midnightblue" points="5294.5,-269.4 5298,-279.4 5301.5,-269.4 5294.5,-269.4"/>
</g>
<!-- Node4 -->
<g id="node4" class="node">
<title>Node4</title>
<g id="a_node4"><a xlink:href="../../d3/df7/vcontainer_8h.html" target="_top" xlink:title=" ">
<polygon fill="white" stroke="black" points="5410.5,-212.5 5410.5,-242.5 5517.5,-242.5 5517.5,-212.5 5410.5,-212.5"/>
<text text-anchor="start" x="5418.5" y="-230.5" font-family="Helvetica,sans-Serif" font-size="10.00">src/libs/vpatterndb</text>
<text text-anchor="middle" x="5464" y="-219.5" font-family="Helvetica,sans-Serif" font-size="10.00">/vcontainer.h</text>
</a>
</g>
</g>
<!-- Node1&#45;&gt;Node4 -->
<g id="edge3" class="edge">
<title>Node1&#45;&gt;Node4</title>
<path fill="none" stroke="midnightblue" d="M5343.51,-275.68C5370.13,-265.26 5403.27,-252.28 5428.05,-242.58"/>
<polygon fill="midnightblue" stroke="midnightblue" points="5342.05,-272.49 5334.02,-279.4 5344.61,-279.01 5342.05,-272.49"/>
</g>
<!-- Node5 -->
<g id="node5" class="node">
<title>Node5</title>
<g id="a_node5"><a xlink:href="../../dc/db7/measurements_8h.html" target="_top" xlink:title=" ">
<polygon fill="white" stroke="black" points="142.5,-145.5 142.5,-164.5 321.5,-164.5 321.5,-145.5 142.5,-145.5"/>
<text text-anchor="middle" x="232" y="-152.5" font-family="Helvetica,sans-Serif" font-size="10.00">src/libs/vformat/measurements.h</text>
</a>
</g>
</g>
<!-- Node4&#45;&gt;Node5 -->
<g id="edge4" class="edge">
<title>Node4&#45;&gt;Node5</title>
<path fill="none" stroke="midnightblue" d="M5399.97,-212.15C4826.87,-150.44 1138.86,-191.97 610,-176 511.31,-173.02 398.25,-166.65 321.69,-161.89"/>
<polygon fill="midnightblue" stroke="midnightblue" points="5399.85,-215.66 5410.18,-213.3 5400.63,-208.7 5399.85,-215.66"/>
</g>
<!-- Node6 -->
<g id="node6" class="node">
<title>Node6</title>
<g id="a_node6"><a xlink:href="../../d9/de3/measurements_8cpp.html" target="_top" xlink:title=" ">
<polygon fill="white" stroke="black" points="0,-73 0,-92 190,-92 190,-73 0,-73"/>
<text text-anchor="middle" x="95" y="-80" font-family="Helvetica,sans-Serif" font-size="10.00">src/libs/vformat/measurements.cpp</text>
</a>
</g>
</g>
<!-- Node4&#45;&gt;Node6 -->
<g id="edge6" class="edge">
<title>Node4&#45;&gt;Node6</title>
<path fill="none" stroke="midnightblue" d="M5399.92,-212.15C4845.49,-152.82 1288.93,-212 780,-176 539.1,-158.96 253.62,-111.55 142.54,-92.04"/>
<polygon fill="midnightblue" stroke="midnightblue" points="5399.85,-215.66 5410.18,-213.3 5400.63,-208.71 5399.85,-215.66"/>
</g>
<!-- Node7 -->
<g id="node7" class="node">
<title>Node7</title>
<g id="a_node7"><a xlink:href="../../d6/de0/vlayoutpiece_8h.html" target="_top" xlink:title=" ">
<polygon fill="white" stroke="black" points="789,-145.5 789,-164.5 955,-164.5 955,-145.5 789,-145.5"/>
<text text-anchor="middle" x="872" y="-152.5" font-family="Helvetica,sans-Serif" font-size="10.00">src/libs/vlayout/vlayoutpiece.h</text>
</a>
</g>
</g>
<!-- Node4&#45;&gt;Node7 -->
<g id="edge7" class="edge">
<title>Node4&#45;&gt;Node7</title>
<path fill="none" stroke="midnightblue" d="M5400.15,-212.18C5034.34,-173.38 2792.57,-180 2470,-176 1890.17,-168.81 1192,-160.03 955.18,-157.05"/>
<polygon fill="midnightblue" stroke="midnightblue" points="5399.85,-215.67 5410.18,-213.32 5400.63,-208.72 5399.85,-215.67"/>
</g>
<!-- Node17 -->
<g id="node16" class="node">
<title>Node17</title>
<g id="a_node16"><a xlink:href="../../d8/d70/vtextmanager_8cpp.html" target="_top" xlink:title=" ">
<polygon fill="white" stroke="black" points="1529,-73 1529,-92 1711,-92 1711,-73 1529,-73"/>
<text text-anchor="middle" x="1620" y="-80" font-family="Helvetica,sans-Serif" font-size="10.00">src/libs/vlayout/vtextmanager.cpp</text>
</a>
</g>
</g>
<!-- Node4&#45;&gt;Node17 -->
<g id="edge18" class="edge">
<title>Node4&#45;&gt;Node17</title>
<path fill="none" stroke="midnightblue" d="M5400,-212.11C4935.49,-157.47 3814.74,-190.6 3366,-176 2634.01,-152.19 2449.03,-167.96 1720,-98 1704.37,-96.5 1687.45,-94.28 1672.04,-92.02"/>
<polygon fill="midnightblue" stroke="midnightblue" points="5399.83,-215.62 5410.18,-213.33 5400.66,-208.67 5399.83,-215.62"/>
</g>
<!-- Node18 -->
<g id="node17" class="node">
<title>Node18</title>
<g id="a_node17"><a xlink:href="../../d5/d74/vabstractapplication_8h.html" target="_top" xlink:title=" ">
<polygon fill="white" stroke="red" points="3375.5,-145.5 3375.5,-164.5 3570.5,-164.5 3570.5,-145.5 3375.5,-145.5"/>
<text text-anchor="middle" x="3473" y="-152.5" font-family="Helvetica,sans-Serif" font-size="10.00">src/libs/vmisc/vabstractapplication.h</text>
</a>
</g>
</g>
<!-- Node4&#45;&gt;Node18 -->
<g id="edge19" class="edge">
<title>Node4&#45;&gt;Node18</title>
<path fill="none" stroke="midnightblue" d="M5399.99,-212.1C5020.99,-165.7 3907.39,-157.69 3570.56,-156.29"/>
<polygon fill="midnightblue" stroke="midnightblue" points="5399.81,-215.6 5410.17,-213.38 5400.68,-208.66 5399.81,-215.6"/>
</g>
<!-- Node36 -->
<g id="node31" class="node">
<title>Node36</title>
<g id="a_node31"><a xlink:href="../../d6/d46/vcontainer_8cpp.html" target="_top" xlink:title=" ">
<polygon fill="white" stroke="black" points="5269.5,-67.5 5269.5,-97.5 5376.5,-97.5 5376.5,-67.5 5269.5,-67.5"/>
<text text-anchor="start" x="5277.5" y="-85.5" font-family="Helvetica,sans-Serif" font-size="10.00">src/libs/vpatterndb</text>
<text text-anchor="middle" x="5323" y="-74.5" font-family="Helvetica,sans-Serif" font-size="10.00">/vcontainer.cpp</text>
</a>
</g>
</g>
<!-- Node4&#45;&gt;Node36 -->
<g id="edge52" class="edge">
<title>Node4&#45;&gt;Node36</title>
<path fill="none" stroke="midnightblue" d="M5442.7,-204.9C5413.48,-175.26 5361.75,-122.8 5336.98,-97.68"/>
<polygon fill="midnightblue" stroke="midnightblue" points="5440.45,-207.6 5449.96,-212.27 5445.44,-202.69 5440.45,-207.6"/>
</g>
<!-- Node37 -->
<g id="node32" class="node">
<title>Node37</title>
<g id="a_node32"><a xlink:href="../../db/d11/vformula_8cpp.html" target="_top" xlink:title=" ">
<polygon fill="white" stroke="black" points="5394.5,-67.5 5394.5,-97.5 5501.5,-97.5 5501.5,-67.5 5394.5,-67.5"/>
<text text-anchor="start" x="5402.5" y="-85.5" font-family="Helvetica,sans-Serif" font-size="10.00">src/libs/vpatterndb</text>
<text text-anchor="middle" x="5448" y="-74.5" font-family="Helvetica,sans-Serif" font-size="10.00">/vformula.cpp</text>
</a>
</g>
</g>
<!-- Node4&#45;&gt;Node37 -->
<g id="edge54" class="edge">
<title>Node4&#45;&gt;Node37</title>
<path fill="none" stroke="midnightblue" d="M5456,-202.37C5453.61,-194.1 5451.28,-184.73 5450,-176 5445.96,-148.51 5446.46,-115.93 5447.22,-97.7"/>
<polygon fill="midnightblue" stroke="midnightblue" points="5452.71,-203.58 5458.98,-212.12 5459.4,-201.53 5452.71,-203.58"/>
</g>
<!-- Node38 -->
<g id="node33" class="node">
<title>Node38</title>
<g id="a_node33"><a xlink:href="../../df/d7a/vpiece_8cpp.html" target="_top" xlink:title=" ">
<polygon fill="white" stroke="black" points="5519.5,-67.5 5519.5,-97.5 5626.5,-97.5 5626.5,-67.5 5519.5,-67.5"/>
<text text-anchor="start" x="5527.5" y="-85.5" font-family="Helvetica,sans-Serif" font-size="10.00">src/libs/vpatterndb</text>
<text text-anchor="middle" x="5573" y="-74.5" font-family="Helvetica,sans-Serif" font-size="10.00">/vpiece.cpp</text>
</a>
</g>
</g>
<!-- Node4&#45;&gt;Node38 -->
<g id="edge55" class="edge">
<title>Node4&#45;&gt;Node38</title>
<path fill="none" stroke="midnightblue" d="M5465.28,-202.03C5467.43,-181.99 5473.12,-153.81 5488,-134 5500.17,-117.81 5519.18,-105.81 5536.14,-97.59"/>
<polygon fill="midnightblue" stroke="midnightblue" points="5461.77,-201.96 5464.41,-212.22 5468.74,-202.55 5461.77,-201.96"/>
</g>
<!-- Node40 -->
<g id="node35" class="node">
<title>Node40</title>
<g id="a_node35"><a xlink:href="../../d8/dba/vpiecenode_8cpp.html" target="_top" xlink:title=" ">
<polygon fill="white" stroke="black" points="4229.5,-0.5 4229.5,-30.5 4336.5,-30.5 4336.5,-0.5 4229.5,-0.5"/>
<text text-anchor="start" x="4237.5" y="-18.5" font-family="Helvetica,sans-Serif" font-size="10.00">src/libs/vpatterndb</text>
<text text-anchor="middle" x="4283" y="-7.5" font-family="Helvetica,sans-Serif" font-size="10.00">/vpiecenode.cpp</text>
</a>
</g>
</g>
<!-- Node4&#45;&gt;Node40 -->
<g id="edge56" class="edge">
<title>Node4&#45;&gt;Node40</title>
<path fill="none" stroke="midnightblue" d="M5475.81,-203.4C5488.57,-179.26 5508.71,-143.56 5521,-134 5563.28,-101.12 5604.29,-141.16 5636,-98 5644.16,-86.9 5645.56,-76.92 5636,-67 5590.18,-19.44 4581.98,-16.47 4336.51,-16.45"/>
<polygon fill="midnightblue" stroke="midnightblue" points="5472.68,-201.84 5471.16,-212.32 5478.89,-205.08 5472.68,-201.84"/>
</g>
<!-- Node57 -->
<g id="node45" class="node">
<title>Node57</title>
<g id="a_node45"><a xlink:href="../../d3/d02/custom__variable__p_8h.html" target="_top" xlink:title=" ">
<polygon fill="white" stroke="red" points="5529.5,-140 5529.5,-170 5698.5,-170 5698.5,-140 5529.5,-140"/>
<text text-anchor="start" x="5537.5" y="-158" font-family="Helvetica,sans-Serif" font-size="10.00">src/libs/vpatterndb</text>
<text text-anchor="middle" x="5614" y="-147" font-family="Helvetica,sans-Serif" font-size="10.00">/variables/custom_variable_p.h</text>
</a>
</g>
</g>
<!-- Node4&#45;&gt;Node57 -->
<g id="edge50" class="edge">
<title>Node4&#45;&gt;Node57</title>
<path fill="none" stroke="midnightblue" d="M5503.3,-208.03C5528.56,-196.16 5560.87,-180.97 5584.06,-170.07"/>
<polygon fill="midnightblue" stroke="midnightblue" points="5501.56,-204.98 5493.99,-212.4 5504.53,-211.32 5501.56,-204.98"/>
</g>
<!-- Node59 -->
<g id="node46" class="node">
<title>Node59</title>
<g id="a_node46"><a xlink:href="../../d7/d8a/measurement__variable__p_8h.html" target="_top" xlink:title=" ">
<polygon fill="white" stroke="red" points="5717,-134.5 5717,-175.5 5853,-175.5 5853,-134.5 5717,-134.5"/>
<text text-anchor="start" x="5725" y="-163.5" font-family="Helvetica,sans-Serif" font-size="10.00">src/libs/vpatterndb</text>
<text text-anchor="start" x="5725" y="-152.5" font-family="Helvetica,sans-Serif" font-size="10.00">/variables/measurement</text>
<text text-anchor="middle" x="5785" y="-141.5" font-family="Helvetica,sans-Serif" font-size="10.00">_variable_p.h</text>
</a>
</g>
</g>
<!-- Node4&#45;&gt;Node59 -->
<g id="edge51" class="edge">
<title>Node4&#45;&gt;Node59</title>
<path fill="none" stroke="midnightblue" d="M5527.85,-214.19C5577.19,-204.46 5647.11,-190.2 5708,-176 5710.82,-175.34 5713.7,-174.66 5716.61,-173.95"/>
<polygon fill="midnightblue" stroke="midnightblue" points="5527.1,-210.77 5517.96,-216.14 5528.45,-217.64 5527.1,-210.77"/>
</g>
<!-- Node61 -->
<g id="node47" class="node">
<title>Node61</title>
<g id="a_node47"><a xlink:href="../../d6/d91/vnodedetail_8cpp.html" target="_top" xlink:title=" ">
<polygon fill="white" stroke="black" points="5871.5,-140 5871.5,-170 5978.5,-170 5978.5,-140 5871.5,-140"/>
<text text-anchor="start" x="5879.5" y="-158" font-family="Helvetica,sans-Serif" font-size="10.00">src/libs/vpatterndb</text>
<text text-anchor="middle" x="5925" y="-147" font-family="Helvetica,sans-Serif" font-size="10.00">/vnodedetail.cpp</text>
</a>
</g>
</g>
<!-- Node4&#45;&gt;Node61 -->
<g id="edge53" class="edge">
<title>Node4&#45;&gt;Node61</title>
<path fill="none" stroke="midnightblue" d="M5527.93,-221.98C5607.07,-215.56 5745.64,-201.63 5862,-176 5869.4,-174.37 5877.17,-172.25 5884.63,-170.01"/>
<polygon fill="midnightblue" stroke="midnightblue" points="5527.33,-218.51 5517.64,-222.8 5527.88,-225.49 5527.33,-218.51"/>
</g>
<!-- Node62 -->
<g id="node48" class="node">
<title>Node62</title>
<g id="a_node48"><a xlink:href="../../da/de1/vpiecepath_8cpp.html" target="_top" xlink:title=" ">
<polygon fill="white" stroke="black" points="5996.5,-140 5996.5,-170 6103.5,-170 6103.5,-140 5996.5,-140"/>
<text text-anchor="start" x="6004.5" y="-158" font-family="Helvetica,sans-Serif" font-size="10.00">src/libs/vpatterndb</text>
<text text-anchor="middle" x="6050" y="-147" font-family="Helvetica,sans-Serif" font-size="10.00">/vpiecepath.cpp</text>
</a>
</g>
</g>
<!-- Node4&#45;&gt;Node62 -->
<g id="edge57" class="edge">
<title>Node4&#45;&gt;Node62</title>
<path fill="none" stroke="midnightblue" d="M5527.93,-224.78C5627.3,-221.11 5824.42,-209.85 5988,-176 5995.42,-174.46 6003.2,-172.36 6010.65,-170.1"/>
<polygon fill="midnightblue" stroke="midnightblue" points="5527.62,-221.29 5517.75,-225.14 5527.87,-228.28 5527.62,-221.29"/>
</g>
<!-- Node63 -->
<g id="node49" class="node">
<title>Node63</title>
<g id="a_node49"><a xlink:href="../../d1/d3a/abstracttest_8cpp.html" target="_top" xlink:title=" ">
<polygon fill="white" stroke="black" points="6121.5,-145.5 6121.5,-164.5 6282.5,-164.5 6282.5,-145.5 6121.5,-145.5"/>
<text text-anchor="middle" x="6202" y="-152.5" font-family="Helvetica,sans-Serif" font-size="10.00">src/libs/vtest/abstracttest.cpp</text>
</a>
</g>
</g>
<!-- Node4&#45;&gt;Node63 -->
<g id="edge58" class="edge">
<title>Node4&#45;&gt;Node63</title>
<path fill="none" stroke="midnightblue" d="M5527.91,-224.57C5644.68,-220.36 5900.1,-208.03 6113,-176 6131.79,-173.17 6152.52,-168.6 6169.24,-164.54"/>
<polygon fill="midnightblue" stroke="midnightblue" points="5527.59,-221.07 5517.72,-224.92 5527.83,-228.07 5527.59,-221.07"/>
</g>
<!-- Node64 -->
<g id="node50" class="node">
<title>Node64</title>
<g id="a_node50"><a xlink:href="../../da/db4/piece__tablewidgetitem_8cpp.html" target="_top" xlink:title=" ">
<polygon fill="white" stroke="black" points="6301,-140 6301,-170 6429,-170 6429,-140 6301,-140"/>
<text text-anchor="start" x="6309" y="-158" font-family="Helvetica,sans-Serif" font-size="10.00">src/libs/vwidgets/piece</text>
<text text-anchor="middle" x="6365" y="-147" font-family="Helvetica,sans-Serif" font-size="10.00">_tablewidgetitem.cpp</text>
</a>
</g>
</g>
<!-- Node4&#45;&gt;Node64 -->
<g id="edge59" class="edge">
<title>Node4&#45;&gt;Node64</title>
<path fill="none" stroke="midnightblue" d="M5527.8,-227.07C5667.38,-227.35 6009.92,-222.73 6292,-176 6300.95,-174.52 6310.37,-172.38 6319.37,-170.05"/>
<polygon fill="midnightblue" stroke="midnightblue" points="5527.72,-223.57 5517.71,-227.04 5527.7,-230.57 5527.72,-223.57"/>
</g>
<!-- Node5&#45;&gt;Node6 -->
<g id="edge5" class="edge">
<title>Node5&#45;&gt;Node6</title>
<path fill="none" stroke="midnightblue" d="M206.37,-140.81C178.62,-126.53 135.17,-104.17 111.58,-92.03"/>
<polygon fill="midnightblue" stroke="midnightblue" points="204.98,-144.03 215.47,-145.5 208.18,-137.81 204.98,-144.03"/>
</g>
<!-- Node8 -->
<g id="node8" class="node">
<title>Node8</title>
<g id="a_node8"><a xlink:href="../../dd/d66/vdxfengine_8cpp.html" target="_top" xlink:title=" ">
<polygon fill="white" stroke="black" points="628,-73 628,-92 782,-92 782,-73 628,-73"/>
<text text-anchor="middle" x="705" y="-80" font-family="Helvetica,sans-Serif" font-size="10.00">src/libs/vdxf/vdxfengine.cpp</text>
</a>
</g>
</g>
<!-- Node7&#45;&gt;Node8 -->
<g id="edge8" class="edge">
<title>Node7&#45;&gt;Node8</title>
<path fill="none" stroke="midnightblue" d="M842.51,-141.55C808.79,-127.32 754.47,-104.38 725.22,-92.03"/>
<polygon fill="midnightblue" stroke="midnightblue" points="841.28,-144.83 851.86,-145.5 844,-138.38 841.28,-144.83"/>
</g>
<!-- Node9 -->
<g id="node9" class="node">
<title>Node9</title>
<g id="a_node9"><a xlink:href="../../de/da8/vbank_8cpp.html" target="_top" xlink:title=" ">
<polygon fill="white" stroke="black" points="800,-73 800,-92 944,-92 944,-73 800,-73"/>
<text text-anchor="middle" x="872" y="-80" font-family="Helvetica,sans-Serif" font-size="10.00">src/libs/vlayout/vbank.cpp</text>
</a>
</g>
</g>
<!-- Node7&#45;&gt;Node9 -->
<g id="edge9" class="edge">
<title>Node7&#45;&gt;Node9</title>
<path fill="none" stroke="midnightblue" d="M872,-134.94C872,-121.03 872,-102.82 872,-92.22"/>
<polygon fill="midnightblue" stroke="midnightblue" points="868.5,-135.36 872,-145.36 875.5,-135.36 868.5,-135.36"/>
</g>
<!-- Node10 -->
<g id="node10" class="node">
<title>Node10</title>
<g id="a_node10"><a xlink:href="../../df/d5d/vcontour_8cpp.html" target="_top" xlink:title=" ">
<polygon fill="white" stroke="black" points="962,-73 962,-92 1118,-92 1118,-73 962,-73"/>
<text text-anchor="middle" x="1040" y="-80" font-family="Helvetica,sans-Serif" font-size="10.00">src/libs/vlayout/vcontour.cpp</text>
</a>
</g>
</g>
<!-- Node7&#45;&gt;Node10 -->
<g id="edge10" class="edge">
<title>Node7&#45;&gt;Node10</title>
<path fill="none" stroke="midnightblue" d="M901.66,-141.55C935.59,-127.32 990.23,-104.38 1019.66,-92.03"/>
<polygon fill="midnightblue" stroke="midnightblue" points="900.13,-138.4 892.26,-145.5 902.84,-144.85 900.13,-138.4"/>
</g>
<!-- Node11 -->
<g id="node11" class="node">
<title>Node11</title>
<g id="a_node11"><a xlink:href="../../d2/d2d/vlayoutpaper__p_8h.html" target="_top" xlink:title=" ">
<polygon fill="white" stroke="black" points="1136.5,-73 1136.5,-92 1315.5,-92 1315.5,-73 1136.5,-73"/>
<text text-anchor="middle" x="1226" y="-80" font-family="Helvetica,sans-Serif" font-size="10.00">src/libs/vlayout/vlayoutpaper_p.h</text>
</a>
</g>
</g>
<!-- Node7&#45;&gt;Node11 -->
<g id="edge11" class="edge">
<title>Node7&#45;&gt;Node11</title>
<path fill="none" stroke="midnightblue" d="M924.68,-143.51C995,-129.5 1118.21,-104.97 1183.15,-92.03"/>
<polygon fill="midnightblue" stroke="midnightblue" points="923.82,-140.11 914.7,-145.5 925.19,-146.98 923.82,-140.11"/>
</g>
<!-- Node12 -->
<g id="node12" class="node">
<title>Node12</title>
<g id="a_node12"><a xlink:href="../../d1/dd1/vlayoutpaper_8cpp.html" target="_top" xlink:title=" ">
<polygon fill="white" stroke="black" points="295,-6 295,-25 473,-25 473,-6 295,-6"/>
<text text-anchor="middle" x="384" y="-13" font-family="Helvetica,sans-Serif" font-size="10.00">src/libs/vlayout/vlayoutpaper.cpp</text>
</a>
</g>
</g>
<!-- Node7&#45;&gt;Node12 -->
<g id="edge13" class="edge">
<title>Node7&#45;&gt;Node12</title>
<path fill="none" stroke="midnightblue" d="M778.72,-145.62C645.94,-133.29 416.83,-110.39 403,-98 382,-79.2 381.92,-42.09 383.11,-25.22"/>
<polygon fill="midnightblue" stroke="midnightblue" points="778.62,-149.12 788.9,-146.56 779.27,-142.15 778.62,-149.12"/>
</g>
<!-- Node13 -->
<g id="node13" class="node">
<title>Node13</title>
<g id="a_node13"><a xlink:href="../../d3/d39/vlayoutgenerator_8cpp.html" target="_top" xlink:title=" ">
<polygon fill="white" stroke="black" points="412.5,-73 412.5,-92 609.5,-92 609.5,-73 412.5,-73"/>
<text text-anchor="middle" x="511" y="-80" font-family="Helvetica,sans-Serif" font-size="10.00">src/libs/vlayout/vlayoutgenerator.cpp</text>
</a>
</g>
</g>
<!-- Node7&#45;&gt;Node13 -->
<g id="edge14" class="edge">
<title>Node7&#45;&gt;Node13</title>
<path fill="none" stroke="midnightblue" d="M818.28,-143.51C746.57,-129.5 620.93,-104.97 554.7,-92.03"/>
<polygon fill="midnightblue" stroke="midnightblue" points="817.97,-147.01 828.45,-145.5 819.31,-140.14 817.97,-147.01"/>
</g>
<!-- Node14 -->
<g id="node14" class="node">
<title>Node14</title>
<g id="a_node14"><a xlink:href="../../db/d5c/vposition_8h.html" target="_top" xlink:title=" ">
<polygon fill="white" stroke="red" points="208,-73 208,-92 356,-92 356,-73 208,-73"/>
<text text-anchor="middle" x="282" y="-80" font-family="Helvetica,sans-Serif" font-size="10.00">src/libs/vlayout/vposition.h</text>
</a>
</g>
</g>
<!-- Node7&#45;&gt;Node14 -->
<g id="edge15" class="edge">
<title>Node7&#45;&gt;Node14</title>
<path fill="none" stroke="midnightblue" d="M778.61,-145.05C677.67,-135.04 512.14,-117.63 370,-98 357.27,-96.24 343.54,-94.1 330.81,-92.01"/>
<polygon fill="midnightblue" stroke="midnightblue" points="778.49,-148.56 788.78,-146.06 779.18,-141.59 778.49,-148.56"/>
</g>
<!-- Node16 -->
<g id="node15" class="node">
<title>Node16</title>
<g id="a_node15"><a xlink:href="../../dd/d70/vlayoutpiece_8cpp.html" target="_top" xlink:title=" ">
<polygon fill="white" stroke="black" points="1333.5,-73 1333.5,-92 1510.5,-92 1510.5,-73 1333.5,-73"/>
<text text-anchor="middle" x="1422" y="-80" font-family="Helvetica,sans-Serif" font-size="10.00">src/libs/vlayout/vlayoutpiece.cpp</text>
</a>
</g>
</g>
<!-- Node7&#45;&gt;Node16 -->
<g id="edge17" class="edge">
<title>Node7&#45;&gt;Node16</title>
<path fill="none" stroke="midnightblue" d="M955.22,-144.29C1045.96,-133.56 1195.43,-115.47 1324,-98 1337.63,-96.15 1352.32,-94.04 1366.06,-92.01"/>
<polygon fill="midnightblue" stroke="midnightblue" points="954.79,-140.81 945.27,-145.46 955.61,-147.77 954.79,-140.81"/>
</g>
<!-- Node11&#45;&gt;Node12 -->
<g id="edge12" class="edge">
<title>Node11&#45;&gt;Node12</title>
<path fill="none" stroke="midnightblue" d="M1163.23,-71.56C1151.22,-69.87 1138.74,-68.26 1127,-67 891.58,-41.8 612.77,-26.81 473.12,-20.32"/>
<polygon fill="midnightblue" stroke="midnightblue" points="1162.78,-75.03 1173.18,-72.99 1163.78,-68.1 1162.78,-75.03"/>
</g>
<!-- Node14&#45;&gt;Node12 -->
<g id="edge16" class="edge">
<title>Node14&#45;&gt;Node12</title>
<path fill="none" stroke="midnightblue" d="M304.33,-67.27C324.52,-54.4 353.59,-35.88 370.46,-25.13"/>
<polygon fill="midnightblue" stroke="midnightblue" points="302.31,-64.41 295.76,-72.73 306.07,-70.31 302.31,-64.41"/>
</g>
<!-- Node18&#45;&gt;Node16 -->
<g id="edge30" class="edge">
<title>Node18&#45;&gt;Node16</title>
<path fill="none" stroke="midnightblue" d="M3365.47,-152.59C3011.23,-147.7 1882.81,-129.93 1520,-98 1504.24,-96.61 1487.15,-94.35 1471.72,-92.02"/>
<polygon fill="midnightblue" stroke="midnightblue" points="3365.42,-156.09 3375.47,-152.73 3365.52,-149.09 3365.42,-156.09"/>
</g>
<!-- Node18&#45;&gt;Node17 -->
<g id="edge31" class="edge">
<title>Node18&#45;&gt;Node17</title>
<path fill="none" stroke="midnightblue" d="M3365.34,-152.14C3035.52,-146.21 2041.97,-126.4 1720,-98 1704.01,-96.59 1686.68,-94.34 1671,-92.02"/>
<polygon fill="midnightblue" stroke="midnightblue" points="3365.32,-155.64 3375.38,-152.32 3365.44,-148.65 3365.32,-155.64"/>
</g>
<!-- Node19 -->
<g id="node18" class="node">
<title>Node19</title>
<g id="a_node18"><a xlink:href="../../d4/d90/fvupdater_8cpp.html" target="_top" xlink:title=" ">
<polygon fill="white" stroke="black" points="4570.5,-73 4570.5,-92 4723.5,-92 4723.5,-73 4570.5,-73"/>
<text text-anchor="middle" x="4647" y="-80" font-family="Helvetica,sans-Serif" font-size="10.00">src/libs/fervor/fvupdater.cpp</text>
</a>
</g>
</g>
<!-- Node18&#45;&gt;Node19 -->
<g id="edge20" class="edge">
<title>Node18&#45;&gt;Node19</title>
<path fill="none" stroke="midnightblue" d="M3580.83,-152.58C3776.62,-149.07 4203.41,-137.21 4561,-98 4574.55,-96.51 4589.2,-94.28 4602.5,-92.01"/>
<polygon fill="midnightblue" stroke="midnightblue" points="3580.77,-149.08 3570.83,-152.75 3580.89,-156.07 3580.77,-149.08"/>
</g>
<!-- Node20 -->
<g id="node19" class="node">
<title>Node20</title>
<g id="a_node19"><a xlink:href="../../d9/dc8/dxiface_8cpp.html" target="_top" xlink:title=" ">
<polygon fill="white" stroke="black" points="4741.5,-73 4741.5,-92 4876.5,-92 4876.5,-73 4741.5,-73"/>
<text text-anchor="middle" x="4809" y="-80" font-family="Helvetica,sans-Serif" font-size="10.00">src/libs/vdxf/dxiface.cpp</text>
</a>
</g>
</g>
<!-- Node18&#45;&gt;Node20 -->
<g id="edge21" class="edge">
<title>Node18&#45;&gt;Node20</title>
<path fill="none" stroke="midnightblue" d="M3580.68,-154.34C3798.74,-153.89 4307.86,-147.12 4732,-98 4744.3,-96.58 4757.58,-94.33 4769.6,-92.03"/>
<polygon fill="midnightblue" stroke="midnightblue" points="3580.52,-150.84 3570.52,-154.35 3580.53,-157.84 3580.52,-150.84"/>
</g>
<!-- Node21 -->
<g id="node20" class="node">
<title>Node21</title>
<g id="a_node20"><a xlink:href="../../da/d75/vabstractarc__p_8h.html" target="_top" xlink:title=" ">
<polygon fill="white" stroke="red" points="4894.5,-67.5 4894.5,-97.5 5001.5,-97.5 5001.5,-67.5 4894.5,-67.5"/>
<text text-anchor="start" x="4902.5" y="-85.5" font-family="Helvetica,sans-Serif" font-size="10.00">src/libs/vgeometry</text>
<text text-anchor="middle" x="4948" y="-74.5" font-family="Helvetica,sans-Serif" font-size="10.00">/vabstractarc_p.h</text>
</a>
</g>
</g>
<!-- Node18&#45;&gt;Node21 -->
<g id="edge22" class="edge">
<title>Node18&#45;&gt;Node21</title>
<path fill="none" stroke="midnightblue" d="M3580.96,-152.33C3865.88,-147.49 4633.39,-131.64 4885,-98 4888,-97.6 4891.07,-97.12 4894.16,-96.59"/>
<polygon fill="midnightblue" stroke="midnightblue" points="3580.56,-148.83 3570.62,-152.5 3580.68,-155.83 3580.56,-148.83"/>
</g>
<!-- Node23 -->
<g id="node21" class="node">
<title>Node23</title>
<g id="a_node21"><a xlink:href="../../dc/da3/varc__p_8h.html" target="_top" xlink:title=" ">
<polygon fill="white" stroke="red" points="5019.5,-67.5 5019.5,-97.5 5126.5,-97.5 5126.5,-67.5 5019.5,-67.5"/>
<text text-anchor="start" x="5027.5" y="-85.5" font-family="Helvetica,sans-Serif" font-size="10.00">src/libs/vgeometry</text>
<text text-anchor="middle" x="5073" y="-74.5" font-family="Helvetica,sans-Serif" font-size="10.00">/varc_p.h</text>
</a>
</g>
</g>
<!-- Node18&#45;&gt;Node23 -->
<g id="edge23" class="edge">
<title>Node18&#45;&gt;Node23</title>
<path fill="none" stroke="midnightblue" d="M3580.62,-152.74C3882.47,-148.77 4733.12,-134.57 5010,-98 5013,-97.6 5016.08,-97.13 5019.17,-96.6"/>
<polygon fill="midnightblue" stroke="midnightblue" points="3580.5,-149.24 3570.55,-152.87 3580.59,-156.24 3580.5,-149.24"/>
</g>
<!-- Node25 -->
<g id="node22" class="node">
<title>Node25</title>
<g id="a_node22"><a xlink:href="../../d5/d8e/vcubicbezier__p_8h.html" target="_top" xlink:title=" ">
<polygon fill="white" stroke="red" points="5144.5,-67.5 5144.5,-97.5 5251.5,-97.5 5251.5,-67.5 5144.5,-67.5"/>
<text text-anchor="start" x="5152.5" y="-85.5" font-family="Helvetica,sans-Serif" font-size="10.00">src/libs/vgeometry</text>
<text text-anchor="middle" x="5198" y="-74.5" font-family="Helvetica,sans-Serif" font-size="10.00">/vcubicbezier_p.h</text>
</a>
</g>
</g>
<!-- Node18&#45;&gt;Node25 -->
<g id="edge24" class="edge">
<title>Node18&#45;&gt;Node25</title>
<path fill="none" stroke="midnightblue" d="M3580.92,-153.08C3899.58,-149.92 4832.95,-137.47 5135,-98 5138,-97.61 5141.08,-97.14 5144.17,-96.61"/>
<polygon fill="midnightblue" stroke="midnightblue" points="3580.72,-149.58 3570.76,-153.18 3580.79,-156.58 3580.72,-149.58"/>
</g>
<!-- Node27 -->
<g id="node23" class="node">
<title>Node27</title>
<g id="a_node23"><a xlink:href="../../df/dde/vellipticalarc__p_8h.html" target="_top" xlink:title=" ">
<polygon fill="white" stroke="black" points="1729.5,-67.5 1729.5,-97.5 1836.5,-97.5 1836.5,-67.5 1729.5,-67.5"/>
<text text-anchor="start" x="1737.5" y="-85.5" font-family="Helvetica,sans-Serif" font-size="10.00">src/libs/vgeometry</text>
<text text-anchor="middle" x="1783" y="-74.5" font-family="Helvetica,sans-Serif" font-size="10.00">/vellipticalarc_p.h</text>
</a>
</g>
</g>
<!-- Node18&#45;&gt;Node27 -->
<g id="edge25" class="edge">
<title>Node18&#45;&gt;Node27</title>
<path fill="none" stroke="midnightblue" d="M3365.33,-151.38C3027.2,-143 2000.16,-116.33 1851,-98 1846.33,-97.43 1841.5,-96.69 1836.67,-95.85"/>
<polygon fill="midnightblue" stroke="midnightblue" points="3365.29,-154.88 3375.37,-151.63 3365.46,-147.88 3365.29,-154.88"/>
</g>
<!-- Node28 -->
<g id="node24" class="node">
<title>Node28</title>
<g id="a_node24"><a xlink:href="../../d6/dfb/vellipticalarc_8cpp.html" target="_top" xlink:title=" ">
<polygon fill="white" stroke="black" points="1770.5,-0.5 1770.5,-30.5 1877.5,-30.5 1877.5,-0.5 1770.5,-0.5"/>
<text text-anchor="start" x="1778.5" y="-18.5" font-family="Helvetica,sans-Serif" font-size="10.00">src/libs/vgeometry</text>
<text text-anchor="middle" x="1824" y="-7.5" font-family="Helvetica,sans-Serif" font-size="10.00">/vellipticalarc.cpp</text>
</a>
</g>
</g>
<!-- Node18&#45;&gt;Node28 -->
<g id="edge27" class="edge">
<title>Node18&#45;&gt;Node28</title>
<path fill="none" stroke="midnightblue" d="M3365.11,-151.45C3012.81,-142.98 1916.77,-115.3 1884,-98 1856.34,-83.4 1838.14,-49.7 1829.61,-30.52"/>
<polygon fill="midnightblue" stroke="midnightblue" points="3365.24,-154.96 3375.32,-151.7 3365.4,-147.96 3365.24,-154.96"/>
</g>
<!-- Node29 -->
<g id="node25" class="node">
<title>Node29</title>
<g id="a_node25"><a xlink:href="../../d1/d76/vspline__p_8h.html" target="_top" xlink:title=" ">
<polygon fill="white" stroke="red" points="1893.5,-67.5 1893.5,-97.5 2000.5,-97.5 2000.5,-67.5 1893.5,-67.5"/>
<text text-anchor="start" x="1901.5" y="-85.5" font-family="Helvetica,sans-Serif" font-size="10.00">src/libs/vgeometry</text>
<text text-anchor="middle" x="1947" y="-74.5" font-family="Helvetica,sans-Serif" font-size="10.00">/vspline_p.h</text>
</a>
</g>
</g>
<!-- Node18&#45;&gt;Node29 -->
<g id="edge28" class="edge">
<title>Node18&#45;&gt;Node29</title>
<path fill="none" stroke="midnightblue" d="M3365.24,-152.5C3073.38,-148.03 2271.92,-132.84 2010,-98 2007,-97.6 2003.93,-97.12 2000.83,-96.59"/>
<polygon fill="midnightblue" stroke="midnightblue" points="3365.36,-156 3375.41,-152.66 3365.46,-149.01 3365.36,-156"/>
</g>
<!-- Node31 -->
<g id="node26" class="node">
<title>Node31</title>
<g id="a_node26"><a xlink:href="../../d9/d15/vabstractpiece_8cpp.html" target="_top" xlink:title=" ">
<polygon fill="white" stroke="black" points="2019,-73 2019,-92 2205,-92 2205,-73 2019,-73"/>
<text text-anchor="middle" x="2112" y="-80" font-family="Helvetica,sans-Serif" font-size="10.00">src/libs/vlayout/vabstractpiece.cpp</text>
</a>
</g>
</g>
<!-- Node18&#45;&gt;Node31 -->
<g id="edge29" class="edge">
<title>Node18&#45;&gt;Node31</title>
<path fill="none" stroke="midnightblue" d="M3365.07,-152.71C3147.09,-149.34 2638.87,-137.55 2214,-98 2197.97,-96.51 2180.61,-94.27 2164.83,-92"/>
<polygon fill="midnightblue" stroke="midnightblue" points="3365.18,-156.22 3375.23,-152.87 3365.29,-149.22 3365.18,-156.22"/>
</g>
<!-- Node32 -->
<g id="node27" class="node">
<title>Node32</title>
<g id="a_node27"><a xlink:href="../../d6/d0b/def_8cpp.html" target="_top" xlink:title=" ">
<polygon fill="white" stroke="black" points="2223,-73 2223,-92 2345,-92 2345,-73 2223,-73"/>
<text text-anchor="middle" x="2284" y="-80" font-family="Helvetica,sans-Serif" font-size="10.00">src/libs/vmisc/def.cpp</text>
</a>
</g>
</g>
<!-- Node18&#45;&gt;Node32 -->
<g id="edge32" class="edge">
<title>Node18&#45;&gt;Node32</title>
<path fill="none" stroke="midnightblue" d="M3365.04,-154.12C3164.85,-153.11 2722.86,-145.15 2354,-98 2342.8,-96.57 2330.71,-94.32 2319.79,-92.02"/>
<polygon fill="midnightblue" stroke="midnightblue" points="3365.25,-157.62 3375.26,-154.16 3365.28,-150.62 3365.25,-157.62"/>
</g>
<!-- Node33 -->
<g id="node28" class="node">
<title>Node33</title>
<g id="a_node28"><a xlink:href="../../db/d65/dialogexporttocsv_8cpp.html" target="_top" xlink:title=" ">
<polygon fill="white" stroke="black" points="2363.5,-67.5 2363.5,-97.5 2490.5,-97.5 2490.5,-67.5 2363.5,-67.5"/>
<text text-anchor="start" x="2371.5" y="-85.5" font-family="Helvetica,sans-Serif" font-size="10.00">src/libs/vmisc/dialogs</text>
<text text-anchor="middle" x="2427" y="-74.5" font-family="Helvetica,sans-Serif" font-size="10.00">/dialogexporttocsv.cpp</text>
</a>
</g>
</g>
<!-- Node18&#45;&gt;Node33 -->
<g id="edge33" class="edge">
<title>Node18&#45;&gt;Node33</title>
<path fill="none" stroke="midnightblue" d="M3364.96,-152.66C3184.92,-149.34 2812.42,-137.82 2500,-98 2496.92,-97.61 2493.78,-97.16 2490.62,-96.68"/>
<polygon fill="midnightblue" stroke="midnightblue" points="3365.16,-156.17 3375.23,-152.85 3365.29,-149.17 3365.16,-156.17"/>
</g>
<!-- Node34 -->
<g id="node29" class="node">
<title>Node34</title>
<g id="a_node29"><a xlink:href="../../d0/df6/vabstractapplication_8cpp.html" target="_top" xlink:title=" ">
<polygon fill="white" stroke="black" points="2509,-73 2509,-92 2715,-92 2715,-73 2509,-73"/>
<text text-anchor="middle" x="2612" y="-80" font-family="Helvetica,sans-Serif" font-size="10.00">src/libs/vmisc/vabstractapplication.cpp</text>
</a>
</g>
</g>
<!-- Node18&#45;&gt;Node34 -->
<g id="edge34" class="edge">
<title>Node18&#45;&gt;Node34</title>
<path fill="none" stroke="midnightblue" d="M3365.02,-147.77C3219.3,-138.94 2951.71,-121.24 2724,-98 2707.42,-96.31 2689.5,-94.14 2672.96,-92"/>
<polygon fill="midnightblue" stroke="midnightblue" points="3365.11,-151.28 3375.3,-148.39 3365.53,-144.29 3365.11,-151.28"/>
</g>
<!-- Node35 -->
<g id="node30" class="node">
<title>Node35</title>
<g id="a_node30"><a xlink:href="../../d4/d4f/pmsystems_8cpp.html" target="_top" xlink:title=" ">
<polygon fill="white" stroke="black" points="2733.5,-67.5 2733.5,-97.5 2840.5,-97.5 2840.5,-67.5 2733.5,-67.5"/>
<text text-anchor="start" x="2741.5" y="-85.5" font-family="Helvetica,sans-Serif" font-size="10.00">src/libs/vpatterndb</text>
<text text-anchor="middle" x="2787" y="-74.5" font-family="Helvetica,sans-Serif" font-size="10.00">/pmsystems.cpp</text>
</a>
</g>
</g>
<!-- Node18&#45;&gt;Node35 -->
<g id="edge35" class="edge">
<title>Node18&#45;&gt;Node35</title>
<path fill="none" stroke="midnightblue" d="M3365.14,-148.92C3240.3,-141.98 3028.78,-126.94 2849,-98 2846.27,-97.56 2843.48,-97.07 2840.68,-96.54"/>
<polygon fill="midnightblue" stroke="midnightblue" points="3365.29,-152.43 3375.47,-149.49 3365.67,-145.45 3365.29,-152.43"/>
</g>
<!-- Node18&#45;&gt;Node36 -->
<g id="edge36" class="edge">
<title>Node18&#45;&gt;Node36</title>
<path fill="none" stroke="midnightblue" d="M3580.82,-153.38C3915.32,-151 4932.58,-140.4 5260,-98 5263.01,-97.61 5266.08,-97.14 5269.17,-96.62"/>
<polygon fill="midnightblue" stroke="midnightblue" points="3580.62,-149.88 3570.65,-153.45 3580.67,-156.88 3580.62,-149.88"/>
</g>
<!-- Node18&#45;&gt;Node37 -->
<g id="edge37" class="edge">
<title>Node18&#45;&gt;Node37</title>
<path fill="none" stroke="midnightblue" d="M3580.82,-153.69C3930.84,-152.22 5033.03,-143.97 5386,-98 5388.74,-97.64 5391.54,-97.22 5394.35,-96.74"/>
<polygon fill="midnightblue" stroke="midnightblue" points="3580.67,-150.19 3570.69,-153.73 3580.7,-157.19 3580.67,-150.19"/>
</g>
<!-- Node18&#45;&gt;Node38 -->
<g id="edge38" class="edge">
<title>Node18&#45;&gt;Node38</title>
<path fill="none" stroke="midnightblue" d="M3580.63,-153.91C3945.3,-153.17 5132.47,-146.95 5511,-98 5513.74,-97.65 5516.54,-97.22 5519.35,-96.75"/>
<polygon fill="midnightblue" stroke="midnightblue" points="3580.6,-150.41 3570.6,-153.93 3580.61,-157.41 3580.6,-150.41"/>
</g>
<!-- Node39 -->
<g id="node34" class="node">
<title>Node39</title>
<g id="a_node34"><a xlink:href="../../df/dba/vpiecenode__p_8h.html" target="_top" xlink:title=" ">
<polygon fill="white" stroke="black" points="2858.5,-67.5 2858.5,-97.5 2965.5,-97.5 2965.5,-67.5 2858.5,-67.5"/>
<text text-anchor="start" x="2866.5" y="-85.5" font-family="Helvetica,sans-Serif" font-size="10.00">src/libs/vpatterndb</text>
<text text-anchor="middle" x="2912" y="-74.5" font-family="Helvetica,sans-Serif" font-size="10.00">/vpiecenode_p.h</text>
</a>
</g>
</g>
<!-- Node18&#45;&gt;Node39 -->
<g id="edge39" class="edge">
<title>Node18&#45;&gt;Node39</title>
<path fill="none" stroke="midnightblue" d="M3364.97,-145.44C3263.76,-136.57 3108.49,-120.79 2975,-98 2971.9,-97.47 2968.73,-96.88 2965.53,-96.26"/>
<polygon fill="midnightblue" stroke="midnightblue" points="3364.94,-148.95 3375.2,-146.33 3365.54,-141.97 3364.94,-148.95"/>
</g>
<!-- Node41 -->
<g id="node36" class="node">
<title>Node41</title>
<g id="a_node36"><a xlink:href="../../de/d3e/vtranslatevars_8cpp.html" target="_top" xlink:title=" ">
<polygon fill="white" stroke="black" points="2984,-67.5 2984,-97.5 3094,-97.5 3094,-67.5 2984,-67.5"/>
<text text-anchor="start" x="2992" y="-85.5" font-family="Helvetica,sans-Serif" font-size="10.00">src/libs/vpatterndb</text>
<text text-anchor="middle" x="3039" y="-74.5" font-family="Helvetica,sans-Serif" font-size="10.00">/vtranslatevars.cpp</text>
</a>
</g>
</g>
<!-- Node18&#45;&gt;Node41 -->
<g id="edge41" class="edge">
<title>Node18&#45;&gt;Node41</title>
<path fill="none" stroke="midnightblue" d="M3396.63,-144.09C3321.62,-133.97 3204.06,-117.07 3103,-98 3100.09,-97.45 3097.11,-96.86 3094.11,-96.25"/>
<polygon fill="midnightblue" stroke="midnightblue" points="3396.54,-147.61 3406.92,-145.47 3397.48,-140.67 3396.54,-147.61"/>
</g>
<!-- Node42 -->
<g id="node37" class="node">
<title>Node42</title>
<g id="a_node37"><a xlink:href="../../d3/d4f/mouse__coordinates_8cpp.html" target="_top" xlink:title=" ">
<polygon fill="white" stroke="black" points="3112,-67.5 3112,-97.5 3246,-97.5 3246,-67.5 3112,-67.5"/>
<text text-anchor="start" x="3120" y="-85.5" font-family="Helvetica,sans-Serif" font-size="10.00">src/libs/vwidgets/mouse</text>
<text text-anchor="middle" x="3179" y="-74.5" font-family="Helvetica,sans-Serif" font-size="10.00">_coordinates.cpp</text>
</a>
</g>
</g>
<!-- Node18&#45;&gt;Node42 -->
<g id="edge42" class="edge">
<title>Node18&#45;&gt;Node42</title>
<path fill="none" stroke="midnightblue" d="M3427.77,-143.15C3376.67,-130.9 3293.38,-110.93 3237.41,-97.51"/>
<polygon fill="midnightblue" stroke="midnightblue" points="3427,-146.57 3437.54,-145.5 3428.63,-139.76 3427,-146.57"/>
</g>
<!-- Node43 -->
<g id="node38" class="node">
<title>Node43</title>
<g id="a_node38"><a xlink:href="../../d2/d28/page__format__combobox_8cpp.html" target="_top" xlink:title=" ">
<polygon fill="white" stroke="black" points="3264.5,-67.5 3264.5,-97.5 3395.5,-97.5 3395.5,-67.5 3264.5,-67.5"/>
<text text-anchor="start" x="3272.5" y="-85.5" font-family="Helvetica,sans-Serif" font-size="10.00">src/libs/vwidgets/page</text>
<text text-anchor="middle" x="3330" y="-74.5" font-family="Helvetica,sans-Serif" font-size="10.00">_format_combobox.cpp</text>
</a>
</g>
</g>
<!-- Node18&#45;&gt;Node43 -->
<g id="edge43" class="edge">
<title>Node18&#45;&gt;Node43</title>
<path fill="none" stroke="midnightblue" d="M3446.5,-140.93C3421.47,-128.59 3384.04,-110.14 3358.41,-97.51"/>
<polygon fill="midnightblue" stroke="midnightblue" points="3445.23,-144.21 3455.75,-145.5 3448.33,-137.93 3445.23,-144.21"/>
</g>
<!-- Node44 -->
<g id="node39" class="node">
<title>Node44</title>
<g id="a_node39"><a xlink:href="../../d7/d1b/pen__toolbar_8cpp.html" target="_top" xlink:title=" ">
<polygon fill="white" stroke="black" points="3413.5,-67.5 3413.5,-97.5 3532.5,-97.5 3532.5,-67.5 3413.5,-67.5"/>
<text text-anchor="start" x="3421.5" y="-85.5" font-family="Helvetica,sans-Serif" font-size="10.00">src/libs/vwidgets/pen</text>
<text text-anchor="middle" x="3473" y="-74.5" font-family="Helvetica,sans-Serif" font-size="10.00">_toolbar.cpp</text>
</a>
</g>
</g>
<!-- Node18&#45;&gt;Node44 -->
<g id="edge44" class="edge">
<title>Node18&#45;&gt;Node44</title>
<path fill="none" stroke="midnightblue" d="M3473,-135.24C3473,-123.41 3473,-108.38 3473,-97.58"/>
<polygon fill="midnightblue" stroke="midnightblue" points="3469.5,-135.36 3473,-145.36 3476.5,-135.36 3469.5,-135.36"/>
</g>
<!-- Node45 -->
<g id="node40" class="node">
<title>Node45</title>
<g id="a_node40"><a xlink:href="../../dd/df6/vabstractmainwindow_8cpp.html" target="_top" xlink:title=" ">
<polygon fill="white" stroke="black" points="3550.5,-73 3550.5,-92 3779.5,-92 3779.5,-73 3550.5,-73"/>
<text text-anchor="middle" x="3665" y="-80" font-family="Helvetica,sans-Serif" font-size="10.00">src/libs/vwidgets/vabstractmainwindow.cpp</text>
</a>
</g>
</g>
<!-- Node18&#45;&gt;Node45 -->
<g id="edge45" class="edge">
<title>Node18&#45;&gt;Node45</title>
<path fill="none" stroke="midnightblue" d="M3505.91,-141.92C3544.6,-127.71 3607.83,-104.49 3641.76,-92.03"/>
<polygon fill="midnightblue" stroke="midnightblue" points="3504.34,-138.76 3496.16,-145.5 3506.75,-145.33 3504.34,-138.76"/>
</g>
<!-- Node46 -->
<g id="node41" class="node">
<title>Node46</title>
<g id="a_node41"><a xlink:href="../../df/d40/export__format__combobox_8cpp.html" target="_top" xlink:title=" ">
<polygon fill="white" stroke="black" points="3797.5,-67.5 3797.5,-97.5 3930.5,-97.5 3930.5,-67.5 3797.5,-67.5"/>
<text text-anchor="start" x="3805.5" y="-85.5" font-family="Helvetica,sans-Serif" font-size="10.00">src/libs/vwidgets/export</text>
<text text-anchor="middle" x="3864" y="-74.5" font-family="Helvetica,sans-Serif" font-size="10.00">_format_combobox.cpp</text>
</a>
</g>
</g>
<!-- Node18&#45;&gt;Node46 -->
<g id="edge46" class="edge">
<title>Node18&#45;&gt;Node46</title>
<path fill="none" stroke="midnightblue" d="M3532.34,-143.68C3595.69,-132.61 3699,-114.4 3788,-98 3791.04,-97.44 3794.14,-96.86 3797.28,-96.28"/>
<polygon fill="midnightblue" stroke="midnightblue" points="3531.39,-140.29 3522.14,-145.46 3532.59,-147.19 3531.39,-140.29"/>
</g>
<!-- Node47 -->
<g id="node42" class="node">
<title>Node47</title>
<g id="a_node42"><a xlink:href="../../d1/d90/vgrainlineitem_8cpp.html" target="_top" xlink:title=" ">
<polygon fill="white" stroke="black" points="3948.5,-73 3948.5,-92 4141.5,-92 4141.5,-73 3948.5,-73"/>
<text text-anchor="middle" x="4045" y="-80" font-family="Helvetica,sans-Serif" font-size="10.00">src/libs/vwidgets/vgrainlineitem.cpp</text>
</a>
</g>
</g>
<!-- Node18&#45;&gt;Node47 -->
<g id="edge47" class="edge">
<title>Node18&#45;&gt;Node47</title>
<path fill="none" stroke="midnightblue" d="M3556.85,-144.34C3650.18,-133.49 3805.46,-115.16 3939,-98 3953.55,-96.13 3969.22,-94.03 3983.93,-92.03"/>
<polygon fill="midnightblue" stroke="midnightblue" points="3556.42,-140.87 3546.89,-145.5 3557.23,-147.82 3556.42,-140.87"/>
</g>
<!-- Node48 -->
<g id="node43" class="node">
<title>Node48</title>
<g id="a_node43"><a xlink:href="../../d8/d76/scene__rect_8cpp.html" target="_top" xlink:title=" ">
<polygon fill="white" stroke="black" points="4160,-67.5 4160,-97.5 4290,-97.5 4290,-67.5 4160,-67.5"/>
<text text-anchor="start" x="4168" y="-85.5" font-family="Helvetica,sans-Serif" font-size="10.00">src/libs/vwidgets/scene</text>
<text text-anchor="middle" x="4225" y="-74.5" font-family="Helvetica,sans-Serif" font-size="10.00">_rect.cpp</text>
</a>
</g>
</g>
<!-- Node18&#45;&gt;Node48 -->
<g id="edge48" class="edge">
<title>Node18&#45;&gt;Node48</title>
<path fill="none" stroke="midnightblue" d="M3580.88,-148.69C3714.81,-141.27 3950.02,-125.52 4150,-98 4153.15,-97.57 4156.37,-97.09 4159.62,-96.57"/>
<polygon fill="midnightblue" stroke="midnightblue" points="3580.41,-145.21 3570.62,-149.26 3580.8,-152.2 3580.41,-145.21"/>
</g>
<!-- Node49 -->
<g id="node44" class="node">
<title>Node49</title>
<g id="a_node44"><a xlink:href="../../de/dec/vgraphicssimpletextitem_8cpp.html" target="_top" xlink:title=" ">
<polygon fill="white" stroke="black" points="4308,-73 4308,-92 4552,-92 4552,-73 4308,-73"/>
<text text-anchor="middle" x="4430" y="-80" font-family="Helvetica,sans-Serif" font-size="10.00">src/libs/vwidgets/vgraphicssimpletextitem.cpp</text>
</a>
</g>
</g>
<!-- Node18&#45;&gt;Node49 -->
<g id="edge49" class="edge">
<title>Node18&#45;&gt;Node49</title>
<path fill="none" stroke="midnightblue" d="M3580.88,-148.15C3738.71,-139.27 4041.76,-120.95 4299,-98 4318.14,-96.29 4338.83,-94.14 4357.98,-92.03"/>
<polygon fill="midnightblue" stroke="midnightblue" points="3580.48,-144.67 3570.7,-148.73 3580.88,-151.66 3580.48,-144.67"/>
</g>
<!-- Node27&#45;&gt;Node28 -->
<g id="edge26" class="edge">
<title>Node27&#45;&gt;Node28</title>
<path fill="none" stroke="midnightblue" d="M1797.28,-58.87C1803.21,-49.46 1809.91,-38.83 1815.12,-30.58"/>
<polygon fill="midnightblue" stroke="midnightblue" points="1794.27,-57.07 1791.9,-67.4 1800.19,-60.81 1794.27,-57.07"/>
</g>
<!-- Node39&#45;&gt;Node40 -->
<g id="edge40" class="edge">
<title>Node39&#45;&gt;Node40</title>
<path fill="none" stroke="midnightblue" d="M2975.9,-67.11C3243.5,-33.56 4017.88,-20.31 4229.21,-17.23"/>
<polygon fill="midnightblue" stroke="midnightblue" points="2975.3,-63.65 2965.83,-68.41 2976.2,-70.6 2975.3,-63.65"/>
</g>
</g>
</svg>
