<?xml version="1.0" encoding="UTF-8" standalone="no"?>
<!DOCTYPE svg PUBLIC "-//W3C//DTD SVG 1.1//EN"
 "http://www.w3.org/Graphics/SVG/1.1/DTD/svg11.dtd">
<!-- Generated by graphviz version 2.43.0 (0)
 -->
<!-- Title: src/libs/vpropertyexplorer/vproperty_p.h Pages: 1 -->
<!--zoomable 173 -->
<svg id="main" version="1.1" xmlns="http://www.w3.org/2000/svg" xmlns:xlink="http://www.w3.org/1999/xlink" xml:space="preserve" onload="init(evt)">
<style type="text/css"><![CDATA[
.edge:hover path { stroke: red; }
.edge:hover polygon { stroke: red; fill: red; }
]]></style>
<script type="text/javascript"><![CDATA[
var edges = document.getElementsByTagName('g');
if (edges && edges.length) {
  for (var i=0;i<edges.length;i++) {
    if (edges[i].id.substr(0,4)=='edge') {
      edges[i].setAttribute('class','edge');
    }
  }
}
]]></script>
        <defs>
                <circle id="rim" cx="0" cy="0" r="7"/>
                <circle id="rim2" cx="0" cy="0" r="3.5"/>
                <g id="zoomPlus">
                        <use xlink:href="#rim" fill="#404040">
                                <set attributeName="fill" to="#808080" begin="zoomplus.mouseover" end="zoomplus.mouseout"/>
                        </use>
                        <path d="M-4,0h8M0,-4v8" fill="none" stroke="white" stroke-width="1.5" pointer-events="none"/>
                </g>
                <g id="zoomMin">
                        <use xlink:href="#rim" fill="#404040">
                                <set attributeName="fill" to="#808080" begin="zoomminus.mouseover" end="zoomminus.mouseout"/>
                        </use>
                        <path d="M-4,0h8" fill="none" stroke="white" stroke-width="1.5" pointer-events="none"/>
                </g>
                <g id="dirArrow">
                        <path fill="none" stroke="white" stroke-width="1.5" d="M0,-3.0v7 M-2.5,-0.5L0,-3.0L2.5,-0.5"/>
                </g>
               <g id="resetDef">
                       <use xlink:href="#rim2" fill="#404040">
                               <set attributeName="fill" to="#808080" begin="reset.mouseover" end="reset.mouseout"/>
                       </use>
               </g>
        </defs>

<script type="text/javascript">
var viewWidth = 3213;
var viewHeight = 173;
var sectionId = 'dynsection-1';
</script>
<script xlink:href="../../svgpan.js"/>
<svg id="graph" class="graph">
<g id="viewport">
<title>src/libs/vpropertyexplorer/vproperty_p.h</title>
<polygon fill="white" stroke="transparent" points="-4,4 -4,-169 3208.5,-169 3208.5,4 -4,4"/>
<!-- Node1 -->
<g id="node1" class="node">
<title>Node1</title>
<g id="a_node1"><a xlink:title=" ">
<polygon fill="#bfbfbf" stroke="black" points="1460,-134.5 1460,-164.5 1602,-164.5 1602,-134.5 1460,-134.5"/>
<text text-anchor="start" x="1468" y="-152.5" font-family="Helvetica,sans-Serif" font-size="10.00">src/libs/vpropertyexplorer</text>
<text text-anchor="middle" x="1531" y="-141.5" font-family="Helvetica,sans-Serif" font-size="10.00">/vproperty_p.h</text>
</a>
</g>
</g>
<!-- Node2 -->
<g id="node2" class="node">
<title>Node2</title>
<g id="a_node2"><a xlink:href="../../d2/d1d/direction__property_8cpp.html" target="_top" xlink:title=" ">
<polygon fill="white" stroke="black" points="0,-67.5 0,-97.5 166,-97.5 166,-67.5 0,-67.5"/>
<text text-anchor="start" x="8" y="-85.5" font-family="Helvetica,sans-Serif" font-size="10.00">src/libs/vpropertyexplorer</text>
<text text-anchor="middle" x="83" y="-74.5" font-family="Helvetica,sans-Serif" font-size="10.00">/plugins/direction_property.cpp</text>
</a>
</g>
</g>
<!-- Node1&#45;&gt;Node2 -->
<g id="edge1" class="edge">
<title>Node1&#45;&gt;Node2</title>
<path fill="none" stroke="midnightblue" d="M1449.8,-148.84C1238.94,-149 656.87,-144.78 175,-98 172.1,-97.72 169.16,-97.41 166.19,-97.07"/>
<polygon fill="midnightblue" stroke="midnightblue" points="1449.86,-152.34 1459.86,-148.83 1449.85,-145.34 1449.86,-152.34"/>
</g>
<!-- Node3 -->
<g id="node3" class="node">
<title>Node3</title>
<g id="a_node3"><a xlink:href="../../d9/d33/lineweight__property_8cpp.html" target="_top" xlink:title=" ">
<polygon fill="white" stroke="black" points="184,-67.5 184,-97.5 358,-97.5 358,-67.5 184,-67.5"/>
<text text-anchor="start" x="192" y="-85.5" font-family="Helvetica,sans-Serif" font-size="10.00">src/libs/vpropertyexplorer</text>
<text text-anchor="middle" x="271" y="-74.5" font-family="Helvetica,sans-Serif" font-size="10.00">/plugins/lineweight_property.cpp</text>
</a>
</g>
</g>
<!-- Node1&#45;&gt;Node3 -->
<g id="edge2" class="edge">
<title>Node1&#45;&gt;Node3</title>
<path fill="none" stroke="midnightblue" d="M1449.78,-147.95C1259.89,-146.01 772.27,-137.28 367,-98 364.06,-97.72 361.08,-97.4 358.07,-97.06"/>
<polygon fill="midnightblue" stroke="midnightblue" points="1449.92,-151.45 1459.96,-148.05 1449.99,-144.45 1449.92,-151.45"/>
</g>
<!-- Node4 -->
<g id="node4" class="node">
<title>Node4</title>
<g id="a_node4"><a xlink:href="../../da/d2f/plaintext__property_8cpp.html" target="_top" xlink:title=" ">
<polygon fill="white" stroke="black" points="376.5,-67.5 376.5,-97.5 543.5,-97.5 543.5,-67.5 376.5,-67.5"/>
<text text-anchor="start" x="384.5" y="-85.5" font-family="Helvetica,sans-Serif" font-size="10.00">src/libs/vpropertyexplorer</text>
<text text-anchor="middle" x="460" y="-74.5" font-family="Helvetica,sans-Serif" font-size="10.00">/plugins/plaintext_property.cpp</text>
</a>
</g>
</g>
<!-- Node1&#45;&gt;Node4 -->
<g id="edge3" class="edge">
<title>Node1&#45;&gt;Node4</title>
<path fill="none" stroke="midnightblue" d="M1449.85,-147.19C1281.87,-143.84 883.98,-132.63 552,-98 549.27,-97.71 546.49,-97.4 543.69,-97.07"/>
<polygon fill="midnightblue" stroke="midnightblue" points="1449.79,-150.69 1459.86,-147.38 1449.93,-143.69 1449.79,-150.69"/>
</g>
<!-- Node5 -->
<g id="node5" class="node">
<title>Node5</title>
<g id="a_node5"><a xlink:href="../../d8/d83/vboolproperty_8cpp.html" target="_top" xlink:title=" ">
<polygon fill="white" stroke="black" points="561.5,-67.5 561.5,-97.5 706.5,-97.5 706.5,-67.5 561.5,-67.5"/>
<text text-anchor="start" x="569.5" y="-85.5" font-family="Helvetica,sans-Serif" font-size="10.00">src/libs/vpropertyexplorer</text>
<text text-anchor="middle" x="634" y="-74.5" font-family="Helvetica,sans-Serif" font-size="10.00">/plugins/vboolproperty.cpp</text>
</a>
</g>
</g>
<!-- Node1&#45;&gt;Node5 -->
<g id="edge4" class="edge">
<title>Node1&#45;&gt;Node5</title>
<path fill="none" stroke="midnightblue" d="M1449.62,-146.5C1302.65,-142.22 983.38,-129.82 716,-98 712.99,-97.64 709.91,-97.24 706.81,-96.82"/>
<polygon fill="midnightblue" stroke="midnightblue" points="1449.8,-150.01 1459.9,-146.8 1450,-143.01 1449.8,-150.01"/>
</g>
<!-- Node6 -->
<g id="node6" class="node">
<title>Node6</title>
<g id="a_node6"><a xlink:href="../../d0/d6b/vcolorproperty_8cpp.html" target="_top" xlink:title=" ">
<polygon fill="white" stroke="black" points="725,-67.5 725,-97.5 873,-97.5 873,-67.5 725,-67.5"/>
<text text-anchor="start" x="733" y="-85.5" font-family="Helvetica,sans-Serif" font-size="10.00">src/libs/vpropertyexplorer</text>
<text text-anchor="middle" x="799" y="-74.5" font-family="Helvetica,sans-Serif" font-size="10.00">/plugins/vcolorproperty.cpp</text>
</a>
</g>
</g>
<!-- Node1&#45;&gt;Node6 -->
<g id="edge5" class="edge">
<title>Node1&#45;&gt;Node6</title>
<path fill="none" stroke="midnightblue" d="M1449.6,-144.66C1326.41,-138.29 1085.4,-123.62 882,-98 879.1,-97.63 876.14,-97.24 873.16,-96.82"/>
<polygon fill="midnightblue" stroke="midnightblue" points="1449.54,-148.16 1459.71,-145.18 1449.9,-141.17 1449.54,-148.16"/>
</g>
<!-- Node7 -->
<g id="node7" class="node">
<title>Node7</title>
<g id="a_node7"><a xlink:href="../../d3/d60/venumproperty_8cpp.html" target="_top" xlink:title=" ">
<polygon fill="white" stroke="black" points="891,-67.5 891,-97.5 1043,-97.5 1043,-67.5 891,-67.5"/>
<text text-anchor="start" x="899" y="-85.5" font-family="Helvetica,sans-Serif" font-size="10.00">src/libs/vpropertyexplorer</text>
<text text-anchor="middle" x="967" y="-74.5" font-family="Helvetica,sans-Serif" font-size="10.00">/plugins/venumproperty.cpp</text>
</a>
</g>
</g>
<!-- Node1&#45;&gt;Node7 -->
<g id="edge6" class="edge">
<title>Node1&#45;&gt;Node7</title>
<path fill="none" stroke="midnightblue" d="M1449.72,-141.18C1355.19,-132.35 1194.51,-116.39 1057,-98 1052.45,-97.39 1047.78,-96.74 1043.07,-96.05"/>
<polygon fill="midnightblue" stroke="midnightblue" points="1449.51,-144.67 1459.79,-142.11 1450.16,-137.7 1449.51,-144.67"/>
</g>
<!-- Node8 -->
<g id="node8" class="node">
<title>Node8</title>
<g id="a_node8"><a xlink:href="../../d7/dd2/vfileproperty_8cpp.html" target="_top" xlink:title=" ">
<polygon fill="white" stroke="black" points="1868,-0.5 1868,-30.5 2010,-30.5 2010,-0.5 1868,-0.5"/>
<text text-anchor="start" x="1876" y="-18.5" font-family="Helvetica,sans-Serif" font-size="10.00">src/libs/vpropertyexplorer</text>
<text text-anchor="middle" x="1939" y="-7.5" font-family="Helvetica,sans-Serif" font-size="10.00">/plugins/vfileproperty.cpp</text>
</a>
</g>
</g>
<!-- Node1&#45;&gt;Node8 -->
<g id="edge7" class="edge">
<title>Node1&#45;&gt;Node8</title>
<path fill="none" stroke="midnightblue" d="M1449.44,-144.93C1328.55,-138.8 1113.46,-124.3 1090,-98 1080.83,-87.72 1080.55,-77.03 1090,-67 1116.52,-38.86 1668.22,-22.96 1867.77,-18.11"/>
<polygon fill="midnightblue" stroke="midnightblue" points="1449.6,-148.45 1459.76,-145.45 1449.95,-141.45 1449.6,-148.45"/>
</g>
<!-- Node9 -->
<g id="node9" class="node">
<title>Node9</title>
<g id="a_node9"><a xlink:href="../../d6/ddf/vlabelproperty_8cpp.html" target="_top" xlink:title=" ">
<polygon fill="white" stroke="black" points="1099,-67.5 1099,-97.5 1247,-97.5 1247,-67.5 1099,-67.5"/>
<text text-anchor="start" x="1107" y="-85.5" font-family="Helvetica,sans-Serif" font-size="10.00">src/libs/vpropertyexplorer</text>
<text text-anchor="middle" x="1173" y="-74.5" font-family="Helvetica,sans-Serif" font-size="10.00">/plugins/vlabelproperty.cpp</text>
</a>
</g>
</g>
<!-- Node1&#45;&gt;Node9 -->
<g id="edge8" class="edge">
<title>Node1&#45;&gt;Node9</title>
<path fill="none" stroke="midnightblue" d="M1449.88,-133.77C1388.98,-122.71 1306.24,-107.69 1247.1,-96.95"/>
<polygon fill="midnightblue" stroke="midnightblue" points="1449.38,-137.24 1459.84,-135.58 1450.63,-130.35 1449.38,-137.24"/>
</g>
<!-- Node10 -->
<g id="node10" class="node">
<title>Node10</title>
<g id="a_node10"><a xlink:href="../../dd/d22/vlinecolorproperty_8cpp.html" target="_top" xlink:title=" ">
<polygon fill="white" stroke="black" points="1265,-67.5 1265,-97.5 1431,-97.5 1431,-67.5 1265,-67.5"/>
<text text-anchor="start" x="1273" y="-85.5" font-family="Helvetica,sans-Serif" font-size="10.00">src/libs/vpropertyexplorer</text>
<text text-anchor="middle" x="1348" y="-74.5" font-family="Helvetica,sans-Serif" font-size="10.00">/plugins/vlinecolorproperty.cpp</text>
</a>
</g>
</g>
<!-- Node1&#45;&gt;Node10 -->
<g id="edge9" class="edge">
<title>Node1&#45;&gt;Node10</title>
<path fill="none" stroke="midnightblue" d="M1481.6,-130.96C1452.13,-120.48 1415.19,-107.37 1387.63,-97.58"/>
<polygon fill="midnightblue" stroke="midnightblue" points="1480.7,-134.35 1491.29,-134.4 1483.04,-127.75 1480.7,-134.35"/>
</g>
<!-- Node11 -->
<g id="node11" class="node">
<title>Node11</title>
<g id="a_node11"><a xlink:href="../../dc/d32/vlinetypeproperty_8cpp.html" target="_top" xlink:title=" ">
<polygon fill="white" stroke="black" points="1449,-67.5 1449,-97.5 1613,-97.5 1613,-67.5 1449,-67.5"/>
<text text-anchor="start" x="1457" y="-85.5" font-family="Helvetica,sans-Serif" font-size="10.00">src/libs/vpropertyexplorer</text>
<text text-anchor="middle" x="1531" y="-74.5" font-family="Helvetica,sans-Serif" font-size="10.00">/plugins/vlinetypeproperty.cpp</text>
</a>
</g>
</g>
<!-- Node1&#45;&gt;Node11 -->
<g id="edge10" class="edge">
<title>Node1&#45;&gt;Node11</title>
<path fill="none" stroke="midnightblue" d="M1531,-124.11C1531,-115.15 1531,-105.32 1531,-97.58"/>
<polygon fill="midnightblue" stroke="midnightblue" points="1527.5,-124.4 1531,-134.4 1534.5,-124.4 1527.5,-124.4"/>
</g>
<!-- Node12 -->
<g id="node12" class="node">
<title>Node12</title>
<g id="a_node12"><a xlink:href="../../d2/d8f/vvector3dproperty_8cpp.html" target="_top" xlink:title=" ">
<polygon fill="white" stroke="black" points="1631,-67.5 1631,-97.5 1843,-97.5 1843,-67.5 1631,-67.5"/>
<text text-anchor="start" x="1639" y="-85.5" font-family="Helvetica,sans-Serif" font-size="10.00">src/libs/vpropertyexplorer</text>
<text text-anchor="middle" x="1737" y="-74.5" font-family="Helvetica,sans-Serif" font-size="10.00">/plugins/Vector3d/vvector3dproperty.cpp</text>
</a>
</g>
</g>
<!-- Node1&#45;&gt;Node12 -->
<g id="edge11" class="edge">
<title>Node1&#45;&gt;Node12</title>
<path fill="none" stroke="midnightblue" d="M1585.05,-131.44C1618.45,-120.91 1660.78,-107.55 1692.28,-97.61"/>
<polygon fill="midnightblue" stroke="midnightblue" points="1583.93,-128.13 1575.45,-134.48 1586.04,-134.8 1583.93,-128.13"/>
</g>
<!-- Node13 -->
<g id="node13" class="node">
<title>Node13</title>
<g id="a_node13"><a xlink:href="../../d7/dda/vnumberproperty_8cpp.html" target="_top" xlink:title=" ">
<polygon fill="white" stroke="black" points="1861.5,-67.5 1861.5,-97.5 2022.5,-97.5 2022.5,-67.5 1861.5,-67.5"/>
<text text-anchor="start" x="1869.5" y="-85.5" font-family="Helvetica,sans-Serif" font-size="10.00">src/libs/vpropertyexplorer</text>
<text text-anchor="middle" x="1942" y="-74.5" font-family="Helvetica,sans-Serif" font-size="10.00">/plugins/vnumberproperty.cpp</text>
</a>
</g>
</g>
<!-- Node1&#45;&gt;Node13 -->
<g id="edge12" class="edge">
<title>Node1&#45;&gt;Node13</title>
<path fill="none" stroke="midnightblue" d="M1612.26,-135.8C1677.16,-125.64 1770.43,-110.99 1852,-98 1854.97,-97.53 1857.99,-97.04 1861.05,-96.56"/>
<polygon fill="midnightblue" stroke="midnightblue" points="1611.43,-132.39 1602.09,-137.39 1612.51,-139.3 1611.43,-132.39"/>
</g>
<!-- Node14 -->
<g id="node14" class="node">
<title>Node14</title>
<g id="a_node14"><a xlink:href="../../d5/d66/vobjectproperty_8cpp.html" target="_top" xlink:title=" ">
<polygon fill="white" stroke="black" points="2041,-67.5 2041,-97.5 2195,-97.5 2195,-67.5 2041,-67.5"/>
<text text-anchor="start" x="2049" y="-85.5" font-family="Helvetica,sans-Serif" font-size="10.00">src/libs/vpropertyexplorer</text>
<text text-anchor="middle" x="2118" y="-74.5" font-family="Helvetica,sans-Serif" font-size="10.00">/plugins/vobjectproperty.cpp</text>
</a>
</g>
</g>
<!-- Node1&#45;&gt;Node14 -->
<g id="edge13" class="edge">
<title>Node1&#45;&gt;Node14</title>
<path fill="none" stroke="midnightblue" d="M1612.62,-141.88C1711.77,-133.47 1884,-117.65 2031,-98 2034.19,-97.57 2037.44,-97.12 2040.72,-96.65"/>
<polygon fill="midnightblue" stroke="midnightblue" points="1612.05,-138.42 1602.38,-142.75 1612.64,-145.39 1612.05,-138.42"/>
</g>
<!-- Node15 -->
<g id="node15" class="node">
<title>Node15</title>
<g id="a_node15"><a xlink:href="../../d2/dec/vpointfproperty_8cpp.html" target="_top" xlink:title=" ">
<polygon fill="white" stroke="black" points="2213,-67.5 2213,-97.5 2365,-97.5 2365,-67.5 2213,-67.5"/>
<text text-anchor="start" x="2221" y="-85.5" font-family="Helvetica,sans-Serif" font-size="10.00">src/libs/vpropertyexplorer</text>
<text text-anchor="middle" x="2289" y="-74.5" font-family="Helvetica,sans-Serif" font-size="10.00">/plugins/vpointfproperty.cpp</text>
</a>
</g>
</g>
<!-- Node1&#45;&gt;Node15 -->
<g id="edge14" class="edge">
<title>Node1&#45;&gt;Node15</title>
<path fill="none" stroke="midnightblue" d="M1612.46,-144.86C1739.27,-138.65 1991.41,-124.05 2204,-98 2206.82,-97.65 2209.7,-97.28 2212.59,-96.88"/>
<polygon fill="midnightblue" stroke="midnightblue" points="1612.26,-141.37 1602.44,-145.35 1612.6,-148.36 1612.26,-141.37"/>
</g>
<!-- Node16 -->
<g id="node16" class="node">
<title>Node16</title>
<g id="a_node16"><a xlink:href="../../de/d34/vshortcutproperty_8cpp.html" target="_top" xlink:title=" ">
<polygon fill="white" stroke="black" points="2383,-67.5 2383,-97.5 2547,-97.5 2547,-67.5 2383,-67.5"/>
<text text-anchor="start" x="2391" y="-85.5" font-family="Helvetica,sans-Serif" font-size="10.00">src/libs/vpropertyexplorer</text>
<text text-anchor="middle" x="2465" y="-74.5" font-family="Helvetica,sans-Serif" font-size="10.00">/plugins/vshortcutproperty.cpp</text>
</a>
</g>
</g>
<!-- Node1&#45;&gt;Node16 -->
<g id="edge15" class="edge">
<title>Node1&#45;&gt;Node16</title>
<path fill="none" stroke="midnightblue" d="M1612.35,-146.28C1763,-141.59 2095.46,-128.46 2374,-98 2376.86,-97.69 2379.77,-97.35 2382.71,-96.98"/>
<polygon fill="midnightblue" stroke="midnightblue" points="1612.14,-142.79 1602.25,-146.59 1612.35,-149.78 1612.14,-142.79"/>
</g>
<!-- Node17 -->
<g id="node17" class="node">
<title>Node17</title>
<g id="a_node17"><a xlink:href="../../dc/d18/vstringproperty_8cpp.html" target="_top" xlink:title=" ">
<polygon fill="white" stroke="black" points="2565,-67.5 2565,-97.5 2717,-97.5 2717,-67.5 2565,-67.5"/>
<text text-anchor="start" x="2573" y="-85.5" font-family="Helvetica,sans-Serif" font-size="10.00">src/libs/vpropertyexplorer</text>
<text text-anchor="middle" x="2641" y="-74.5" font-family="Helvetica,sans-Serif" font-size="10.00">/plugins/vstringproperty.cpp</text>
</a>
</g>
</g>
<!-- Node1&#45;&gt;Node17 -->
<g id="edge16" class="edge">
<title>Node1&#45;&gt;Node17</title>
<path fill="none" stroke="midnightblue" d="M1612.14,-147.8C1785.79,-145.57 2206.1,-136.32 2556,-98 2558.83,-97.69 2561.7,-97.35 2564.61,-96.98"/>
<polygon fill="midnightblue" stroke="midnightblue" points="1612.02,-144.3 1602.06,-147.92 1612.11,-151.3 1612.02,-144.3"/>
</g>
<!-- Node18 -->
<g id="node18" class="node">
<title>Node18</title>
<g id="a_node18"><a xlink:href="../../dc/de7/vfileproperty__p_8h.html" target="_top" xlink:title=" ">
<polygon fill="white" stroke="black" points="2735,-67.5 2735,-97.5 2877,-97.5 2877,-67.5 2735,-67.5"/>
<text text-anchor="start" x="2743" y="-85.5" font-family="Helvetica,sans-Serif" font-size="10.00">src/libs/vpropertyexplorer</text>
<text text-anchor="middle" x="2806" y="-74.5" font-family="Helvetica,sans-Serif" font-size="10.00">/vfileproperty_p.h</text>
</a>
</g>
</g>
<!-- Node1&#45;&gt;Node18 -->
<g id="edge17" class="edge">
<title>Node1&#45;&gt;Node18</title>
<path fill="none" stroke="midnightblue" d="M1612.4,-148.9C1806.04,-149 2309.1,-144.37 2726,-98 2728.95,-97.67 2731.95,-97.3 2734.97,-96.89"/>
<polygon fill="midnightblue" stroke="midnightblue" points="1612.31,-145.4 1602.31,-148.89 1612.31,-152.4 1612.31,-145.4"/>
</g>
<!-- Node19 -->
<g id="node19" class="node">
<title>Node19</title>
<g id="a_node19"><a xlink:href="../../d8/dd2/vproperty_8cpp.html" target="_top" xlink:title=" ">
<polygon fill="white" stroke="black" points="2895,-67.5 2895,-97.5 3037,-97.5 3037,-67.5 2895,-67.5"/>
<text text-anchor="start" x="2903" y="-85.5" font-family="Helvetica,sans-Serif" font-size="10.00">src/libs/vpropertyexplorer</text>
<text text-anchor="middle" x="2966" y="-74.5" font-family="Helvetica,sans-Serif" font-size="10.00">/vproperty.cpp</text>
</a>
</g>
</g>
<!-- Node1&#45;&gt;Node19 -->
<g id="edge19" class="edge">
<title>Node1&#45;&gt;Node19</title>
<path fill="none" stroke="midnightblue" d="M1612.46,-146.98C1865.69,-142.03 2636.99,-125.07 2886,-98 2888.95,-97.68 2891.95,-97.31 2894.98,-96.91"/>
<polygon fill="midnightblue" stroke="midnightblue" points="1612.16,-143.49 1602.23,-147.18 1612.3,-150.49 1612.16,-143.49"/>
</g>
<!-- Node20 -->
<g id="node20" class="node">
<title>Node20</title>
<g id="a_node20"><a xlink:href="../../d4/d5a/vwidgetproperty__p_8h.html" target="_top" xlink:title=" ">
<polygon fill="white" stroke="black" points="3055,-67.5 3055,-97.5 3197,-97.5 3197,-67.5 3055,-67.5"/>
<text text-anchor="start" x="3063" y="-85.5" font-family="Helvetica,sans-Serif" font-size="10.00">src/libs/vpropertyexplorer</text>
<text text-anchor="middle" x="3126" y="-74.5" font-family="Helvetica,sans-Serif" font-size="10.00">/vwidgetproperty_p.h</text>
</a>
</g>
</g>
<!-- Node1&#45;&gt;Node20 -->
<g id="edge20" class="edge">
<title>Node1&#45;&gt;Node20</title>
<path fill="none" stroke="midnightblue" d="M1612.6,-147.35C1885.41,-143.27 2764.39,-128.05 3046,-98 3048.95,-97.69 3051.95,-97.32 3054.98,-96.93"/>
<polygon fill="midnightblue" stroke="midnightblue" points="1612.33,-143.86 1602.38,-147.5 1612.43,-150.86 1612.33,-143.86"/>
</g>
<!-- Node18&#45;&gt;Node8 -->
<g id="edge18" class="edge">
<title>Node18&#45;&gt;Node8</title>
<path fill="none" stroke="midnightblue" d="M2724.99,-66.98C2455.54,-34.56 2146.69,-22.41 2010.07,-18.32"/>
<polygon fill="midnightblue" stroke="midnightblue" points="2724.62,-70.45 2734.96,-68.19 2725.46,-63.51 2724.62,-70.45"/>
</g>
<!-- Node21 -->
<g id="node21" class="node">
<title>Node21</title>
<g id="a_node21"><a xlink:href="../../dc/ddd/vwidgetproperty_8cpp.html" target="_top" xlink:title=" ">
<polygon fill="white" stroke="black" points="3047.5,-0.5 3047.5,-30.5 3204.5,-30.5 3204.5,-0.5 3047.5,-0.5"/>
<text text-anchor="start" x="3055.5" y="-18.5" font-family="Helvetica,sans-Serif" font-size="10.00">src/libs/vpropertyexplorer</text>
<text text-anchor="middle" x="3126" y="-7.5" font-family="Helvetica,sans-Serif" font-size="10.00">/plugins/vwidgetproperty.cpp</text>
</a>
</g>
</g>
<!-- Node20&#45;&gt;Node21 -->
<g id="edge21" class="edge">
<title>Node20&#45;&gt;Node21</title>
<path fill="none" stroke="midnightblue" d="M3126,-57.11C3126,-48.15 3126,-38.32 3126,-30.58"/>
<polygon fill="midnightblue" stroke="midnightblue" points="3122.5,-57.4 3126,-67.4 3129.5,-57.4 3122.5,-57.4"/>
</g>
</g>
</svg>
        <g id="navigator" transform="translate(0 0)" fill="#404254">
                <rect fill="#f2f5e9" fill-opacity="0.5" stroke="#606060" stroke-width=".5" x="0" y="0" width="60" height="60"/>
                <use id="zoomplus" xlink:href="#zoomPlus" x="17" y="9" onmousedown="handleZoom(evt,'in')"/>
                <use id="zoomminus" xlink:href="#zoomMin" x="42" y="9" onmousedown="handleZoom(evt,'out')"/>
                <use id="reset" xlink:href="#resetDef" x="30" y="36" onmousedown="handleReset()"/>
                <g id="arrowUp" xlink:href="#dirArrow" transform="translate(30 24)" onmousedown="handlePan(0,-1)">
                  <use xlink:href="#rim" fill="#404040">
                        <set attributeName="fill" to="#808080" begin="arrowUp.mouseover" end="arrowUp.mouseout"/>
                  </use>
                  <path fill="none" stroke="white" stroke-width="1.5" d="M0,-3.0v7 M-2.5,-0.5L0,-3.0L2.5,-0.5"/>
                </g>
                <g id="arrowRight" xlink:href="#dirArrow" transform="rotate(90) translate(36 -43)" onmousedown="handlePan(1,0)">
                  <use xlink:href="#rim" fill="#404040">
                        <set attributeName="fill" to="#808080" begin="arrowRight.mouseover" end="arrowRight.mouseout"/>
                  </use>
                  <path fill="none" stroke="white" stroke-width="1.5" d="M0,-3.0v7 M-2.5,-0.5L0,-3.0L2.5,-0.5"/>
                </g>
                <g id="arrowDown" xlink:href="#dirArrow" transform="rotate(180) translate(-30 -48)" onmousedown="handlePan(0,1)">
                  <use xlink:href="#rim" fill="#404040">
                        <set attributeName="fill" to="#808080" begin="arrowDown.mouseover" end="arrowDown.mouseout"/>
                  </use>
                  <path fill="none" stroke="white" stroke-width="1.5" d="M0,-3.0v7 M-2.5,-0.5L0,-3.0L2.5,-0.5"/>
                </g>
                <g id="arrowLeft" xlink:href="#dirArrow" transform="rotate(270) translate(-36 17)" onmousedown="handlePan(-1,0)">
                  <use xlink:href="#rim" fill="#404040">
                        <set attributeName="fill" to="#808080" begin="arrowLeft.mouseover" end="arrowLeft.mouseout"/>
                  </use>
                  <path fill="none" stroke="white" stroke-width="1.5" d="M0,-3.0v7 M-2.5,-0.5L0,-3.0L2.5,-0.5"/>
                </g>
        </g>
        <svg viewBox="0 0 15 15" width="100%" height="30px" preserveAspectRatio="xMaxYMin meet">
         <g id="arrow_out" transform="scale(0.3 0.3)">
          <a xlink:href="vproperty__p_8h__dep__incl_org.svg" target="_base">
           <rect id="button" ry="5" rx="5" y="6" x="6" height="38" width="38"
                fill="#f2f5e9" fill-opacity="0.5" stroke="#606060" stroke-width="1.0"/>
           <path id="arrow"
             d="M 11.500037,31.436501 C 11.940474,20.09759 22.043105,11.32322 32.158766,21.979434 L 37.068811,17.246167 C 37.068811,17.246167 37.088388,32 37.088388,32 L 22.160133,31.978069 C 22.160133,31.978069 26.997745,27.140456 26.997745,27.140456 C 18.528582,18.264221 13.291696,25.230495 11.500037,31.436501 z"
             style="fill:#404040;"/>
          </a>
         </g>
        </svg>
</svg>
