<?xml version="1.0" encoding="UTF-8" standalone="no"?>
<!DOCTYPE svg PUBLIC "-//W3C//DTD SVG 1.1//EN"
 "http://www.w3.org/Graphics/SVG/1.1/DTD/svg11.dtd">
<!-- Generated by graphviz version 2.43.0 (0)
 -->
<!-- Title: src/libs/vlayout/vbank.h Pages: 1 -->
<svg width="5848pt" height="330pt"
 viewBox="0.00 0.00 5847.50 330.00" xmlns="http://www.w3.org/2000/svg" xmlns:xlink="http://www.w3.org/1999/xlink">
<g id="graph0" class="graph" transform="scale(1 1) rotate(0) translate(4 326)">
<title>src/libs/vlayout/vbank.h</title>
<polygon fill="white" stroke="transparent" points="-4,4 -4,-326 5843.5,-326 5843.5,4 -4,4"/>
<!-- Node1 -->
<g id="node1" class="node">
<title>Node1</title>
<g id="a_node1"><a xlink:title=" ">
<polygon fill="#bfbfbf" stroke="black" points="2643,-302.5 2643,-321.5 2776,-321.5 2776,-302.5 2643,-302.5"/>
<text text-anchor="middle" x="2709.5" y="-309.5" font-family="Helvetica,sans-Serif" font-size="10.00">src/libs/vlayout/vbank.h</text>
</a>
</g>
</g>
<!-- Node2 -->
<g id="node2" class="node">
<title>Node2</title>
<g id="a_node2"><a xlink:href="../../de/da8/vbank_8cpp.html" target="_top" xlink:title=" ">
<polygon fill="white" stroke="black" points="2353.5,-246.5 2353.5,-265.5 2497.5,-265.5 2497.5,-246.5 2353.5,-246.5"/>
<text text-anchor="middle" x="2425.5" y="-253.5" font-family="Helvetica,sans-Serif" font-size="10.00">src/libs/vlayout/vbank.cpp</text>
</a>
</g>
</g>
<!-- Node1&#45;&gt;Node2 -->
<g id="edge1" class="edge">
<title>Node1&#45;&gt;Node2</title>
<path fill="none" stroke="midnightblue" d="M2654.47,-300.54C2600.8,-290.33 2520.16,-275 2470.29,-265.52"/>
<polygon fill="midnightblue" stroke="midnightblue" points="2654.02,-304.01 2664.5,-302.44 2655.33,-297.14 2654.02,-304.01"/>
</g>
<!-- Node3 -->
<g id="node3" class="node">
<title>Node3</title>
<g id="a_node3"><a xlink:href="../../dc/d3c/vlayoutgenerator_8h.html" target="_top" xlink:title=" ">
<polygon fill="white" stroke="black" points="2515.5,-246.5 2515.5,-265.5 2701.5,-265.5 2701.5,-246.5 2515.5,-246.5"/>
<text text-anchor="middle" x="2608.5" y="-253.5" font-family="Helvetica,sans-Serif" font-size="10.00">src/libs/vlayout/vlayoutgenerator.h</text>
</a>
</g>
</g>
<!-- Node1&#45;&gt;Node3 -->
<g id="edge2" class="edge">
<title>Node1&#45;&gt;Node3</title>
<path fill="none" stroke="midnightblue" d="M2684.42,-297.59C2665.74,-287.61 2640.8,-274.27 2624.69,-265.65"/>
<polygon fill="midnightblue" stroke="midnightblue" points="2682.8,-300.7 2693.27,-302.32 2686.1,-294.52 2682.8,-300.7"/>
</g>
<!-- Node5 -->
<g id="node5" class="node">
<title>Node5</title>
<g id="a_node5"><a xlink:href="../../d4/d5c/vcommonsettings_8h.html" target="_top" xlink:title=" ">
<polygon fill="white" stroke="black" points="2720,-246.5 2720,-265.5 2903,-265.5 2903,-246.5 2720,-246.5"/>
<text text-anchor="middle" x="2811.5" y="-253.5" font-family="Helvetica,sans-Serif" font-size="10.00">src/libs/vmisc/vcommonsettings.h</text>
</a>
</g>
</g>
<!-- Node1&#45;&gt;Node5 -->
<g id="edge4" class="edge">
<title>Node1&#45;&gt;Node5</title>
<path fill="none" stroke="midnightblue" d="M2734.83,-297.59C2753.69,-287.61 2778.88,-274.27 2795.15,-265.65"/>
<polygon fill="midnightblue" stroke="midnightblue" points="2733.09,-294.55 2725.89,-302.32 2736.36,-300.74 2733.09,-294.55"/>
</g>
<!-- Node48 -->
<g id="node47" class="node">
<title>Node48</title>
<g id="a_node47"><a xlink:href="../../dd/db2/vsettings_8h.html" target="_top" xlink:title=" ">
<polygon fill="white" stroke="black" points="3419.5,-190.5 3419.5,-209.5 3559.5,-209.5 3559.5,-190.5 3419.5,-190.5"/>
<text text-anchor="middle" x="3489.5" y="-197.5" font-family="Helvetica,sans-Serif" font-size="10.00">src/libs/vmisc/vsettings.h</text>
</a>
</g>
</g>
<!-- Node1&#45;&gt;Node48 -->
<g id="edge63" class="edge">
<title>Node1&#45;&gt;Node48</title>
<path fill="none" stroke="midnightblue" d="M2780.19,-301.03C2931.98,-279.63 3286.79,-229.59 3428.98,-209.53"/>
<polygon fill="midnightblue" stroke="midnightblue" points="2779.47,-297.6 2770.06,-302.46 2780.45,-304.53 2779.47,-297.6"/>
</g>
<!-- Node4 -->
<g id="node4" class="node">
<title>Node4</title>
<g id="a_node4"><a xlink:href="../../d3/d39/vlayoutgenerator_8cpp.html" target="_top" xlink:title=" ">
<polygon fill="white" stroke="black" points="2178,-190.5 2178,-209.5 2375,-209.5 2375,-190.5 2178,-190.5"/>
<text text-anchor="middle" x="2276.5" y="-197.5" font-family="Helvetica,sans-Serif" font-size="10.00">src/libs/vlayout/vlayoutgenerator.cpp</text>
</a>
</g>
</g>
<!-- Node3&#45;&gt;Node4 -->
<g id="edge3" class="edge">
<title>Node3&#45;&gt;Node4</title>
<path fill="none" stroke="midnightblue" d="M2545.73,-244.79C2483,-234.59 2387.65,-219.08 2328.86,-209.52"/>
<polygon fill="midnightblue" stroke="midnightblue" points="2545.46,-248.29 2555.89,-246.44 2546.59,-241.38 2545.46,-248.29"/>
</g>
<!-- Node6 -->
<g id="node6" class="node">
<title>Node6</title>
<g id="a_node6"><a xlink:href="../../d4/d90/fvupdater_8cpp.html" target="_top" xlink:title=" ">
<polygon fill="white" stroke="black" points="5257,-73 5257,-92 5410,-92 5410,-73 5257,-73"/>
<text text-anchor="middle" x="5333.5" y="-80" font-family="Helvetica,sans-Serif" font-size="10.00">src/libs/fervor/fvupdater.cpp</text>
</a>
</g>
</g>
<!-- Node5&#45;&gt;Node6 -->
<g id="edge5" class="edge">
<title>Node5&#45;&gt;Node6</title>
<path fill="none" stroke="midnightblue" d="M2828.5,-239.51C2845.54,-224.76 2873.1,-202.95 2900.5,-190 2990.55,-147.42 3018.8,-147.38 3117.5,-134 3586.83,-70.38 4776.92,-141.95 5248.5,-98 5262.51,-96.69 5277.69,-94.39 5291.3,-92"/>
<polygon fill="midnightblue" stroke="midnightblue" points="2825.78,-237.24 2820.61,-246.49 2830.42,-242.49 2825.78,-237.24"/>
</g>
<!-- Node7 -->
<g id="node7" class="node">
<title>Node7</title>
<g id="a_node7"><a xlink:href="../../dd/d70/vlayoutpiece_8cpp.html" target="_top" xlink:title=" ">
<polygon fill="white" stroke="black" points="5428,-73 5428,-92 5605,-92 5605,-73 5428,-73"/>
<text text-anchor="middle" x="5516.5" y="-80" font-family="Helvetica,sans-Serif" font-size="10.00">src/libs/vlayout/vlayoutpiece.cpp</text>
</a>
</g>
</g>
<!-- Node5&#45;&gt;Node7 -->
<g id="edge6" class="edge">
<title>Node5&#45;&gt;Node7</title>
<path fill="none" stroke="midnightblue" d="M2913.64,-249.63C2988.12,-243.91 3081.24,-232.44 3112.5,-210 3143.34,-187.86 3119.26,-154.05 3151.5,-134 3205.01,-100.73 5356.7,-103.17 5419.5,-98 5435.28,-96.7 5452.4,-94.43 5467.8,-92.07"/>
<polygon fill="midnightblue" stroke="midnightblue" points="2912.98,-246.17 2903.27,-250.4 2913.5,-253.15 2912.98,-246.17"/>
</g>
<!-- Node8 -->
<g id="node8" class="node">
<title>Node8</title>
<g id="a_node8"><a xlink:href="../../d5/d74/vabstractapplication_8h.html" target="_top" xlink:title=" ">
<polygon fill="white" stroke="black" points="2621,-134.5 2621,-153.5 2816,-153.5 2816,-134.5 2621,-134.5"/>
<text text-anchor="middle" x="2718.5" y="-141.5" font-family="Helvetica,sans-Serif" font-size="10.00">src/libs/vmisc/vabstractapplication.h</text>
</a>
</g>
</g>
<!-- Node5&#45;&gt;Node8 -->
<g id="edge7" class="edge">
<title>Node5&#45;&gt;Node8</title>
<path fill="none" stroke="midnightblue" d="M2797.62,-238.59C2777.57,-214.87 2741.22,-171.87 2725.76,-153.59"/>
<polygon fill="midnightblue" stroke="midnightblue" points="2795.07,-240.99 2804.2,-246.37 2800.42,-236.47 2795.07,-240.99"/>
</g>
<!-- Node26 -->
<g id="node25" class="node">
<title>Node26</title>
<g id="a_node25"><a xlink:href="../../db/d11/vformula_8cpp.html" target="_top" xlink:title=" ">
<polygon fill="white" stroke="black" points="0,-67.5 0,-97.5 107,-97.5 107,-67.5 0,-67.5"/>
<text text-anchor="start" x="8" y="-85.5" font-family="Helvetica,sans-Serif" font-size="10.00">src/libs/vpatterndb</text>
<text text-anchor="middle" x="53.5" y="-74.5" font-family="Helvetica,sans-Serif" font-size="10.00">/vformula.cpp</text>
</a>
</g>
</g>
<!-- Node5&#45;&gt;Node26 -->
<g id="edge55" class="edge">
<title>Node5&#45;&gt;Node26</title>
<path fill="none" stroke="midnightblue" d="M2745.69,-244.91C2627.91,-226.87 2392.46,-190.86 2383.5,-190 1379.28,-93.67 1115.13,-233.92 115.5,-98 112.76,-97.63 109.97,-97.19 107.15,-96.7"/>
<polygon fill="midnightblue" stroke="midnightblue" points="2745.26,-248.39 2755.68,-246.44 2746.32,-241.47 2745.26,-248.39"/>
</g>
<!-- Node29 -->
<g id="node28" class="node">
<title>Node29</title>
<g id="a_node28"><a xlink:href="../../df/dba/vpiecenode__p_8h.html" target="_top" xlink:title=" ">
<polygon fill="white" stroke="black" points="125,-67.5 125,-97.5 232,-97.5 232,-67.5 125,-67.5"/>
<text text-anchor="start" x="133" y="-85.5" font-family="Helvetica,sans-Serif" font-size="10.00">src/libs/vpatterndb</text>
<text text-anchor="middle" x="178.5" y="-74.5" font-family="Helvetica,sans-Serif" font-size="10.00">/vpiecenode_p.h</text>
</a>
</g>
</g>
<!-- Node5&#45;&gt;Node29 -->
<g id="edge56" class="edge">
<title>Node5&#45;&gt;Node29</title>
<path fill="none" stroke="midnightblue" d="M2711,-245.11C2662.98,-238.44 2605.27,-227.53 2555.5,-210 2547.24,-207.09 2425.96,-136.25 2417.5,-134 2183.71,-71.81 480.59,-127.71 240.5,-98 237.76,-97.66 234.96,-97.25 232.14,-96.78"/>
<polygon fill="midnightblue" stroke="midnightblue" points="2710.72,-248.6 2721.09,-246.47 2711.65,-241.67 2710.72,-248.6"/>
</g>
<!-- Node32 -->
<g id="node31" class="node">
<title>Node32</title>
<g id="a_node31"><a xlink:href="../../df/d40/export__format__combobox_8cpp.html" target="_top" xlink:title=" ">
<polygon fill="white" stroke="black" points="250,-67.5 250,-97.5 383,-97.5 383,-67.5 250,-67.5"/>
<text text-anchor="start" x="258" y="-85.5" font-family="Helvetica,sans-Serif" font-size="10.00">src/libs/vwidgets/export</text>
<text text-anchor="middle" x="316.5" y="-74.5" font-family="Helvetica,sans-Serif" font-size="10.00">_format_combobox.cpp</text>
</a>
</g>
</g>
<!-- Node5&#45;&gt;Node32 -->
<g id="edge57" class="edge">
<title>Node5&#45;&gt;Node32</title>
<path fill="none" stroke="midnightblue" d="M2734.25,-244.84C2691.84,-237.84 2638.81,-226.72 2593.5,-210 2585.29,-206.97 2463.96,-136.25 2455.5,-134 2233.87,-74.94 619.62,-121.86 391.5,-98 388.73,-97.71 385.91,-97.37 383.07,-96.99"/>
<polygon fill="midnightblue" stroke="midnightblue" points="2733.81,-248.32 2744.24,-246.45 2734.92,-241.4 2733.81,-248.32"/>
</g>
<!-- Node34 -->
<g id="node33" class="node">
<title>Node34</title>
<g id="a_node33"><a xlink:href="../../d2/d28/page__format__combobox_8cpp.html" target="_top" xlink:title=" ">
<polygon fill="white" stroke="black" points="401,-67.5 401,-97.5 532,-97.5 532,-67.5 401,-67.5"/>
<text text-anchor="start" x="409" y="-85.5" font-family="Helvetica,sans-Serif" font-size="10.00">src/libs/vwidgets/page</text>
<text text-anchor="middle" x="466.5" y="-74.5" font-family="Helvetica,sans-Serif" font-size="10.00">_format_combobox.cpp</text>
</a>
</g>
</g>
<!-- Node5&#45;&gt;Node34 -->
<g id="edge58" class="edge">
<title>Node5&#45;&gt;Node34</title>
<path fill="none" stroke="midnightblue" d="M2754.23,-244.33C2718.77,-236.79 2672.68,-225.31 2633.5,-210 2629.38,-208.39 2497.78,-135.13 2493.5,-134 2283.64,-78.65 756.32,-120.95 540.5,-98 537.77,-97.71 534.98,-97.37 532.18,-96.99"/>
<polygon fill="midnightblue" stroke="midnightblue" points="2753.9,-247.83 2764.41,-246.44 2755.33,-240.98 2753.9,-247.83"/>
</g>
<!-- Node38 -->
<g id="node37" class="node">
<title>Node38</title>
<g id="a_node37"><a xlink:href="../../d1/d90/vgrainlineitem_8cpp.html" target="_top" xlink:title=" ">
<polygon fill="white" stroke="black" points="550,-73 550,-92 743,-92 743,-73 550,-73"/>
<text text-anchor="middle" x="646.5" y="-80" font-family="Helvetica,sans-Serif" font-size="10.00">src/libs/vwidgets/vgrainlineitem.cpp</text>
</a>
</g>
</g>
<!-- Node5&#45;&gt;Node38 -->
<g id="edge59" class="edge">
<title>Node5&#45;&gt;Node38</title>
<path fill="none" stroke="midnightblue" d="M2773.03,-243.48C2746.4,-235.12 2710.35,-223.03 2679.5,-210 2628.97,-188.65 2618.22,-179.22 2569.5,-154 2552.55,-145.23 2549.98,-138.77 2531.5,-134 2340.05,-84.64 949.6,-113.42 752.5,-98 735.28,-96.65 716.58,-94.37 699.75,-92.01"/>
<polygon fill="midnightblue" stroke="midnightblue" points="2772.15,-246.87 2782.74,-246.49 2774.23,-240.19 2772.15,-246.87"/>
</g>
<!-- Node41 -->
<g id="node40" class="node">
<title>Node41</title>
<g id="a_node40"><a xlink:href="../../d1/d88/vmaingraphicsscene_8cpp.html" target="_top" xlink:title=" ">
<polygon fill="white" stroke="black" points="761.5,-73 761.5,-92 983.5,-92 983.5,-73 761.5,-73"/>
<text text-anchor="middle" x="872.5" y="-80" font-family="Helvetica,sans-Serif" font-size="10.00">src/libs/vwidgets/vmaingraphicsscene.cpp</text>
</a>
</g>
</g>
<!-- Node5&#45;&gt;Node41 -->
<g id="edge60" class="edge">
<title>Node5&#45;&gt;Node41</title>
<path fill="none" stroke="midnightblue" d="M2785.54,-241.83C2724.26,-210.78 2575.29,-135.44 2569.5,-134 2399.39,-91.79 1167.32,-110.53 992.5,-98 973.24,-96.62 952.33,-94.36 933.44,-92.03"/>
<polygon fill="midnightblue" stroke="midnightblue" points="2784.09,-245.02 2794.59,-246.42 2787.25,-238.78 2784.09,-245.02"/>
</g>
<!-- Node44 -->
<g id="node43" class="node">
<title>Node44</title>
<g id="a_node43"><a xlink:href="../../d2/d31/vmaingraphicsview_8cpp.html" target="_top" xlink:title=" ">
<polygon fill="white" stroke="black" points="5623.5,-73 5623.5,-92 5839.5,-92 5839.5,-73 5623.5,-73"/>
<text text-anchor="middle" x="5731.5" y="-80" font-family="Helvetica,sans-Serif" font-size="10.00">src/libs/vwidgets/vmaingraphicsview.cpp</text>
</a>
</g>
</g>
<!-- Node5&#45;&gt;Node44 -->
<g id="edge61" class="edge">
<title>Node5&#45;&gt;Node44</title>
<path fill="none" stroke="midnightblue" d="M2913.2,-249.22C3060.93,-240.43 3321.88,-223.35 3363.5,-210 3426.14,-189.91 3427.25,-152.06 3490.5,-134 3603.98,-101.6 5496.77,-106.27 5614.5,-98 5633.49,-96.67 5654.12,-94.39 5672.7,-92.03"/>
<polygon fill="midnightblue" stroke="midnightblue" points="2912.97,-245.72 2903.2,-249.81 2913.38,-252.71 2912.97,-245.72"/>
</g>
<!-- Node45 -->
<g id="node44" class="node">
<title>Node45</title>
<g id="a_node44"><a xlink:href="../../df/df5/vtextgraphicsitem_8cpp.html" target="_top" xlink:title=" ">
<polygon fill="white" stroke="black" points="5028,-73 5028,-92 5239,-92 5239,-73 5028,-73"/>
<text text-anchor="middle" x="5133.5" y="-80" font-family="Helvetica,sans-Serif" font-size="10.00">src/libs/vwidgets/vtextgraphicsitem.cpp</text>
</a>
</g>
</g>
<!-- Node5&#45;&gt;Node45 -->
<g id="edge62" class="edge">
<title>Node5&#45;&gt;Node45</title>
<path fill="none" stroke="midnightblue" d="M2813.99,-236.24C2818.79,-208.41 2832.21,-156.97 2867.5,-134 2917.58,-101.4 4958.89,-102.24 5018.5,-98 5037.17,-96.67 5057.45,-94.39 5075.71,-92.03"/>
<polygon fill="midnightblue" stroke="midnightblue" points="2810.51,-235.86 2812.46,-246.27 2817.43,-236.91 2810.51,-235.86"/>
</g>
<!-- Node47 -->
<g id="node46" class="node">
<title>Node47</title>
<g id="a_node46"><a xlink:href="../../d4/d11/vcommonsettings_8cpp.html" target="_top" xlink:title=" ">
<polygon fill="white" stroke="black" points="2909.5,-190.5 2909.5,-209.5 3103.5,-209.5 3103.5,-190.5 2909.5,-190.5"/>
<text text-anchor="middle" x="3006.5" y="-197.5" font-family="Helvetica,sans-Serif" font-size="10.00">src/libs/vmisc/vcommonsettings.cpp</text>
</a>
</g>
</g>
<!-- Node5&#45;&gt;Node47 -->
<g id="edge48" class="edge">
<title>Node5&#45;&gt;Node47</title>
<path fill="none" stroke="midnightblue" d="M2852.31,-243.7C2889.11,-233.51 2942.43,-218.74 2975.75,-209.52"/>
<polygon fill="midnightblue" stroke="midnightblue" points="2851.1,-240.4 2842.4,-246.44 2852.97,-247.15 2851.1,-240.4"/>
</g>
<!-- Node5&#45;&gt;Node48 -->
<g id="edge49" class="edge">
<title>Node5&#45;&gt;Node48</title>
<path fill="none" stroke="midnightblue" d="M2913.29,-248.26C3031.66,-240.19 3232.87,-225.78 3405.5,-210 3410.03,-209.59 3414.69,-209.14 3419.39,-208.68"/>
<polygon fill="midnightblue" stroke="midnightblue" points="2912.9,-244.77 2903.16,-248.94 2913.37,-251.76 2912.9,-244.77"/>
</g>
<!-- Node50 -->
<g id="node49" class="node">
<title>Node50</title>
<g id="a_node49"><a xlink:href="../../df/da4/vseamlymesettings_8h.html" target="_top" xlink:title=" ">
<polygon fill="white" stroke="black" points="3162.5,-190.5 3162.5,-209.5 3354.5,-209.5 3354.5,-190.5 3162.5,-190.5"/>
<text text-anchor="middle" x="3258.5" y="-197.5" font-family="Helvetica,sans-Serif" font-size="10.00">src/libs/vmisc/vseamlymesettings.h</text>
</a>
</g>
</g>
<!-- Node5&#45;&gt;Node50 -->
<g id="edge53" class="edge">
<title>Node5&#45;&gt;Node50</title>
<path fill="none" stroke="midnightblue" d="M2892.38,-245.23C2976.76,-235.04 3107.71,-219.22 3188,-209.52"/>
<polygon fill="midnightblue" stroke="midnightblue" points="2891.84,-241.77 2882.33,-246.44 2892.68,-248.72 2891.84,-241.77"/>
</g>
<!-- Node8&#45;&gt;Node6 -->
<g id="edge8" class="edge">
<title>Node8&#45;&gt;Node6</title>
<path fill="none" stroke="midnightblue" d="M2826.3,-135.91C2840.16,-135.17 2854.16,-134.5 2867.5,-134 3396.3,-114.04 4721.57,-146.64 5248.5,-98 5262.51,-96.71 5277.69,-94.41 5291.3,-92.02"/>
<polygon fill="midnightblue" stroke="midnightblue" points="2826.04,-132.42 2816.25,-136.46 2826.43,-139.41 2826.04,-132.42"/>
</g>
<!-- Node8&#45;&gt;Node7 -->
<g id="edge21" class="edge">
<title>Node8&#45;&gt;Node7</title>
<path fill="none" stroke="midnightblue" d="M2826.18,-140.37C2906.48,-138.46 3018.84,-135.88 3117.5,-134 3629.02,-124.23 4909.6,-139.91 5419.5,-98 5435.28,-96.7 5452.4,-94.43 5467.8,-92.07"/>
<polygon fill="midnightblue" stroke="midnightblue" points="2825.98,-136.87 2816.06,-140.61 2826.14,-143.87 2825.98,-136.87"/>
</g>
<!-- Node9 -->
<g id="node9" class="node">
<title>Node9</title>
<g id="a_node9"><a xlink:href="../../d9/dc8/dxiface_8cpp.html" target="_top" xlink:title=" ">
<polygon fill="white" stroke="black" points="4006,-73 4006,-92 4141,-92 4141,-73 4006,-73"/>
<text text-anchor="middle" x="4073.5" y="-80" font-family="Helvetica,sans-Serif" font-size="10.00">src/libs/vdxf/dxiface.cpp</text>
</a>
</g>
</g>
<!-- Node8&#45;&gt;Node9 -->
<g id="edge9" class="edge">
<title>Node8&#45;&gt;Node9</title>
<path fill="none" stroke="midnightblue" d="M2826.23,-134.19C2827.32,-134.12 2828.41,-134.06 2829.5,-134 3348.05,-105 3481.26,-154.84 3997.5,-98 4009.78,-96.65 4023.05,-94.39 4035.02,-92.06"/>
<polygon fill="midnightblue" stroke="midnightblue" points="2826,-130.69 2816.24,-134.8 2826.43,-137.68 2826,-130.69"/>
</g>
<!-- Node10 -->
<g id="node10" class="node">
<title>Node10</title>
<g id="a_node10"><a xlink:href="../../da/d75/vabstractarc__p_8h.html" target="_top" xlink:title=" ">
<polygon fill="white" stroke="black" points="4159,-67.5 4159,-97.5 4266,-97.5 4266,-67.5 4159,-67.5"/>
<text text-anchor="start" x="4167" y="-85.5" font-family="Helvetica,sans-Serif" font-size="10.00">src/libs/vgeometry</text>
<text text-anchor="middle" x="4212.5" y="-74.5" font-family="Helvetica,sans-Serif" font-size="10.00">/vabstractarc_p.h</text>
</a>
</g>
</g>
<!-- Node8&#45;&gt;Node10 -->
<g id="edge10" class="edge">
<title>Node8&#45;&gt;Node10</title>
<path fill="none" stroke="midnightblue" d="M2826.23,-134.18C2827.32,-134.12 2828.41,-134.06 2829.5,-134 3122.74,-118.13 3859.26,-135.63 4150.5,-98 4153.24,-97.65 4156.04,-97.22 4158.85,-96.75"/>
<polygon fill="midnightblue" stroke="midnightblue" points="2826.01,-130.69 2816.24,-134.78 2826.43,-137.68 2826.01,-130.69"/>
</g>
<!-- Node12 -->
<g id="node12" class="node">
<title>Node12</title>
<g id="a_node12"><a xlink:href="../../dc/da3/varc__p_8h.html" target="_top" xlink:title=" ">
<polygon fill="white" stroke="black" points="4284,-67.5 4284,-97.5 4391,-97.5 4391,-67.5 4284,-67.5"/>
<text text-anchor="start" x="4292" y="-85.5" font-family="Helvetica,sans-Serif" font-size="10.00">src/libs/vgeometry</text>
<text text-anchor="middle" x="4337.5" y="-74.5" font-family="Helvetica,sans-Serif" font-size="10.00">/varc_p.h</text>
</a>
</g>
</g>
<!-- Node8&#45;&gt;Node12 -->
<g id="edge12" class="edge">
<title>Node8&#45;&gt;Node12</title>
<path fill="none" stroke="midnightblue" d="M2826.23,-134.18C2827.32,-134.12 2828.41,-134.06 2829.5,-134 3150.48,-117 3956.67,-138.81 4275.5,-98 4278.24,-97.65 4281.04,-97.23 4283.85,-96.76"/>
<polygon fill="midnightblue" stroke="midnightblue" points="2826.01,-130.68 2816.24,-134.77 2826.43,-137.67 2826.01,-130.68"/>
</g>
<!-- Node14 -->
<g id="node14" class="node">
<title>Node14</title>
<g id="a_node14"><a xlink:href="../../d5/d8e/vcubicbezier__p_8h.html" target="_top" xlink:title=" ">
<polygon fill="white" stroke="black" points="4409,-67.5 4409,-97.5 4516,-97.5 4516,-67.5 4409,-67.5"/>
<text text-anchor="start" x="4417" y="-85.5" font-family="Helvetica,sans-Serif" font-size="10.00">src/libs/vgeometry</text>
<text text-anchor="middle" x="4462.5" y="-74.5" font-family="Helvetica,sans-Serif" font-size="10.00">/vcubicbezier_p.h</text>
</a>
</g>
</g>
<!-- Node8&#45;&gt;Node14 -->
<g id="edge14" class="edge">
<title>Node8&#45;&gt;Node14</title>
<path fill="none" stroke="midnightblue" d="M2826.22,-134.17C2827.32,-134.11 2828.41,-134.06 2829.5,-134 3178.23,-115.88 4054.08,-142 4400.5,-98 4403.24,-97.65 4406.04,-97.23 4408.86,-96.76"/>
<polygon fill="midnightblue" stroke="midnightblue" points="2826.01,-130.68 2816.24,-134.76 2826.42,-137.67 2826.01,-130.68"/>
</g>
<!-- Node16 -->
<g id="node16" class="node">
<title>Node16</title>
<g id="a_node16"><a xlink:href="../../df/dde/vellipticalarc__p_8h.html" target="_top" xlink:title=" ">
<polygon fill="white" stroke="black" points="4573,-67.5 4573,-97.5 4680,-97.5 4680,-67.5 4573,-67.5"/>
<text text-anchor="start" x="4581" y="-85.5" font-family="Helvetica,sans-Serif" font-size="10.00">src/libs/vgeometry</text>
<text text-anchor="middle" x="4626.5" y="-74.5" font-family="Helvetica,sans-Serif" font-size="10.00">/vellipticalarc_p.h</text>
</a>
</g>
</g>
<!-- Node8&#45;&gt;Node16 -->
<g id="edge16" class="edge">
<title>Node8&#45;&gt;Node16</title>
<path fill="none" stroke="midnightblue" d="M2826.22,-134.17C2827.32,-134.11 2828.41,-134.06 2829.5,-134 3213.31,-114.46 4176.75,-142.27 4558.5,-98 4563.18,-97.46 4568.01,-96.74 4572.83,-95.92"/>
<polygon fill="midnightblue" stroke="midnightblue" points="2826.02,-130.68 2816.24,-134.75 2826.42,-137.67 2826.02,-130.68"/>
</g>
<!-- Node17 -->
<g id="node17" class="node">
<title>Node17</title>
<g id="a_node17"><a xlink:href="../../d6/dfb/vellipticalarc_8cpp.html" target="_top" xlink:title=" ">
<polygon fill="white" stroke="black" points="4553,-0.5 4553,-30.5 4660,-30.5 4660,-0.5 4553,-0.5"/>
<text text-anchor="start" x="4561" y="-18.5" font-family="Helvetica,sans-Serif" font-size="10.00">src/libs/vgeometry</text>
<text text-anchor="middle" x="4606.5" y="-7.5" font-family="Helvetica,sans-Serif" font-size="10.00">/vellipticalarc.cpp</text>
</a>
</g>
</g>
<!-- Node8&#45;&gt;Node17 -->
<g id="edge18" class="edge">
<title>Node8&#45;&gt;Node17</title>
<path fill="none" stroke="midnightblue" d="M2826.22,-134.17C2827.32,-134.11 2828.41,-134.06 2829.5,-134 2923.62,-129.19 4438.88,-135.12 4525.5,-98 4542.28,-90.81 4576.46,-52.25 4594.59,-30.85"/>
<polygon fill="midnightblue" stroke="midnightblue" points="2826.02,-130.68 2816.24,-134.75 2826.42,-137.67 2826.02,-130.68"/>
</g>
<!-- Node18 -->
<g id="node18" class="node">
<title>Node18</title>
<g id="a_node18"><a xlink:href="../../d1/d76/vspline__p_8h.html" target="_top" xlink:title=" ">
<polygon fill="white" stroke="red" points="4698,-67.5 4698,-97.5 4805,-97.5 4805,-67.5 4698,-67.5"/>
<text text-anchor="start" x="4706" y="-85.5" font-family="Helvetica,sans-Serif" font-size="10.00">src/libs/vgeometry</text>
<text text-anchor="middle" x="4751.5" y="-74.5" font-family="Helvetica,sans-Serif" font-size="10.00">/vspline_p.h</text>
</a>
</g>
</g>
<!-- Node8&#45;&gt;Node18 -->
<g id="edge19" class="edge">
<title>Node8&#45;&gt;Node18</title>
<path fill="none" stroke="midnightblue" d="M2826.22,-134.17C2827.32,-134.11 2828.41,-134.05 2829.5,-134 3242.39,-113.29 4279.29,-149.36 4689.5,-98 4692.24,-97.66 4695.04,-97.24 4697.86,-96.77"/>
<polygon fill="midnightblue" stroke="midnightblue" points="2826.02,-130.68 2816.23,-134.74 2826.42,-137.66 2826.02,-130.68"/>
</g>
<!-- Node20 -->
<g id="node19" class="node">
<title>Node20</title>
<g id="a_node19"><a xlink:href="../../d9/d15/vabstractpiece_8cpp.html" target="_top" xlink:title=" ">
<polygon fill="white" stroke="black" points="4823.5,-73 4823.5,-92 5009.5,-92 5009.5,-73 4823.5,-73"/>
<text text-anchor="middle" x="4916.5" y="-80" font-family="Helvetica,sans-Serif" font-size="10.00">src/libs/vlayout/vabstractpiece.cpp</text>
</a>
</g>
</g>
<!-- Node8&#45;&gt;Node20 -->
<g id="edge20" class="edge">
<title>Node8&#45;&gt;Node20</title>
<path fill="none" stroke="midnightblue" d="M2826.22,-134.17C2827.32,-134.11 2828.41,-134.05 2829.5,-134 3710.79,-90.32 3934.93,-168.23 4814.5,-98 4831.17,-96.67 4849.27,-94.38 4865.53,-92"/>
<polygon fill="midnightblue" stroke="midnightblue" points="2826.02,-130.67 2816.23,-134.73 2826.42,-137.66 2826.02,-130.67"/>
</g>
<!-- Node21 -->
<g id="node20" class="node">
<title>Node21</title>
<g id="a_node20"><a xlink:href="../../d8/d70/vtextmanager_8cpp.html" target="_top" xlink:title=" ">
<polygon fill="white" stroke="black" points="1001.5,-73 1001.5,-92 1183.5,-92 1183.5,-73 1001.5,-73"/>
<text text-anchor="middle" x="1092.5" y="-80" font-family="Helvetica,sans-Serif" font-size="10.00">src/libs/vlayout/vtextmanager.cpp</text>
</a>
</g>
</g>
<!-- Node8&#45;&gt;Node21 -->
<g id="edge22" class="edge">
<title>Node8&#45;&gt;Node21</title>
<path fill="none" stroke="midnightblue" d="M2610.77,-134.18C2609.68,-134.12 2608.59,-134.06 2607.5,-134 1979.3,-100.57 1819.34,-151.23 1192.5,-98 1176.33,-96.63 1158.79,-94.35 1142.98,-92.01"/>
<polygon fill="midnightblue" stroke="midnightblue" points="2610.57,-137.67 2620.76,-134.77 2610.99,-130.69 2610.57,-137.67"/>
</g>
<!-- Node22 -->
<g id="node21" class="node">
<title>Node22</title>
<g id="a_node21"><a xlink:href="../../d6/d0b/def_8cpp.html" target="_top" xlink:title=" ">
<polygon fill="white" stroke="black" points="1201.5,-73 1201.5,-92 1323.5,-92 1323.5,-73 1201.5,-73"/>
<text text-anchor="middle" x="1262.5" y="-80" font-family="Helvetica,sans-Serif" font-size="10.00">src/libs/vmisc/def.cpp</text>
</a>
</g>
</g>
<!-- Node8&#45;&gt;Node22 -->
<g id="edge23" class="edge">
<title>Node8&#45;&gt;Node22</title>
<path fill="none" stroke="midnightblue" d="M2610.77,-134.18C2609.68,-134.12 2608.59,-134.06 2607.5,-134 2041.45,-103.08 1895.57,-163.75 1332.5,-98 1321.04,-96.66 1308.66,-94.38 1297.55,-92.02"/>
<polygon fill="midnightblue" stroke="midnightblue" points="2610.57,-137.68 2620.76,-134.79 2610.99,-130.69 2610.57,-137.68"/>
</g>
<!-- Node23 -->
<g id="node22" class="node">
<title>Node23</title>
<g id="a_node22"><a xlink:href="../../db/d65/dialogexporttocsv_8cpp.html" target="_top" xlink:title=" ">
<polygon fill="white" stroke="black" points="1342,-67.5 1342,-97.5 1469,-97.5 1469,-67.5 1342,-67.5"/>
<text text-anchor="start" x="1350" y="-85.5" font-family="Helvetica,sans-Serif" font-size="10.00">src/libs/vmisc/dialogs</text>
<text text-anchor="middle" x="1405.5" y="-74.5" font-family="Helvetica,sans-Serif" font-size="10.00">/dialogexporttocsv.cpp</text>
</a>
</g>
</g>
<!-- Node8&#45;&gt;Node23 -->
<g id="edge24" class="edge">
<title>Node8&#45;&gt;Node23</title>
<path fill="none" stroke="midnightblue" d="M2610.77,-134.19C2609.68,-134.12 2608.59,-134.06 2607.5,-134 2106.27,-105.71 1977.28,-155.1 1478.5,-98 1475.42,-97.65 1472.27,-97.23 1469.1,-96.77"/>
<polygon fill="midnightblue" stroke="midnightblue" points="2610.56,-137.68 2620.76,-134.81 2611,-130.7 2610.56,-137.68"/>
</g>
<!-- Node24 -->
<g id="node23" class="node">
<title>Node24</title>
<g id="a_node23"><a xlink:href="../../d0/df6/vabstractapplication_8cpp.html" target="_top" xlink:title=" ">
<polygon fill="white" stroke="black" points="1487.5,-73 1487.5,-92 1693.5,-92 1693.5,-73 1487.5,-73"/>
<text text-anchor="middle" x="1590.5" y="-80" font-family="Helvetica,sans-Serif" font-size="10.00">src/libs/vmisc/vabstractapplication.cpp</text>
</a>
</g>
</g>
<!-- Node8&#45;&gt;Node24 -->
<g id="edge25" class="edge">
<title>Node8&#45;&gt;Node24</title>
<path fill="none" stroke="midnightblue" d="M2610.77,-134.2C2609.68,-134.13 2608.59,-134.07 2607.5,-134 2205.69,-109.73 2103.61,-131.88 1702.5,-98 1684.92,-96.52 1665.85,-94.28 1648.52,-92.01"/>
<polygon fill="midnightblue" stroke="midnightblue" points="2610.55,-137.69 2620.76,-134.85 2611.01,-130.71 2610.55,-137.69"/>
</g>
<!-- Node25 -->
<g id="node24" class="node">
<title>Node25</title>
<g id="a_node24"><a xlink:href="../../d4/d4f/pmsystems_8cpp.html" target="_top" xlink:title=" ">
<polygon fill="white" stroke="black" points="1712,-67.5 1712,-97.5 1819,-97.5 1819,-67.5 1712,-67.5"/>
<text text-anchor="start" x="1720" y="-85.5" font-family="Helvetica,sans-Serif" font-size="10.00">src/libs/vpatterndb</text>
<text text-anchor="middle" x="1765.5" y="-74.5" font-family="Helvetica,sans-Serif" font-size="10.00">/pmsystems.cpp</text>
</a>
</g>
</g>
<!-- Node8&#45;&gt;Node25 -->
<g id="edge26" class="edge">
<title>Node8&#45;&gt;Node25</title>
<path fill="none" stroke="midnightblue" d="M2610.77,-134.21C2609.68,-134.14 2608.59,-134.07 2607.5,-134 2261.16,-111.97 2171.24,-145.72 1827.5,-98 1824.76,-97.62 1821.97,-97.18 1819.16,-96.68"/>
<polygon fill="midnightblue" stroke="midnightblue" points="2610.54,-137.7 2620.76,-134.89 2611.02,-130.72 2610.54,-137.7"/>
</g>
<!-- Node8&#45;&gt;Node26 -->
<g id="edge27" class="edge">
<title>Node8&#45;&gt;Node26</title>
<path fill="none" stroke="midnightblue" d="M2610.73,-139.41C2553.36,-137.59 2481.6,-135.46 2417.5,-134 2161.76,-128.18 369.39,-129.31 115.5,-98 112.76,-97.66 109.96,-97.25 107.14,-96.79"/>
<polygon fill="midnightblue" stroke="midnightblue" points="2610.8,-142.91 2620.91,-139.73 2611.02,-135.91 2610.8,-142.91"/>
</g>
<!-- Node27 -->
<g id="node26" class="node">
<title>Node27</title>
<g id="a_node26"><a xlink:href="../../d6/d46/vcontainer_8cpp.html" target="_top" xlink:title=" ">
<polygon fill="white" stroke="black" points="1837,-67.5 1837,-97.5 1944,-97.5 1944,-67.5 1837,-67.5"/>
<text text-anchor="start" x="1845" y="-85.5" font-family="Helvetica,sans-Serif" font-size="10.00">src/libs/vpatterndb</text>
<text text-anchor="middle" x="1890.5" y="-74.5" font-family="Helvetica,sans-Serif" font-size="10.00">/vcontainer.cpp</text>
</a>
</g>
</g>
<!-- Node8&#45;&gt;Node27 -->
<g id="edge28" class="edge">
<title>Node8&#45;&gt;Node27</title>
<path fill="none" stroke="midnightblue" d="M2610.77,-134.22C2609.68,-134.15 2608.59,-134.07 2607.5,-134 2316.62,-114.22 2241.1,-139.35 1952.5,-98 1949.76,-97.61 1946.97,-97.15 1944.16,-96.65"/>
<polygon fill="midnightblue" stroke="midnightblue" points="2610.53,-137.72 2620.75,-134.93 2611.03,-130.73 2610.53,-137.72"/>
</g>
<!-- Node28 -->
<g id="node27" class="node">
<title>Node28</title>
<g id="a_node27"><a xlink:href="../../df/d7a/vpiece_8cpp.html" target="_top" xlink:title=" ">
<polygon fill="white" stroke="black" points="1962,-67.5 1962,-97.5 2069,-97.5 2069,-67.5 1962,-67.5"/>
<text text-anchor="start" x="1970" y="-85.5" font-family="Helvetica,sans-Serif" font-size="10.00">src/libs/vpatterndb</text>
<text text-anchor="middle" x="2015.5" y="-74.5" font-family="Helvetica,sans-Serif" font-size="10.00">/vpiece.cpp</text>
</a>
</g>
</g>
<!-- Node8&#45;&gt;Node28 -->
<g id="edge29" class="edge">
<title>Node8&#45;&gt;Node28</title>
<path fill="none" stroke="midnightblue" d="M2610.77,-134.24C2609.67,-134.16 2608.58,-134.08 2607.5,-134 2372.5,-116.48 2311.61,-132.54 2078.5,-98 2075.39,-97.54 2072.21,-97.01 2069.01,-96.42"/>
<polygon fill="midnightblue" stroke="midnightblue" points="2610.51,-137.74 2620.75,-135 2611.04,-130.76 2610.51,-137.74"/>
</g>
<!-- Node8&#45;&gt;Node29 -->
<g id="edge30" class="edge">
<title>Node8&#45;&gt;Node29</title>
<path fill="none" stroke="midnightblue" d="M2610.77,-138.88C2563.18,-137.17 2506.56,-135.29 2455.5,-134 1963.37,-121.58 729.07,-158.4 240.5,-98 237.76,-97.66 234.96,-97.25 232.14,-96.78"/>
<polygon fill="midnightblue" stroke="midnightblue" points="2610.66,-142.37 2620.78,-139.24 2610.91,-135.38 2610.66,-142.37"/>
</g>
<!-- Node31 -->
<g id="node30" class="node">
<title>Node31</title>
<g id="a_node30"><a xlink:href="../../de/d3e/vtranslatevars_8cpp.html" target="_top" xlink:title=" ">
<polygon fill="white" stroke="black" points="2087.5,-67.5 2087.5,-97.5 2197.5,-97.5 2197.5,-67.5 2087.5,-67.5"/>
<text text-anchor="start" x="2095.5" y="-85.5" font-family="Helvetica,sans-Serif" font-size="10.00">src/libs/vpatterndb</text>
<text text-anchor="middle" x="2142.5" y="-74.5" font-family="Helvetica,sans-Serif" font-size="10.00">/vtranslatevars.cpp</text>
</a>
</g>
</g>
<!-- Node8&#45;&gt;Node31 -->
<g id="edge32" class="edge">
<title>Node8&#45;&gt;Node31</title>
<path fill="none" stroke="midnightblue" d="M2610.58,-133.89C2466.26,-121.65 2226.13,-101.07 2206.5,-98 2203.57,-97.54 2200.58,-97.03 2197.57,-96.47"/>
<polygon fill="midnightblue" stroke="midnightblue" points="2610.54,-137.4 2620.8,-134.76 2611.13,-130.42 2610.54,-137.4"/>
</g>
<!-- Node8&#45;&gt;Node32 -->
<g id="edge33" class="edge">
<title>Node8&#45;&gt;Node32</title>
<path fill="none" stroke="midnightblue" d="M2610.45,-138.18C2573.38,-136.66 2531.63,-135.09 2493.5,-134 2026.51,-120.66 856.15,-146.52 391.5,-98 388.73,-97.71 385.91,-97.37 383.07,-96.99"/>
<polygon fill="midnightblue" stroke="midnightblue" points="2610.64,-141.69 2620.78,-138.6 2610.93,-134.69 2610.64,-141.69"/>
</g>
<!-- Node33 -->
<g id="node32" class="node">
<title>Node33</title>
<g id="a_node32"><a xlink:href="../../d3/d4f/mouse__coordinates_8cpp.html" target="_top" xlink:title=" ">
<polygon fill="white" stroke="black" points="2215.5,-67.5 2215.5,-97.5 2349.5,-97.5 2349.5,-67.5 2215.5,-67.5"/>
<text text-anchor="start" x="2223.5" y="-85.5" font-family="Helvetica,sans-Serif" font-size="10.00">src/libs/vwidgets/mouse</text>
<text text-anchor="middle" x="2282.5" y="-74.5" font-family="Helvetica,sans-Serif" font-size="10.00">_coordinates.cpp</text>
</a>
</g>
</g>
<!-- Node8&#45;&gt;Node33 -->
<g id="edge34" class="edge">
<title>Node8&#45;&gt;Node33</title>
<path fill="none" stroke="midnightblue" d="M2628.5,-133.37C2555.54,-125.18 2450.16,-112.46 2358.5,-98 2355.58,-97.54 2352.6,-97.05 2349.6,-96.54"/>
<polygon fill="midnightblue" stroke="midnightblue" points="2628.25,-136.87 2638.58,-134.5 2629.03,-129.91 2628.25,-136.87"/>
</g>
<!-- Node8&#45;&gt;Node34 -->
<g id="edge35" class="edge">
<title>Node8&#45;&gt;Node34</title>
<path fill="none" stroke="midnightblue" d="M2610.75,-137.26C2584.8,-136.03 2557.17,-134.85 2531.5,-134 2089.23,-119.36 980.54,-144.73 540.5,-98 537.77,-97.71 534.98,-97.37 532.18,-96.99"/>
<polygon fill="midnightblue" stroke="midnightblue" points="2610.83,-140.77 2620.98,-137.75 2611.16,-133.78 2610.83,-140.77"/>
</g>
<!-- Node35 -->
<g id="node34" class="node">
<title>Node35</title>
<g id="a_node34"><a xlink:href="../../d7/d1b/pen__toolbar_8cpp.html" target="_top" xlink:title=" ">
<polygon fill="white" stroke="black" points="2368,-67.5 2368,-97.5 2487,-97.5 2487,-67.5 2368,-67.5"/>
<text text-anchor="start" x="2376" y="-85.5" font-family="Helvetica,sans-Serif" font-size="10.00">src/libs/vwidgets/pen</text>
<text text-anchor="middle" x="2427.5" y="-74.5" font-family="Helvetica,sans-Serif" font-size="10.00">_toolbar.cpp</text>
</a>
</g>
</g>
<!-- Node8&#45;&gt;Node35 -->
<g id="edge36" class="edge">
<title>Node8&#45;&gt;Node35</title>
<path fill="none" stroke="midnightblue" d="M2665.43,-132.46C2620.23,-123.44 2553.56,-110.05 2495.5,-98 2492.78,-97.44 2490,-96.86 2487.2,-96.27"/>
<polygon fill="midnightblue" stroke="midnightblue" points="2664.81,-135.91 2675.3,-134.43 2666.18,-129.04 2664.81,-135.91"/>
</g>
<!-- Node36 -->
<g id="node35" class="node">
<title>Node36</title>
<g id="a_node35"><a xlink:href="../../dd/df6/vabstractmainwindow_8cpp.html" target="_top" xlink:title=" ">
<polygon fill="white" stroke="black" points="2505,-73 2505,-92 2734,-92 2734,-73 2505,-73"/>
<text text-anchor="middle" x="2619.5" y="-80" font-family="Helvetica,sans-Serif" font-size="10.00">src/libs/vwidgets/vabstractmainwindow.cpp</text>
</a>
</g>
</g>
<!-- Node8&#45;&gt;Node36 -->
<g id="edge37" class="edge">
<title>Node8&#45;&gt;Node36</title>
<path fill="none" stroke="midnightblue" d="M2695.61,-129.24C2676.49,-117.75 2649.82,-101.72 2633.66,-92.01"/>
<polygon fill="midnightblue" stroke="midnightblue" points="2693.94,-132.32 2704.32,-134.48 2697.55,-126.32 2693.94,-132.32"/>
</g>
<!-- Node37 -->
<g id="node36" class="node">
<title>Node37</title>
<g id="a_node36"><a xlink:href="../../d8/d76/scene__rect_8cpp.html" target="_top" xlink:title=" ">
<polygon fill="white" stroke="black" points="2752.5,-67.5 2752.5,-97.5 2882.5,-97.5 2882.5,-67.5 2752.5,-67.5"/>
<text text-anchor="start" x="2760.5" y="-85.5" font-family="Helvetica,sans-Serif" font-size="10.00">src/libs/vwidgets/scene</text>
<text text-anchor="middle" x="2817.5" y="-74.5" font-family="Helvetica,sans-Serif" font-size="10.00">_rect.cpp</text>
</a>
</g>
</g>
<!-- Node8&#45;&gt;Node37 -->
<g id="edge38" class="edge">
<title>Node8&#45;&gt;Node37</title>
<path fill="none" stroke="midnightblue" d="M2741.33,-129.28C2757.18,-119.75 2778.22,-107.11 2794.17,-97.52"/>
<polygon fill="midnightblue" stroke="midnightblue" points="2739.45,-126.32 2732.68,-134.48 2743.06,-132.32 2739.45,-126.32"/>
</g>
<!-- Node8&#45;&gt;Node38 -->
<g id="edge39" class="edge">
<title>Node8&#45;&gt;Node38</title>
<path fill="none" stroke="midnightblue" d="M2610.69,-135.97C2596.84,-135.22 2582.84,-134.53 2569.5,-134 1762.43,-101.64 1557.77,-160.84 752.5,-98 735.28,-96.66 716.58,-94.37 699.75,-92.01"/>
<polygon fill="midnightblue" stroke="midnightblue" points="2610.57,-139.47 2620.75,-136.53 2610.96,-132.48 2610.57,-139.47"/>
</g>
<!-- Node39 -->
<g id="node38" class="node">
<title>Node39</title>
<g id="a_node38"><a xlink:href="../../de/d45/vcontrolpointspline_8cpp.html" target="_top" xlink:title=" ">
<polygon fill="white" stroke="black" points="2901,-73 2901,-92 3116,-92 3116,-73 2901,-73"/>
<text text-anchor="middle" x="3008.5" y="-80" font-family="Helvetica,sans-Serif" font-size="10.00">src/libs/vwidgets/vcontrolpointspline.cpp</text>
</a>
</g>
</g>
<!-- Node8&#45;&gt;Node39 -->
<g id="edge40" class="edge">
<title>Node8&#45;&gt;Node39</title>
<path fill="none" stroke="midnightblue" d="M2770.15,-132.4C2826.37,-120.87 2915.16,-102.65 2967.03,-92.01"/>
<polygon fill="midnightblue" stroke="midnightblue" points="2769.14,-129.04 2760.05,-134.48 2770.55,-135.89 2769.14,-129.04"/>
</g>
<!-- Node40 -->
<g id="node39" class="node">
<title>Node40</title>
<g id="a_node39"><a xlink:href="../../de/dec/vgraphicssimpletextitem_8cpp.html" target="_top" xlink:title=" ">
<polygon fill="white" stroke="black" points="3134.5,-73 3134.5,-92 3378.5,-92 3378.5,-73 3134.5,-73"/>
<text text-anchor="middle" x="3256.5" y="-80" font-family="Helvetica,sans-Serif" font-size="10.00">src/libs/vwidgets/vgraphicssimpletextitem.cpp</text>
</a>
</g>
</g>
<!-- Node8&#45;&gt;Node40 -->
<g id="edge41" class="edge">
<title>Node8&#45;&gt;Node40</title>
<path fill="none" stroke="midnightblue" d="M2805.84,-133.35C2888.26,-124.24 3015.28,-110.19 3125.5,-98 3143.01,-96.06 3161.84,-93.98 3179.61,-92.01"/>
<polygon fill="midnightblue" stroke="midnightblue" points="2805.32,-129.88 2795.77,-134.46 2806.09,-136.84 2805.32,-129.88"/>
</g>
<!-- Node8&#45;&gt;Node41 -->
<g id="edge42" class="edge">
<title>Node8&#45;&gt;Node41</title>
<path fill="none" stroke="midnightblue" d="M2610.78,-134.17C2609.68,-134.11 2608.59,-134.06 2607.5,-134 1890.5,-96.97 1708.63,-149.12 992.5,-98 973.24,-96.63 952.33,-94.37 933.44,-92.04"/>
<polygon fill="midnightblue" stroke="midnightblue" points="2610.58,-137.67 2620.76,-134.76 2610.99,-130.68 2610.58,-137.67"/>
</g>
<!-- Node42 -->
<g id="node41" class="node">
<title>Node42</title>
<g id="a_node41"><a xlink:href="../../d0/d5d/vscenepoint_8cpp.html" target="_top" xlink:title=" ">
<polygon fill="white" stroke="black" points="3397,-73 3397,-92 3578,-92 3578,-73 3397,-73"/>
<text text-anchor="middle" x="3487.5" y="-80" font-family="Helvetica,sans-Serif" font-size="10.00">src/libs/vwidgets/vscenepoint.cpp</text>
</a>
</g>
</g>
<!-- Node8&#45;&gt;Node42 -->
<g id="edge43" class="edge">
<title>Node8&#45;&gt;Node42</title>
<path fill="none" stroke="midnightblue" d="M2826.23,-134.24C2827.32,-134.16 2828.42,-134.08 2829.5,-134 3077.36,-115.96 3140.33,-123.85 3387.5,-98 3402.77,-96.4 3419.28,-94.2 3434.4,-92"/>
<polygon fill="midnightblue" stroke="midnightblue" points="2825.96,-130.75 2816.25,-134.98 2826.48,-137.73 2825.96,-130.75"/>
</g>
<!-- Node43 -->
<g id="node42" class="node">
<title>Node43</title>
<g id="a_node42"><a xlink:href="../../de/d22/vsimplecurve_8cpp.html" target="_top" xlink:title=" ">
<polygon fill="white" stroke="black" points="3596.5,-73 3596.5,-92 3784.5,-92 3784.5,-73 3596.5,-73"/>
<text text-anchor="middle" x="3690.5" y="-80" font-family="Helvetica,sans-Serif" font-size="10.00">src/libs/vwidgets/vsimplecurve.cpp</text>
</a>
</g>
</g>
<!-- Node8&#45;&gt;Node43 -->
<g id="edge44" class="edge">
<title>Node8&#45;&gt;Node43</title>
<path fill="none" stroke="midnightblue" d="M2826.23,-134.21C2827.32,-134.14 2828.41,-134.07 2829.5,-134 3166.07,-112.37 3251.71,-129.54 3587.5,-98 3603.59,-96.49 3621.02,-94.26 3636.89,-92"/>
<polygon fill="midnightblue" stroke="midnightblue" points="2825.98,-130.72 2816.24,-134.89 2826.46,-137.71 2825.98,-130.72"/>
</g>
<!-- Node8&#45;&gt;Node44 -->
<g id="edge45" class="edge">
<title>Node8&#45;&gt;Node44</title>
<path fill="none" stroke="midnightblue" d="M2826.31,-140.57C2913.91,-138.65 3040.68,-135.96 3151.5,-134 3698.81,-124.31 5068.41,-135.72 5614.5,-98 5633.59,-96.68 5654.35,-94.39 5673,-92.02"/>
<polygon fill="midnightblue" stroke="midnightblue" points="2826.01,-137.08 2816.09,-140.8 2826.16,-144.08 2826.01,-137.08"/>
</g>
<!-- Node8&#45;&gt;Node45 -->
<g id="edge46" class="edge">
<title>Node8&#45;&gt;Node45</title>
<path fill="none" stroke="midnightblue" d="M2826.22,-134.16C2827.32,-134.11 2828.41,-134.05 2829.5,-134 3801.37,-86.66 4047.93,-166.96 5018.5,-98 5037.17,-96.67 5057.45,-94.4 5075.71,-92.04"/>
<polygon fill="midnightblue" stroke="midnightblue" points="2826.02,-130.67 2816.23,-134.72 2826.41,-137.66 2826.02,-130.67"/>
</g>
<!-- Node46 -->
<g id="node45" class="node">
<title>Node46</title>
<g id="a_node45"><a xlink:href="../../df/d38/vsimplepoint_8cpp.html" target="_top" xlink:title=" ">
<polygon fill="white" stroke="black" points="3803,-73 3803,-92 3988,-92 3988,-73 3803,-73"/>
<text text-anchor="middle" x="3895.5" y="-80" font-family="Helvetica,sans-Serif" font-size="10.00">src/libs/vwidgets/vsimplepoint.cpp</text>
</a>
</g>
</g>
<!-- Node8&#45;&gt;Node46 -->
<g id="edge47" class="edge">
<title>Node8&#45;&gt;Node46</title>
<path fill="none" stroke="midnightblue" d="M2826.23,-134.2C2827.32,-134.13 2828.41,-134.06 2829.5,-134 3257.49,-108.67 3366.46,-136.22 3793.5,-98 3809.62,-96.56 3827.09,-94.32 3842.94,-92.04"/>
<polygon fill="midnightblue" stroke="midnightblue" points="2826,-130.7 2816.24,-134.84 2826.44,-137.69 2826,-130.7"/>
</g>
<!-- Node11 -->
<g id="node11" class="node">
<title>Node11</title>
<g id="a_node11"><a xlink:href="../../d4/da1/vabstractarc_8cpp.html" target="_top" xlink:title=" ">
<polygon fill="white" stroke="black" points="4159,-0.5 4159,-30.5 4266,-30.5 4266,-0.5 4159,-0.5"/>
<text text-anchor="start" x="4167" y="-18.5" font-family="Helvetica,sans-Serif" font-size="10.00">src/libs/vgeometry</text>
<text text-anchor="middle" x="4212.5" y="-7.5" font-family="Helvetica,sans-Serif" font-size="10.00">/vabstractarc.cpp</text>
</a>
</g>
</g>
<!-- Node10&#45;&gt;Node11 -->
<g id="edge11" class="edge">
<title>Node10&#45;&gt;Node11</title>
<path fill="none" stroke="midnightblue" d="M4212.5,-57.11C4212.5,-48.15 4212.5,-38.32 4212.5,-30.58"/>
<polygon fill="midnightblue" stroke="midnightblue" points="4209,-57.4 4212.5,-67.4 4216,-57.4 4209,-57.4"/>
</g>
<!-- Node13 -->
<g id="node13" class="node">
<title>Node13</title>
<g id="a_node13"><a xlink:href="../../d5/ded/varc_8cpp.html" target="_top" xlink:title=" ">
<polygon fill="white" stroke="black" points="4284,-0.5 4284,-30.5 4391,-30.5 4391,-0.5 4284,-0.5"/>
<text text-anchor="start" x="4292" y="-18.5" font-family="Helvetica,sans-Serif" font-size="10.00">src/libs/vgeometry</text>
<text text-anchor="middle" x="4337.5" y="-7.5" font-family="Helvetica,sans-Serif" font-size="10.00">/varc.cpp</text>
</a>
</g>
</g>
<!-- Node12&#45;&gt;Node13 -->
<g id="edge13" class="edge">
<title>Node12&#45;&gt;Node13</title>
<path fill="none" stroke="midnightblue" d="M4337.5,-57.11C4337.5,-48.15 4337.5,-38.32 4337.5,-30.58"/>
<polygon fill="midnightblue" stroke="midnightblue" points="4334,-57.4 4337.5,-67.4 4341,-57.4 4334,-57.4"/>
</g>
<!-- Node15 -->
<g id="node15" class="node">
<title>Node15</title>
<g id="a_node15"><a xlink:href="../../d2/d26/vcubicbezier_8cpp.html" target="_top" xlink:title=" ">
<polygon fill="white" stroke="black" points="4409,-0.5 4409,-30.5 4516,-30.5 4516,-0.5 4409,-0.5"/>
<text text-anchor="start" x="4417" y="-18.5" font-family="Helvetica,sans-Serif" font-size="10.00">src/libs/vgeometry</text>
<text text-anchor="middle" x="4462.5" y="-7.5" font-family="Helvetica,sans-Serif" font-size="10.00">/vcubicbezier.cpp</text>
</a>
</g>
</g>
<!-- Node14&#45;&gt;Node15 -->
<g id="edge15" class="edge">
<title>Node14&#45;&gt;Node15</title>
<path fill="none" stroke="midnightblue" d="M4462.5,-57.11C4462.5,-48.15 4462.5,-38.32 4462.5,-30.58"/>
<polygon fill="midnightblue" stroke="midnightblue" points="4459,-57.4 4462.5,-67.4 4466,-57.4 4459,-57.4"/>
</g>
<!-- Node16&#45;&gt;Node17 -->
<g id="edge17" class="edge">
<title>Node16&#45;&gt;Node17</title>
<path fill="none" stroke="midnightblue" d="M4619.18,-57.7C4616.37,-48.59 4613.27,-38.49 4610.83,-30.58"/>
<polygon fill="midnightblue" stroke="midnightblue" points="4615.87,-58.87 4622.16,-67.4 4622.56,-56.81 4615.87,-58.87"/>
</g>
<!-- Node30 -->
<g id="node29" class="node">
<title>Node30</title>
<g id="a_node29"><a xlink:href="../../d8/dba/vpiecenode_8cpp.html" target="_top" xlink:title=" ">
<polygon fill="white" stroke="black" points="125,-0.5 125,-30.5 232,-30.5 232,-0.5 125,-0.5"/>
<text text-anchor="start" x="133" y="-18.5" font-family="Helvetica,sans-Serif" font-size="10.00">src/libs/vpatterndb</text>
<text text-anchor="middle" x="178.5" y="-7.5" font-family="Helvetica,sans-Serif" font-size="10.00">/vpiecenode.cpp</text>
</a>
</g>
</g>
<!-- Node29&#45;&gt;Node30 -->
<g id="edge31" class="edge">
<title>Node29&#45;&gt;Node30</title>
<path fill="none" stroke="midnightblue" d="M178.5,-57.11C178.5,-48.15 178.5,-38.32 178.5,-30.58"/>
<polygon fill="midnightblue" stroke="midnightblue" points="175,-57.4 178.5,-67.4 182,-57.4 175,-57.4"/>
</g>
<!-- Node48&#45;&gt;Node8 -->
<g id="edge50" class="edge">
<title>Node48&#45;&gt;Node8</title>
<path fill="none" stroke="midnightblue" d="M3408.86,-193.22C3393.79,-192.15 3378.16,-191.04 3363.5,-190 3169.37,-176.29 2942.35,-160.51 2816.03,-151.75"/>
<polygon fill="midnightblue" stroke="midnightblue" points="3408.97,-196.74 3419.19,-193.96 3409.47,-189.75 3408.97,-196.74"/>
</g>
<!-- Node48&#45;&gt;Node44 -->
<g id="edge52" class="edge">
<title>Node48&#45;&gt;Node44</title>
<path fill="none" stroke="midnightblue" d="M3489.4,-179.76C3490.47,-164.69 3494.65,-144.57 3508.5,-134 3555.02,-98.51 5556.14,-102.1 5614.5,-98 5633.49,-96.66 5654.12,-94.39 5672.7,-92.03"/>
<polygon fill="midnightblue" stroke="midnightblue" points="3485.89,-179.95 3489.09,-190.05 3492.89,-180.17 3485.89,-179.95"/>
</g>
<!-- Node49 -->
<g id="node48" class="node">
<title>Node49</title>
<g id="a_node48"><a xlink:href="../../db/d28/vsettings_8cpp.html" target="_top" xlink:title=" ">
<polygon fill="white" stroke="black" points="3517.5,-134.5 3517.5,-153.5 3669.5,-153.5 3669.5,-134.5 3517.5,-134.5"/>
<text text-anchor="middle" x="3593.5" y="-141.5" font-family="Helvetica,sans-Serif" font-size="10.00">src/libs/vmisc/vsettings.cpp</text>
</a>
</g>
</g>
<!-- Node48&#45;&gt;Node49 -->
<g id="edge51" class="edge">
<title>Node48&#45;&gt;Node49</title>
<path fill="none" stroke="midnightblue" d="M3515.33,-185.59C3534.56,-175.61 3560.24,-162.27 3576.83,-153.65"/>
<polygon fill="midnightblue" stroke="midnightblue" points="3513.47,-182.61 3506.21,-190.32 3516.7,-188.82 3513.47,-182.61"/>
</g>
<!-- Node51 -->
<g id="node50" class="node">
<title>Node51</title>
<g id="a_node50"><a xlink:href="../../df/dba/vseamlymesettings_8cpp.html" target="_top" xlink:title=" ">
<polygon fill="white" stroke="black" points="3160,-134.5 3160,-153.5 3363,-153.5 3363,-134.5 3160,-134.5"/>
<text text-anchor="middle" x="3261.5" y="-141.5" font-family="Helvetica,sans-Serif" font-size="10.00">src/libs/vmisc/vseamlymesettings.cpp</text>
</a>
</g>
</g>
<!-- Node50&#45;&gt;Node51 -->
<g id="edge54" class="edge">
<title>Node50&#45;&gt;Node51</title>
<path fill="none" stroke="midnightblue" d="M3259.57,-179.8C3260.06,-170.91 3260.62,-160.78 3261.01,-153.75"/>
<polygon fill="midnightblue" stroke="midnightblue" points="3256.06,-179.9 3259,-190.08 3263.04,-180.29 3256.06,-179.9"/>
</g>
</g>
</svg>
